<?xml version="1.0" encoding="UTF-8" standalone="no"?><svg xmlns="http://www.w3.org/2000/svg" xmlns:xlink="http://www.w3.org/1999/xlink" clip-rule="evenodd" stroke-miterlimit="10" viewBox="0 0 1920 1080"><desc>SVG generated by Keynote</desc><defs></defs><g transform="matrix(1.00, 0.00, -0.00, -1.00, 0.0, 1080.0)"><path d="M 0.0 1080.0 L 1920.0 1080.0 L 1920.0 0.0 L 0.0 0.0 Z M 0.0 1080.0 " fill="#1ABB9B"></path><path d="M -2.0 317.0 L 1922.0 317.0 L 1922.0 161.0 L -2.0 161.0 Z M -1.9 317.4 " fill="#011997"></path><text xml:space="preserve" font-family="OpenSans-Light,Open Sans" font-size="50.0" fill="#FEFFFF" transform="matrix(1.00, 0.00, -0.00, -1.00, 31.7, 38.3)">T</text><text xml:space="preserve" font-family="OpenSans-Light,Open Sans" font-size="50.0" fill="#FEFFFF" transform="matrix(1.00, 0.00, -0.00, -1.00, 57.9, 38.3)">h</text><text xml:space="preserve" font-family="OpenSans-Light,Open Sans" font-size="50.0" fill="#FEFFFF" transform="matrix(1.00, 0.00, -0.00, -1.00, 87.4, 38.3)">e</text><text xml:space="preserve" font-family="OpenSans-Light,Open Sans" font-size="50.0" fill="#FEFFFF" transform="matrix(1.00, 0.00, -0.00, -1.00, 114.8, 38.3)"> </text><text xml:space="preserve" font-family="OpenSans-Light,Open Sans" font-size="50.0" fill="#FEFFFF" transform="matrix(1.00, 0.00, -0.00, -1.00, 127.8, 38.3)">f</text><text xml:space="preserve" font-family="OpenSans-Light,Open Sans" font-size="50.0" fill="#FEFFFF" transform="matrix(1.00, 0.00, -0.00, -1.00, 142.8, 38.3)">r</text><text xml:space="preserve" font-family="OpenSans-Light,Open Sans" font-size="50.0" fill="#FEFFFF" transform="matrix(1.00, 0.00, -0.00, -1.00, 161.3, 38.3)">o</text><text xml:space="preserve" font-family="OpenSans-Light,Open Sans" font-size="50.0" fill="#FEFFFF" transform="matrix(1.00, 0.00, -0.00, -1.00, 190.5, 38.3)">n</text><text xml:space="preserve" font-family="OpenSans-Light,Open Sans" font-size="50.0" fill="#FEFFFF" transform="matrix(1.00, 0.00, -0.00, -1.00, 220.0, 38.3)">t</text><text xml:space="preserve" font-family="OpenSans-Light,Open Sans" font-size="50.0" fill="#FEFFFF" transform="matrix(1.00, 0.00, -0.00, -1.00, 236.8, 38.3)">-</text><text xml:space="preserve" font-family="OpenSans-Light,Open Sans" font-size="50.0" fill="#FEFFFF" transform="matrix(1.00, 0.00, -0.00, -1.00, 252.9, 38.3)">e</text><text xml:space="preserve" font-family="OpenSans-Light,Open Sans" font-size="50.0" fill="#FEFFFF" transform="matrix(1.00, 0.00, -0.00, -1.00, 280.3, 38.3)">n</text><text xml:space="preserve" font-family="OpenSans-Light,Open Sans" font-size="50.0" fill="#FEFFFF" transform="matrix(1.00, 0.00, -0.00, -1.00, 309.8, 38.3)">d</text><text xml:space="preserve" font-family="Helvetica-Light,Helvetica" font-size="60.0" fill="#FEFFFF" transform="matrix(1.00, 0.00, -0.00, -1.00, 491.6, 216.8)">H</text><text xml:space="preserve" font-family="Helvetica-Light,Helvetica" font-size="60.0" fill="#FEFFFF" transform="matrix(1.00, 0.00, -0.00, -1.00, 534.9, 216.8)">o</text><text xml:space="preserve" font-family="Helvetica-Light,Helvetica" font-size="60.0" fill="#FEFFFF" transform="matrix(1.00, 0.00, -0.00, -1.00, 568.2, 216.8)">w</text><text xml:space="preserve" font-family="Helvetica-Light,Helvetica" font-size="60.0" fill="#FEFFFF" transform="matrix(1.00, 0.00, -0.00, -1.00, 611.5, 216.8)"> </text><text xml:space="preserve" font-family="Helvetica-Light,Helvetica" font-size="60.0" fill="#FEFFFF" transform="matrix(1.00, 0.00, -0.00, -1.00, 628.2, 216.8)">c</text><text xml:space="preserve" font-family="Helvetica-Light,Helvetica" font-size="60.0" fill="#FEFFFF" transform="matrix(1.00, 0.00, -0.00, -1.00, 661.6, 216.8)">a</text><text xml:space="preserve" font-family="Helvetica-Light,Helvetica" font-size="60.0" fill="#FEFFFF" transform="matrix(1.00, 0.00, -0.00, -1.00, 695.0, 216.8)">n</text><text xml:space="preserve" font-family="Helvetica-Light,Helvetica" font-size="60.0" fill="#FEFFFF" transform="matrix(1.00, 0.00, -0.00, -1.00, 728.3, 216.8)"> </text><text xml:space="preserve" font-family="Helvetica-Light,Helvetica" font-size="60.0" fill="#FEFFFF" transform="matrix(1.00, 0.00, -0.00, -1.00, 745.0, 216.8)">w</text><text xml:space="preserve" font-family="Helvetica-Light,Helvetica" font-size="60.0" fill="#FEFFFF" transform="matrix(1.00, 0.00, -0.00, -1.00, 788.3, 216.8)">e</text><text xml:space="preserve" font-family="Helvetica-Light,Helvetica" font-size="60.0" fill="#FEFFFF" transform="matrix(1.00, 0.00, -0.00, -1.00, 821.7, 216.8)"> </text><text xml:space="preserve" font-family="Helvetica-Light,Helvetica" font-size="60.0" fill="#FEFFFF" transform="matrix(1.00, 0.00, -0.00, -1.00, 838.4, 216.8)">b</text><text xml:space="preserve" font-family="Helvetica-Light,Helvetica" font-size="60.0" fill="#FEFFFF" transform="matrix(1.00, 0.00, -0.00, -1.00, 875.0, 216.8)">y</text><text xml:space="preserve" font-family="Helvetica-Light,Helvetica" font-size="60.0" fill="#FEFFFF" transform="matrix(1.00, 0.00, -0.00, -1.00, 905.0, 216.8)">p</text><text xml:space="preserve" font-family="Helvetica-Light,Helvetica" font-size="60.0" fill="#FEFFFF" transform="matrix(1.00, 0.00, -0.00, -1.00, 941.7, 216.8)">a</text><text xml:space="preserve" font-family="Helvetica-Light,Helvetica" font-size="60.0" fill="#FEFFFF" transform="matrix(1.00, 0.00, -0.00, -1.00, 975.0, 216.8)">s</text><text xml:space="preserve" font-family="Helvetica-Light,Helvetica" font-size="60.0" fill="#FEFFFF" transform="matrix(1.00, 0.00, -0.00, -1.00, 1005.0, 216.8)">s</text><text xml:space="preserve" font-family="Helvetica-Light,Helvetica" font-size="60.0" fill="#FEFFFF" transform="matrix(1.00, 0.00, -0.00, -1.00, 1035.0, 216.8)"> </text><text xml:space="preserve" font-family="Helvetica-Light,Helvetica" font-size="60.0" fill="#FEFFFF" transform="matrix(1.00, 0.00, -0.00, -1.00, 1051.7, 216.8)">t</text><text xml:space="preserve" font-family="Helvetica-Light,Helvetica" font-size="60.0" fill="#FEFFFF" transform="matrix(1.00, 0.00, -0.00, -1.00, 1068.4, 216.8)">h</text><text xml:space="preserve" font-family="Helvetica-Light,Helvetica" font-size="60.0" fill="#FEFFFF" transform="matrix(1.00, 0.00, -0.00, -1.00, 1101.8, 216.8)">i</text><text xml:space="preserve" font-family="Helvetica-Light,Helvetica" font-size="60.0" fill="#FEFFFF" transform="matrix(1.00, 0.00, -0.00, -1.00, 1115.1, 216.8)">s</text><text xml:space="preserve" font-family="Helvetica-Light,Helvetica" font-size="60.0" fill="#FEFFFF" transform="matrix(1.00, 0.00, -0.00, -1.00, 1145.1, 216.8)"> </text><text xml:space="preserve" font-family="Helvetica-Light,Helvetica" font-size="60.0" fill="#FEFFFF" transform="matrix(1.00, 0.00, -0.00, -1.00, 1161.8, 216.8)">l</text><text xml:space="preserve" font-family="Helvetica-Light,Helvetica" font-size="60.0" fill="#FEFFFF" transform="matrix(1.00, 0.00, -0.00, -1.00, 1175.1, 216.8)">i</text><text xml:space="preserve" font-family="Helvetica-Light,Helvetica" font-size="60.0" fill="#FEFFFF" transform="matrix(1.00, 0.00, -0.00, -1.00, 1188.4, 216.8)">m</text><text xml:space="preserve" font-family="Helvetica-Light,Helvetica" font-size="60.0" fill="#FEFFFF" transform="matrix(1.00, 0.00, -0.00, -1.00, 1238.4, 216.8)">i</text><text xml:space="preserve" font-family="Helvetica-Light,Helvetica" font-size="60.0" fill="#FEFFFF" transform="matrix(1.00, 0.00, -0.00, -1.00, 1251.7, 216.8)">t</text><text xml:space="preserve" font-family="Helvetica-Light,Helvetica" font-size="60.0" fill="#FEFFFF" transform="matrix(1.00, 0.00, -0.00, -1.00, 1268.4, 216.8)">a</text><text xml:space="preserve" font-family="Helvetica-Light,Helvetica" font-size="60.0" fill="#FEFFFF" transform="matrix(1.00, 0.00, -0.00, -1.00, 1301.7, 216.8)">t</text><text xml:space="preserve" font-family="Helvetica-Light,Helvetica" font-size="60.0" fill="#FEFFFF" transform="matrix(1.00, 0.00, -0.00, -1.00, 1318.4, 216.8)">i</text><text xml:space="preserve" font-family="Helvetica-Light,Helvetica" font-size="60.0" fill="#FEFFFF" transform="matrix(1.00, 0.00, -0.00, -1.00, 1331.7, 216.8)">o</text><text xml:space="preserve" font-family="Helvetica-Light,Helvetica" font-size="60.0" fill="#FEFFFF" transform="matrix(1.00, 0.00, -0.00, -1.00, 1365.1, 216.8)">n</text><text xml:space="preserve" font-family="Helvetica-Light,Helvetica" font-size="60.0" fill="#FEFFFF" transform="matrix(1.00, 0.00, -0.00, -1.00, 1398.5, 216.8)">?</text><g><clipPath id="clip0x6000018ae160"><path d="M 907.5 1017.2 L 1012.5 1017.2 L 1012.5 1122.1 L 907.5 1122.1 Z M 907.5 1017.2 "></path></clipPath><g clip-path="url(#clip0x6000018ae160)"><path d="M 996.4 1106.0 C 1016.5 1085.9 1016.5 1053.3 996.4 1033.2 C 976.3 1013.1 943.7 1013.1 923.6 1033.2 C 903.5 1053.3 903.5 1085.9 923.6 1106.0 C 943.7 1126.1 976.3 1126.1 996.4 1106.0 Z M 996.4 1106.0 " fill="#FEFFFE"></path></g></g><g><clipPath id="clip0x6000018ae3a0"><path d="M 908.5 1018.2 L 1011.5 1018.2 L 1011.5 1121.1 L 908.5 1121.1 Z M 908.5 1018.2 "></path></clipPath><g clip-path="url(#clip0x6000018ae3a0)"><text xml:space="preserve" font-family="Helvetica-Light,Helvetica" font-size="36.0" fill="#024336" transform="matrix(1.00, 0.00, -0.00, -1.00, 948.0, 1056.4)">B</text></g></g><g><clipPath id="clip0x6000018ae5e0"><path d="M 952.4 862.3 L 952.4 938.1 L 967.6 938.1 L 967.6 862.3 Z M 952.4 862.3 "></path></clipPath><g clip-path="url(#clip0x6000018ae5e0)"><path d="M 11.7 0.5 L 13.2 0.5 L 60.7 0.5 L 61.7 0.5 " fill="none" stroke="#FEFFFE" stroke-width="3.00" transform="matrix(0.00, 1.00, 1.00, 0.00, 960.0, 863.3)"></path><path d="M 967.1 923.5 L 960.5 936.7 L 953.9 923.5 Z M 967.1 923.5 " fill="#FEFFFE"></path><path d="M 953.9 876.5 L 960.5 863.3 L 967.1 876.5 Z M 953.9 876.5 " fill="#FEFFFE"></path></g></g><g><clipPath id="clip0x6000018ae940"><path d="M 1020.9 1038.6 L 1355.3 1038.6 L 1355.3 1100.1 L 1020.9 1100.1 Z M 1020.9 1038.6 "></path></clipPath><g clip-path="url(#clip0x6000018ae940)"><text xml:space="preserve" font-family="OpenSans,Open Sans" font-size="30.0" fill="#FEFFFF" transform="matrix(1.00, 0.00, -0.00, -1.00, 1031.2, 1057.6)">M</text><text xml:space="preserve" font-family="OpenSans,Open Sans" font-size="30.0" fill="#FEFFFF" transform="matrix(1.00, 0.00, -0.00, -1.00, 1058.2, 1057.6)">a</text><text xml:space="preserve" font-family="OpenSans,Open Sans" font-size="30.0" fill="#FEFFFF" transform="matrix(1.00, 0.00, -0.00, -1.00, 1074.9, 1057.6)">i</text><text xml:space="preserve" font-family="OpenSans,Open Sans" font-size="30.0" fill="#FEFFFF" transform="matrix(1.00, 0.00, -0.00, -1.00, 1082.5, 1057.6)">n</text><text xml:space="preserve" font-family="OpenSans,Open Sans" font-size="30.0" fill="#FEFFFF" transform="matrix(1.00, 0.00, -0.00, -1.00, 1100.9, 1057.6)"> </text><text xml:space="preserve" font-family="OpenSans,Open Sans" font-size="30.0" fill="#FEFFFF" transform="matrix(1.00, 0.00, -0.00, -1.00, 1108.7, 1057.6)">E</text><text xml:space="preserve" font-family="OpenSans,Open Sans" font-size="30.0" fill="#FEFFFF" transform="matrix(1.00, 0.00, -0.00, -1.00, 1125.4, 1057.6)">x</text><text xml:space="preserve" font-family="OpenSans,Open Sans" font-size="30.0" fill="#FEFFFF" transform="matrix(1.00, 0.00, -0.00, -1.00, 1140.5, 1057.6)">c</text><text xml:space="preserve" font-family="OpenSans,Open Sans" font-size="30.0" fill="#FEFFFF" transform="matrix(1.00, 0.00, -0.00, -1.00, 1154.8, 1057.6)">h</text><text xml:space="preserve" font-family="OpenSans,Open Sans" font-size="30.0" fill="#FEFFFF" transform="matrix(1.00, 0.00, -0.00, -1.00, 1173.2, 1057.6)">a</text><text xml:space="preserve" font-family="OpenSans,Open Sans" font-size="30.0" fill="#FEFFFF" transform="matrix(1.00, 0.00, -0.00, -1.00, 1189.8, 1057.6)">n</text><text xml:space="preserve" font-family="OpenSans,Open Sans" font-size="30.0" fill="#FEFFFF" transform="matrix(1.00, 0.00, -0.00, -1.00, 1208.2, 1057.6)">g</text><text xml:space="preserve" font-family="OpenSans,Open Sans" font-size="30.0" fill="#FEFFFF" transform="matrix(1.00, 0.00, -0.00, -1.00, 1224.7, 1057.6)">e</text></g></g><g><clipPath id="clip0x608001abf740"><path d="M -0.8 895.0 L 1920.8 895.0 L 1920.8 887.0 L -0.8 887.0 Z M -0.8 895.0 "></path></clipPath><g clip-path="url(#clip0x608001abf740)"><path d="M -0.2 0.0 L 1919.8 0.0 " fill="none" stroke="#BC3124" stroke-width="6.00" stroke-dasharray="12.0, 12.0" transform="matrix(1.00, 0.00, 0.00, -1.00, 0.2, 891.0)"></path></g></g><g><clipPath id="clip0x608001abf980"><path d="M 7.2 901.9 L 201.6 901.9 L 201.6 969.9 L 7.2 969.9 Z M 7.2 901.9 "></path></clipPath><g clip-path="url(#clip0x608001abf980)"><text xml:space="preserve" font-family="Helvetica-Light,Helvetica" font-size="40.0" fill="#FEFFFF" transform="matrix(1.00, 0.00, -0.00, -1.00, 17.2, 921.1)">B</text><text xml:space="preserve" font-family="Helvetica-Light,Helvetica" font-size="40.0" fill="#FEFFFF" transform="matrix(1.00, 0.00, -0.00, -1.00, 43.8, 921.1)">a</text><text xml:space="preserve" font-family="Helvetica-Light,Helvetica" font-size="40.0" fill="#FEFFFF" transform="matrix(1.00, 0.00, -0.00, -1.00, 66.1, 921.1)">c</text><text xml:space="preserve" font-family="Helvetica-Light,Helvetica" font-size="40.0" fill="#FEFFFF" transform="matrix(1.00, 0.00, -0.00, -1.00, 88.3, 921.1)">k</text><text xml:space="preserve" font-family="Helvetica-Light,Helvetica" font-size="40.0" fill="#FEFFFF" transform="matrix(1.00, 0.00, -0.00, -1.00, 108.3, 921.1)">-</text><text xml:space="preserve" font-family="Helvetica-Light,Helvetica" font-size="40.0" fill="#FEFFFF" transform="matrix(1.00, 0.00, -0.00, -1.00, 121.6, 921.1)">e</text><text xml:space="preserve" font-family="Helvetica-Light,Helvetica" font-size="40.0" fill="#FEFFFF" transform="matrix(1.00, 0.00, -0.00, -1.00, 143.9, 921.1)">n</text><text xml:space="preserve" font-family="Helvetica-Light,Helvetica" font-size="40.0" fill="#FEFFFF" transform="matrix(1.00, 0.00, -0.00, -1.00, 166.1, 921.1)">d</text></g></g><g><clipPath id="clip0x608001abfe60"><path d="M 7.2 817.9 L 200.8 817.9 L 200.8 885.9 L 7.2 885.9 Z M 7.2 817.9 "></path></clipPath><g clip-path="url(#clip0x608001abfe60)"><text xml:space="preserve" font-family="Helvetica-Light,Helvetica" font-size="40.0" fill="#FEFFFF" transform="matrix(1.00, 0.00, -0.00, -1.00, 17.2, 837.1)">F</text><text xml:space="preserve" font-family="Helvetica-Light,Helvetica" font-size="40.0" fill="#FEFFFF" transform="matrix(1.00, 0.00, -0.00, -1.00, 39.4, 837.1)">r</text><text xml:space="preserve" font-family="Helvetica-Light,Helvetica" font-size="40.0" fill="#FEFFFF" transform="matrix(1.00, 0.00, -0.00, -1.00, 52.0, 837.1)">o</text><text xml:space="preserve" font-family="Helvetica-Light,Helvetica" font-size="40.0" fill="#FEFFFF" transform="matrix(1.00, 0.00, -0.00, -1.00, 74.2, 837.1)">n</text><text xml:space="preserve" font-family="Helvetica-Light,Helvetica" font-size="40.0" fill="#FEFFFF" transform="matrix(1.00, 0.00, -0.00, -1.00, 96.5, 837.1)">t</text><text xml:space="preserve" font-family="Helvetica-Light,Helvetica" font-size="40.0" fill="#FEFFFF" transform="matrix(1.00, 0.00, -0.00, -1.00, 107.6, 837.1)">-</text><text xml:space="preserve" font-family="Helvetica-Light,Helvetica" font-size="40.0" fill="#FEFFFF" transform="matrix(1.00, 0.00, -0.00, -1.00, 120.9, 837.1)">e</text><text xml:space="preserve" font-family="Helvetica-Light,Helvetica" font-size="40.0" fill="#FEFFFF" transform="matrix(1.00, 0.00, -0.00, -1.00, 143.2, 837.1)">n</text><text xml:space="preserve" font-family="Helvetica-Light,Helvetica" font-size="40.0" fill="#FEFFFF" transform="matrix(1.00, 0.00, -0.00, -1.00, 165.4, 837.1)">d</text></g></g><g><clipPath id="clip0x608001ca03c0"><path d="M 909.0 650.5 L 1011.0 650.5 L 1011.0 752.5 L 909.0 752.5 Z M 909.0 650.5 "></path></clipPath><g clip-path="url(#clip0x608001ca03c0)"><path d="M 995.4 736.8 C 1014.9 717.3 1014.9 685.6 995.4 666.1 C 975.8 646.6 944.2 646.6 924.6 666.1 C 905.1 685.6 905.1 717.3 924.6 736.8 C 944.2 756.3 975.8 756.3 995.4 736.8 Z M 995.4 736.8 " fill="#FEFFFE"></path></g></g><g><clipPath id="clip0x608001ca0600"><path d="M 910.0 651.5 L 1010.0 651.5 L 1010.0 751.5 L 910.0 751.5 Z M 910.0 651.5 "></path></clipPath><g clip-path="url(#clip0x608001ca0600)"><text xml:space="preserve" font-family="Helvetica-Light,Helvetica" font-size="36.0" fill="#024336" transform="matrix(1.00, 0.00, -0.00, -1.00, 948.0, 688.2)">B</text></g></g><g><clipPath id="clip0x608001ca0840"><path d="M 1015.1 670.8 L 1247.0 670.8 L 1247.0 732.2 L 1015.1 732.2 Z M 1015.1 670.8 "></path></clipPath><g clip-path="url(#clip0x608001ca0840)"><text xml:space="preserve" font-family="OpenSans,Open Sans" font-size="30.0" fill="#FEFFFF" transform="matrix(1.00, 0.00, -0.00, -1.00, 1025.8, 689.8)">M</text><text xml:space="preserve" font-family="OpenSans,Open Sans" font-size="30.0" fill="#FEFFFF" transform="matrix(1.00, 0.00, -0.00, -1.00, 1052.9, 689.8)">a</text><text xml:space="preserve" font-family="OpenSans,Open Sans" font-size="30.0" fill="#FEFFFF" transform="matrix(1.00, 0.00, -0.00, -1.00, 1069.6, 689.8)">i</text><text xml:space="preserve" font-family="OpenSans,Open Sans" font-size="30.0" fill="#FEFFFF" transform="matrix(1.00, 0.00, -0.00, -1.00, 1077.2, 689.8)">n</text><text xml:space="preserve" font-family="OpenSans,Open Sans" font-size="30.0" fill="#FEFFFF" transform="matrix(1.00, 0.00, -0.00, -1.00, 1095.6, 689.8)"> </text><text xml:space="preserve" font-family="OpenSans,Open Sans" font-size="30.0" fill="#FEFFFF" transform="matrix(1.00, 0.00, -0.00, -1.00, 1103.4, 689.8)">E</text><text xml:space="preserve" font-family="OpenSans,Open Sans" font-size="30.0" fill="#FEFFFF" transform="matrix(1.00, 0.00, -0.00, -1.00, 1120.1, 689.8)">x</text><text xml:space="preserve" font-family="OpenSans,Open Sans" font-size="30.0" fill="#FEFFFF" transform="matrix(1.00, 0.00, -0.00, -1.00, 1135.2, 689.8)">c</text><text xml:space="preserve" font-family="OpenSans,Open Sans" font-size="30.0" fill="#FEFFFF" transform="matrix(1.00, 0.00, -0.00, -1.00, 1149.4, 689.8)">h</text><text xml:space="preserve" font-family="OpenSans,Open Sans" font-size="30.0" fill="#FEFFFF" transform="matrix(1.00, 0.00, -0.00, -1.00, 1167.8, 689.8)">a</text><text xml:space="preserve" font-family="OpenSans,Open Sans" font-size="30.0" fill="#FEFFFF" transform="matrix(1.00, 0.00, -0.00, -1.00, 1184.5, 689.8)">n</text><text xml:space="preserve" font-family="OpenSans,Open Sans" font-size="30.0" fill="#FEFFFF" transform="matrix(1.00, 0.00, -0.00, -1.00, 1202.9, 689.8)">g</text><text xml:space="preserve" font-family="OpenSans,Open Sans" font-size="30.0" fill="#FEFFFF" transform="matrix(1.00, 0.00, -0.00, -1.00, 1219.4, 689.8)">e</text></g></g><g><clipPath id="clip0x6000018af2a0"><path d="M 798.1 799.4 L 1121.9 799.4 L 1121.9 857.4 L 798.1 857.4 Z M 798.1 799.4 "></path></clipPath><g clip-path="url(#clip0x6000018af2a0)"><path d="M 799.0 856.0 L 1121.0 856.0 L 1121.0 800.0 L 799.0 800.0 Z M 799.1 856.4 " fill="#FEFFFE"></path></g></g><g><clipPath id="clip0x6000018af4e0"><path d="M 795.6 800.4 L 1124.4 800.4 L 1124.4 856.4 L 795.6 856.4 Z M 795.6 800.4 "></path></clipPath><g clip-path="url(#clip0x6000018af4e0)"><text xml:space="preserve" font-family="Helvetica-Light,Helvetica" font-size="30.0" fill="#024336" transform="matrix(1.00, 0.00, -0.00, -1.00, 824.9, 817.3)">C</text><text xml:space="preserve" font-family="Helvetica-Light,Helvetica" font-size="30.0" fill="#024336" transform="matrix(1.00, 0.00, -0.00, -1.00, 846.6, 817.3)">o</text><text xml:space="preserve" font-family="Helvetica-Light,Helvetica" font-size="30.0" fill="#024336" transform="matrix(1.00, 0.00, -0.00, -1.00, 863.3, 817.3)">n</text><text xml:space="preserve" font-family="Helvetica-Light,Helvetica" font-size="30.0" fill="#024336" transform="matrix(1.00, 0.00, -0.00, -1.00, 880.0, 817.3)">n</text><text xml:space="preserve" font-family="Helvetica-Light,Helvetica" font-size="30.0" fill="#024336" transform="matrix(1.00, 0.00, -0.00, -1.00, 896.6, 817.3)">e</text><text xml:space="preserve" font-family="Helvetica-Light,Helvetica" font-size="30.0" fill="#024336" transform="matrix(1.00, 0.00, -0.00, -1.00, 913.3, 817.3)">c</text><text xml:space="preserve" font-family="Helvetica-Light,Helvetica" font-size="30.0" fill="#024336" transform="matrix(1.00, 0.00, -0.00, -1.00, 930.0, 817.3)">t</text><text xml:space="preserve" font-family="Helvetica-Light,Helvetica" font-size="30.0" fill="#024336" transform="matrix(1.00, 0.00, -0.00, -1.00, 938.3, 817.3)">i</text><text xml:space="preserve" font-family="Helvetica-Light,Helvetica" font-size="30.0" fill="#024336" transform="matrix(1.00, 0.00, -0.00, -1.00, 945.0, 817.3)">o</text><text xml:space="preserve" font-family="Helvetica-Light,Helvetica" font-size="30.0" fill="#024336" transform="matrix(1.00, 0.00, -0.00, -1.00, 961.7, 817.3)">n</text><text xml:space="preserve" font-family="Helvetica-Light,Helvetica" font-size="30.0" fill="#024336" transform="matrix(1.00, 0.00, -0.00, -1.00, 978.4, 817.3)"> </text><text xml:space="preserve" font-family="Helvetica-Light,Helvetica" font-size="30.0" fill="#024336" transform="matrix(1.00, 0.00, -0.00, -1.00, 986.7, 817.3)">A</text><text xml:space="preserve" font-family="Helvetica-Light,Helvetica" font-size="30.0" fill="#024336" transform="matrix(1.00, 0.00, -0.00, -1.00, 1006.7, 817.3)">d</text><text xml:space="preserve" font-family="Helvetica-Light,Helvetica" font-size="30.0" fill="#024336" transform="matrix(1.00, 0.00, -0.00, -1.00, 1025.0, 817.3)">a</text><text xml:space="preserve" font-family="Helvetica-Light,Helvetica" font-size="30.0" fill="#024336" transform="matrix(1.00, 0.00, -0.00, -1.00, 1041.7, 817.3)">p</text><text xml:space="preserve" font-family="Helvetica-Light,Helvetica" font-size="30.0" fill="#024336" transform="matrix(1.00, 0.00, -0.00, -1.00, 1060.1, 817.3)">t</text><text xml:space="preserve" font-family="Helvetica-Light,Helvetica" font-size="30.0" fill="#024336" transform="matrix(1.00, 0.00, -0.00, -1.00, 1068.4, 817.3)">e</text><text xml:space="preserve" font-family="Helvetica-Light,Helvetica" font-size="30.0" fill="#024336" transform="matrix(1.00, 0.00, -0.00, -1.00, 1085.1, 817.3)">r</text></g></g><g><clipPath id="clip0x608001ca0e40"><path d="M 716.3 549.2 L 960.1 549.2 L 960.1 607.1 L 716.3 607.1 Z M 716.3 549.2 "></path></clipPath><g clip-path="url(#clip0x608001ca0e40)"><path d="M 236.1 0.1 C 88.6 -1.0 9.9 12.5 0.6 40.7 L 0.6 42.6 " fill="none" stroke="#FEFFFE" stroke-width="3.00" stroke-dasharray="6.0, 6.0" transform="matrix(1.00, 0.00, 0.00, -1.00, 722.9, 604.6)"></path><path d="M 716.9 563.3 L 723.8 550.3 L 730.1 563.7 Z M 716.9 563.3 " fill="#FEFFFE"></path></g></g><g><clipPath id="clip0x608001ca1140"><path d="M 967.6 648.8 L 967.6 602.0 L 952.4 602.0 L 952.4 648.8 Z M 967.6 648.8 "></path></clipPath><g clip-path="url(#clip0x608001ca1140)"><path d="M 11.8 -0.5 L 13.2 -0.5 L 44.8 -0.5 " fill="none" stroke="#FEFFFE" stroke-width="3.00" stroke-dasharray="6.0, 6.0" transform="matrix(0.00, -1.00, -1.00, 0.00, 960.0, 647.8)"></path><path d="M 967.1 634.5 L 960.5 647.7 L 953.9 634.5 Z M 967.1 634.5 " fill="#FEFFFE"></path></g></g><g><clipPath id="clip0x608001ca1440"><path d="M 952.4 753.1 L 952.4 799.4 L 967.6 799.4 L 967.6 753.1 Z M 952.4 753.1 "></path></clipPath><g clip-path="url(#clip0x608001ca1440)"><path d="M 11.9 0.5 L 13.2 0.5 L 31.1 0.5 L 32.9 0.5 " fill="none" stroke="#FEFFFE" stroke-width="3.00" transform="matrix(0.00, 1.00, 1.00, 0.00, 960.0, 754.1)"></path><path d="M 967.1 785.5 L 960.5 798.7 L 953.9 785.5 Z M 967.1 785.5 " fill="#FEFFFE"></path><path d="M 953.9 767.5 L 960.5 754.3 L 967.1 767.5 Z M 953.9 767.5 " fill="#FEFFFE"></path></g></g><g><clipPath id="clip0x608001ca17a0"><path d="M 961.9 549.2 L 1205.7 549.2 L 1205.7 607.1 L 961.9 607.1 Z M 961.9 549.2 "></path></clipPath><g clip-path="url(#clip0x608001ca17a0)"><path d="M 0.0 0.1 C 147.5 -1.0 226.3 12.5 235.6 40.7 L 235.6 42.6 " fill="none" stroke="#FEFFFE" stroke-width="3.00" stroke-dasharray="6.0, 6.0" transform="matrix(1.00, 0.00, 0.00, -1.00, 962.9, 604.6)"></path><path d="M 1191.9 563.7 L 1198.2 550.3 L 1205.1 563.3 Z M 1191.9 563.7 " fill="#FEFFFE"></path></g></g><g><clipPath id="clip0x608001ca1aa0"><path d="M 612.9 438.2 L 825.1 438.2 L 825.1 543.1 L 612.9 543.1 Z M 612.9 438.2 "></path></clipPath><g clip-path="url(#clip0x608001ca1aa0)"><path d="M 614.0 542.0 L 824.0 542.0 L 824.0 439.0 L 614.0 439.0 Z M 613.9 542.1 " fill="#FEFFFE"></path></g></g><g><clipPath id="clip0x608001ca1ce0"><path d="M 610.4 439.2 L 827.6 439.2 L 827.6 542.1 L 610.4 542.1 Z M 610.4 439.2 "></path></clipPath><g clip-path="url(#clip0x608001ca1ce0)"><text xml:space="preserve" font-family="Helvetica-Light,Helvetica" font-size="30.0" fill="#024336" transform="matrix(1.00, 0.00, -0.00, -1.00, 649.8, 497.0)">M</text><text xml:space="preserve" font-family="Helvetica-Light,Helvetica" font-size="30.0" fill="#024336" transform="matrix(1.00, 0.00, -0.00, -1.00, 674.8, 497.0)">e</text><text xml:space="preserve" font-family="Helvetica-Light,Helvetica" font-size="30.0" fill="#024336" transform="matrix(1.00, 0.00, -0.00, -1.00, 691.5, 497.0)">s</text><text xml:space="preserve" font-family="Helvetica-Light,Helvetica" font-size="30.0" fill="#024336" transform="matrix(1.00, 0.00, -0.00, -1.00, 706.5, 497.0)">s</text><text xml:space="preserve" font-family="Helvetica-Light,Helvetica" font-size="30.0" fill="#024336" transform="matrix(1.00, 0.00, -0.00, -1.00, 721.5, 497.0)">a</text><text xml:space="preserve" font-family="Helvetica-Light,Helvetica" font-size="30.0" fill="#024336" transform="matrix(1.00, 0.00, -0.00, -1.00, 738.1, 497.0)">g</text><text xml:space="preserve" font-family="Helvetica-Light,Helvetica" font-size="30.0" fill="#024336" transform="matrix(1.00, 0.00, -0.00, -1.00, 756.5, 497.0)">e</text><text xml:space="preserve" font-family="Helvetica-Light,Helvetica" font-size="30.0" fill="#024336" transform="matrix(1.00, 0.00, -0.00, -1.00, 773.2, 497.0)">s</text><text xml:space="preserve" font-family="Helvetica-Light,Helvetica" font-size="30.0" fill="#024336" transform="matrix(1.00, 0.00, -0.00, -1.00, 788.2, 497.0)"> </text><text xml:space="preserve" font-family="Helvetica-Light,Helvetica" font-size="30.0" fill="#024336" transform="matrix(1.00, 0.00, -0.00, -1.00, 665.6, 461.0)">H</text><text xml:space="preserve" font-family="Helvetica-Light,Helvetica" font-size="30.0" fill="#024336" transform="matrix(1.00, 0.00, -0.00, -1.00, 687.3, 461.0)">a</text><text xml:space="preserve" font-family="Helvetica-Light,Helvetica" font-size="30.0" fill="#024336" transform="matrix(1.00, 0.00, -0.00, -1.00, 704.0, 461.0)">n</text><text xml:space="preserve" font-family="Helvetica-Light,Helvetica" font-size="30.0" fill="#024336" transform="matrix(1.00, 0.00, -0.00, -1.00, 720.7, 461.0)">d</text><text xml:space="preserve" font-family="Helvetica-Light,Helvetica" font-size="30.0" fill="#024336" transform="matrix(1.00, 0.00, -0.00, -1.00, 739.0, 461.0)">l</text><text xml:space="preserve" font-family="Helvetica-Light,Helvetica" font-size="30.0" fill="#024336" transform="matrix(1.00, 0.00, -0.00, -1.00, 745.6, 461.0)">e</text><text xml:space="preserve" font-family="Helvetica-Light,Helvetica" font-size="30.0" fill="#024336" transform="matrix(1.00, 0.00, -0.00, -1.00, 762.3, 461.0)">r</text></g></g><g><clipPath id="clip0x608001ca2460"><path d="M 1082.0 438.2 L 1294.2 438.2 L 1294.2 543.1 L 1082.0 543.1 Z M 1082.0 438.2 "></path></clipPath><g clip-path="url(#clip0x608001ca2460)"><path d="M 1083.0 542.0 L 1293.0 542.0 L 1293.0 439.0 L 1083.0 439.0 Z M 1083.0 542.1 " fill="#FEFFFE"></path></g></g><g><clipPath id="clip0x608001ca26a0"><path d="M 1079.5 439.2 L 1296.7 439.2 L 1296.7 542.1 L 1079.5 542.1 Z M 1079.5 439.2 "></path></clipPath><g clip-path="url(#clip0x608001ca26a0)"><text xml:space="preserve" font-family="Helvetica-Light,Helvetica" font-size="30.0" fill="#024336" transform="matrix(1.00, 0.00, -0.00, -1.00, 1105.6, 497.0)">N</text><text xml:space="preserve" font-family="Helvetica-Light,Helvetica" font-size="30.0" fill="#024336" transform="matrix(1.00, 0.00, -0.00, -1.00, 1127.2, 497.0)">o</text><text xml:space="preserve" font-family="Helvetica-Light,Helvetica" font-size="30.0" fill="#024336" transform="matrix(1.00, 0.00, -0.00, -1.00, 1143.9, 497.0)">t</text><text xml:space="preserve" font-family="Helvetica-Light,Helvetica" font-size="30.0" fill="#024336" transform="matrix(1.00, 0.00, -0.00, -1.00, 1152.3, 497.0)">i</text><text xml:space="preserve" font-family="Helvetica-Light,Helvetica" font-size="30.0" fill="#024336" transform="matrix(1.00, 0.00, -0.00, -1.00, 1158.9, 497.0)">ﬁ</text><text xml:space="preserve" font-family="Helvetica-Light,Helvetica" font-size="30.0" fill="#024336" transform="matrix(1.00, 0.00, -0.00, -1.00, 1173.9, 497.0)">c</text><text xml:space="preserve" font-family="Helvetica-Light,Helvetica" font-size="30.0" fill="#024336" transform="matrix(1.00, 0.00, -0.00, -1.00, 1190.6, 497.0)">a</text><text xml:space="preserve" font-family="Helvetica-Light,Helvetica" font-size="30.0" fill="#024336" transform="matrix(1.00, 0.00, -0.00, -1.00, 1207.3, 497.0)">t</text><text xml:space="preserve" font-family="Helvetica-Light,Helvetica" font-size="30.0" fill="#024336" transform="matrix(1.00, 0.00, -0.00, -1.00, 1215.6, 497.0)">i</text><text xml:space="preserve" font-family="Helvetica-Light,Helvetica" font-size="30.0" fill="#024336" transform="matrix(1.00, 0.00, -0.00, -1.00, 1222.3, 497.0)">o</text><text xml:space="preserve" font-family="Helvetica-Light,Helvetica" font-size="30.0" fill="#024336" transform="matrix(1.00, 0.00, -0.00, -1.00, 1239.0, 497.0)">n</text><text xml:space="preserve" font-family="Helvetica-Light,Helvetica" font-size="30.0" fill="#024336" transform="matrix(1.00, 0.00, -0.00, -1.00, 1255.6, 497.0)">s</text><text xml:space="preserve" font-family="Helvetica-Light,Helvetica" font-size="30.0" fill="#024336" transform="matrix(1.00, 0.00, -0.00, -1.00, 1270.6, 497.0)"> </text><text xml:space="preserve" font-family="Helvetica-Light,Helvetica" font-size="30.0" fill="#024336" transform="matrix(1.00, 0.00, -0.00, -1.00, 1134.8, 461.0)">H</text><text xml:space="preserve" font-family="Helvetica-Light,Helvetica" font-size="30.0" fill="#024336" transform="matrix(1.00, 0.00, -0.00, -1.00, 1156.4, 461.0)">a</text><text xml:space="preserve" font-family="Helvetica-Light,Helvetica" font-size="30.0" fill="#024336" transform="matrix(1.00, 0.00, -0.00, -1.00, 1173.1, 461.0)">n</text><text xml:space="preserve" font-family="Helvetica-Light,Helvetica" font-size="30.0" fill="#024336" transform="matrix(1.00, 0.00, -0.00, -1.00, 1189.8, 461.0)">d</text><text xml:space="preserve" font-family="Helvetica-Light,Helvetica" font-size="30.0" fill="#024336" transform="matrix(1.00, 0.00, -0.00, -1.00, 1208.1, 461.0)">l</text><text xml:space="preserve" font-family="Helvetica-Light,Helvetica" font-size="30.0" fill="#024336" transform="matrix(1.00, 0.00, -0.00, -1.00, 1214.8, 461.0)">e</text><text xml:space="preserve" font-family="Helvetica-Light,Helvetica" font-size="30.0" fill="#024336" transform="matrix(1.00, 0.00, -0.00, -1.00, 1231.5, 461.0)">r</text></g></g><g><clipPath id="clip0x6000018afea0"><path d="M 1132.8 798.8 L 1686.5 798.8 L 1686.5 860.2 L 1132.8 860.2 Z M 1132.8 798.8 "></path></clipPath><g clip-path="url(#clip0x6000018afea0)"><text xml:space="preserve" font-family="OpenSans,Open Sans" font-size="30.0" fill="#FEFFFF" transform="matrix(1.00, 0.00, -0.00, -1.00, 1143.1, 817.8)">S</text><text xml:space="preserve" font-family="OpenSans,Open Sans" font-size="30.0" fill="#FEFFFF" transform="matrix(1.00, 0.00, -0.00, -1.00, 1159.5, 817.8)">T</text><text xml:space="preserve" font-family="OpenSans,Open Sans" font-size="30.0" fill="#FEFFFF" transform="matrix(1.00, 0.00, -0.00, -1.00, 1175.5, 817.8)">O</text><text xml:space="preserve" font-family="OpenSans,Open Sans" font-size="30.0" fill="#FEFFFF" transform="matrix(1.00, 0.00, -0.00, -1.00, 1198.9, 817.8)">M</text><text xml:space="preserve" font-family="OpenSans,Open Sans" font-size="30.0" fill="#FEFFFF" transform="matrix(1.00, 0.00, -0.00, -1.00, 1226.0, 817.8)">P</text><text xml:space="preserve" font-family="OpenSans,Open Sans" font-size="30.0" fill="#FEFFFF" transform="matrix(1.00, 0.00, -0.00, -1.00, 1240.1, 817.8)">,</text><text xml:space="preserve" font-family="OpenSans,Open Sans" font-size="30.0" fill="#FEFFFF" transform="matrix(1.00, 0.00, -0.00, -1.00, 1247.5, 817.8)"> </text><text xml:space="preserve" font-family="OpenSans,Open Sans" font-size="30.0" fill="#FEFFFF" transform="matrix(1.00, 0.00, -0.00, -1.00, 1255.3, 817.8)">M</text><text xml:space="preserve" font-family="OpenSans,Open Sans" font-size="30.0" fill="#FEFFFF" transform="matrix(1.00, 0.00, -0.00, -1.00, 1282.3, 817.8)">Q</text><text xml:space="preserve" font-family="OpenSans,Open Sans" font-size="30.0" fill="#FEFFFF" transform="matrix(1.00, 0.00, -0.00, -1.00, 1304.8, 817.8)">T</text><text xml:space="preserve" font-family="OpenSans,Open Sans" font-size="30.0" fill="#FEFFFF" transform="matrix(1.00, 0.00, -0.00, -1.00, 1322.0, 817.8)">T</text><text xml:space="preserve" font-family="OpenSans,Open Sans" font-size="30.0" fill="#FEFFFF" transform="matrix(1.00, 0.00, -0.00, -1.00, 1336.8, 817.8)">,</text><text xml:space="preserve" font-family="OpenSans,Open Sans" font-size="30.0" fill="#FEFFFF" transform="matrix(1.00, 0.00, -0.00, -1.00, 1344.2, 817.8)"> </text><text xml:space="preserve" font-family="OpenSans,Open Sans" font-size="30.0" fill="#FEFFFF" transform="matrix(1.00, 0.00, -0.00, -1.00, 1352.0, 817.8)">C</text><text xml:space="preserve" font-family="OpenSans,Open Sans" font-size="30.0" fill="#FEFFFF" transform="matrix(1.00, 0.00, -0.00, -1.00, 1370.9, 817.8)">u</text><text xml:space="preserve" font-family="OpenSans,Open Sans" font-size="30.0" fill="#FEFFFF" transform="matrix(1.00, 0.00, -0.00, -1.00, 1389.3, 817.8)">s</text><text xml:space="preserve" font-family="OpenSans,Open Sans" font-size="30.0" fill="#FEFFFF" transform="matrix(1.00, 0.00, -0.00, -1.00, 1403.6, 817.8)">t</text><text xml:space="preserve" font-family="OpenSans,Open Sans" font-size="30.0" fill="#FEFFFF" transform="matrix(1.00, 0.00, -0.00, -1.00, 1414.2, 817.8)">o</text><text xml:space="preserve" font-family="OpenSans,Open Sans" font-size="30.0" fill="#FEFFFF" transform="matrix(1.00, 0.00, -0.00, -1.00, 1432.3, 817.8)">m</text><text xml:space="preserve" font-family="OpenSans,Open Sans" font-size="30.0" fill="#FEFFFF" transform="matrix(1.00, 0.00, -0.00, -1.00, 1460.2, 817.8)"> </text><text xml:space="preserve" font-family="OpenSans,Open Sans" font-size="30.0" fill="#FEFFFF" transform="matrix(1.00, 0.00, -0.00, -1.00, 1468.0, 817.8)">W</text><text xml:space="preserve" font-family="OpenSans,Open Sans" font-size="30.0" fill="#FEFFFF" transform="matrix(1.00, 0.00, -0.00, -1.00, 1495.8, 817.8)">S</text><text xml:space="preserve" font-family="OpenSans,Open Sans" font-size="30.0" fill="#FEFFFF" transform="matrix(1.00, 0.00, -0.00, -1.00, 1512.2, 817.8)"> </text><text xml:space="preserve" font-family="OpenSans,Open Sans" font-size="30.0" fill="#FEFFFF" transform="matrix(1.00, 0.00, -0.00, -1.00, 1520.0, 817.8)">P</text><text xml:space="preserve" font-family="OpenSans,Open Sans" font-size="30.0" fill="#FEFFFF" transform="matrix(1.00, 0.00, -0.00, -1.00, 1538.1, 817.8)">r</text><text xml:space="preserve" font-family="OpenSans,Open Sans" font-size="30.0" fill="#FEFFFF" transform="matrix(1.00, 0.00, -0.00, -1.00, 1549.7, 817.8)">o</text><text xml:space="preserve" font-family="OpenSans,Open Sans" font-size="30.0" fill="#FEFFFF" transform="matrix(1.00, 0.00, -0.00, -1.00, 1567.9, 817.8)">t</text><text xml:space="preserve" font-family="OpenSans,Open Sans" font-size="30.0" fill="#FEFFFF" transform="matrix(1.00, 0.00, -0.00, -1.00, 1578.4, 817.8)">o</text><text xml:space="preserve" font-family="OpenSans,Open Sans" font-size="30.0" fill="#FEFFFF" transform="matrix(1.00, 0.00, -0.00, -1.00, 1596.6, 817.8)">c</text><text xml:space="preserve" font-family="OpenSans,Open Sans" font-size="30.0" fill="#FEFFFF" transform="matrix(1.00, 0.00, -0.00, -1.00, 1610.9, 817.8)">o</text><text xml:space="preserve" font-family="OpenSans,Open Sans" font-size="30.0" fill="#FEFFFF" transform="matrix(1.00, 0.00, -0.00, -1.00, 1629.0, 817.8)">l</text><text xml:space="preserve" font-family="OpenSans,Open Sans" font-size="30.0" fill="#FEFFFF" transform="matrix(1.00, 0.00, -0.00, -1.00, 1636.6, 817.8)">,</text><text xml:space="preserve" font-family="OpenSans,Open Sans" font-size="30.0" fill="#FEFFFF" transform="matrix(1.00, 0.00, -0.00, -1.00, 1643.9, 817.8)"> </text><text xml:space="preserve" font-family="OpenSans,Open Sans" font-size="30.0" fill="#FEFFFF" transform="matrix(1.00, 0.00, -0.00, -1.00, 1651.7, 817.8)">…</text></g></g><g><clipPath id="clip0x608001ca3420"><path d="M 798.1 949.4 L 1121.9 949.4 L 1121.9 1007.4 L 798.1 1007.4 Z M 798.1 949.4 "></path></clipPath><g clip-path="url(#clip0x608001ca3420)"><path d="M 799.0 1006.0 L 1121.0 1006.0 L 1121.0 950.0 L 799.0 950.0 Z M 799.1 1006.4 " fill="#011997"></path></g></g><g><clipPath id="clip0x608001ca3660"><path d="M 795.6 950.4 L 1124.4 950.4 L 1124.4 1006.4 L 795.6 1006.4 Z M 795.6 950.4 "></path></clipPath><g clip-path="url(#clip0x608001ca3660)"><text xml:space="preserve" font-family="Helvetica-Light,Helvetica" font-size="30.0" fill="#FEFFFF" transform="matrix(1.00, 0.00, -0.00, -1.00, 909.2, 967.3)">S</text><text xml:space="preserve" font-family="Helvetica-Light,Helvetica" font-size="30.0" fill="#FEFFFF" transform="matrix(1.00, 0.00, -0.00, -1.00, 927.5, 967.3)">T</text><text xml:space="preserve" font-family="Helvetica-Light,Helvetica" font-size="30.0" fill="#FEFFFF" transform="matrix(1.00, 0.00, -0.00, -1.00, 944.2, 967.3)">O</text><text xml:space="preserve" font-family="Helvetica-Light,Helvetica" font-size="30.0" fill="#FEFFFF" transform="matrix(1.00, 0.00, -0.00, -1.00, 967.5, 967.3)">M</text><text xml:space="preserve" font-family="Helvetica-Light,Helvetica" font-size="30.0" fill="#FEFFFF" transform="matrix(1.00, 0.00, -0.00, -1.00, 992.5, 967.3)">P</text></g></g></g></svg>