<?xml version="1.0" encoding="UTF-8" standalone="no"?><svg xmlns="http://www.w3.org/2000/svg" xmlns:xlink="http://www.w3.org/1999/xlink" clip-rule="evenodd" stroke-miterlimit="10" viewBox="0 0 1920 1080"><desc>SVG generated by Keynote</desc><defs></defs><g transform="matrix(1.00, 0.00, -0.00, -1.00, 0.0, 1080.0)"><path d="M 0.0 1080.0 L 1920.0 1080.0 L 1920.0 0.0 L 0.0 0.0 Z M 0.0 1080.0 " fill="#34485E"></path><text xml:space="preserve" font-family="OpenSans-Light,Open Sans" font-size="100.0" fill="#FEFFFF" transform="matrix(1.00, 0.00, -0.00, -1.00, 644.2, 501.3)">S</text><text xml:space="preserve" font-family="OpenSans-Light,Open Sans" font-size="100.0" fill="#FEFFFF" transform="matrix(1.00, 0.00, -0.00, -1.00, 698.7, 501.3)">o</text><text xml:space="preserve" font-family="OpenSans-Light,Open Sans" font-size="100.0" fill="#FEFFFF" transform="matrix(1.00, 0.00, -0.00, -1.00, 757.3, 501.3)">m</text><text xml:space="preserve" font-family="OpenSans-Light,Open Sans" font-size="100.0" fill="#FEFFFF" transform="matrix(1.00, 0.00, -0.00, -1.00, 845.5, 501.3)">e</text><text xml:space="preserve" font-family="OpenSans-Light,Open Sans" font-size="100.0" fill="#FEFFFF" transform="matrix(1.00, 0.00, -0.00, -1.00, 900.4, 501.3)"> </text><text xml:space="preserve" font-family="OpenSans-Light,Open Sans" font-size="100.0" fill="#FEFFFF" transform="matrix(1.00, 0.00, -0.00, -1.00, 926.4, 501.3)">C</text><text xml:space="preserve" font-family="OpenSans-Light,Open Sans" font-size="100.0" fill="#FEFFFF" transform="matrix(1.00, 0.00, -0.00, -1.00, 988.5, 501.3)">o</text><text xml:space="preserve" font-family="OpenSans-Light,Open Sans" font-size="100.0" fill="#FEFFFF" transform="matrix(1.00, 0.00, -0.00, -1.00, 1047.1, 501.3)">n</text><text xml:space="preserve" font-family="OpenSans-Light,Open Sans" font-size="100.0" fill="#FEFFFF" transform="matrix(1.00, 0.00, -0.00, -1.00, 1106.0, 501.3)">t</text><text xml:space="preserve" font-family="OpenSans-Light,Open Sans" font-size="100.0" fill="#FEFFFF" transform="matrix(1.00, 0.00, -0.00, -1.00, 1139.5, 501.3)">e</text><text xml:space="preserve" font-family="OpenSans-Light,Open Sans" font-size="100.0" fill="#FEFFFF" transform="matrix(1.00, 0.00, -0.00, -1.00, 1192.4, 501.3)">x</text><text xml:space="preserve" font-family="OpenSans-Light,Open Sans" font-size="100.0" fill="#FEFFFF" transform="matrix(1.00, 0.00, -0.00, -1.00, 1242.2, 501.3)">t</text></g></svg>