<?xml version="1.0" encoding="UTF-8" standalone="no"?><svg xmlns="http://www.w3.org/2000/svg" xmlns:xlink="http://www.w3.org/1999/xlink" clip-rule="evenodd" stroke-miterlimit="10" viewBox="0 0 1920 1080"><desc>SVG generated by Keynote</desc><defs></defs><g transform="matrix(1.00, 0.00, -0.00, -1.00, 0.0, 1080.0)"><path d="M 0.0 1080.0 L 1920.0 1080.0 L 1920.0 0.0 L 0.0 0.0 Z M 0.0 1080.0 " fill="#E74B3B"></path><text xml:space="preserve" font-family="OpenSans-Light,Open Sans" font-size="50.0" fill="#FEFFFF" transform="matrix(1.00, 0.00, -0.00, -1.00, 31.7, 38.3)">A</text><text xml:space="preserve" font-family="OpenSans-Light,Open Sans" font-size="50.0" fill="#FEFFFF" transform="matrix(1.00, 0.00, -0.00, -1.00, 61.7, 38.3)">s</text><text xml:space="preserve" font-family="OpenSans-Light,Open Sans" font-size="50.0" fill="#FEFFFF" transform="matrix(1.00, 0.00, -0.00, -1.00, 85.0, 38.3)">y</text><text xml:space="preserve" font-family="OpenSans-Light,Open Sans" font-size="50.0" fill="#FEFFFF" transform="matrix(1.00, 0.00, -0.00, -1.00, 108.0, 38.3)">n</text><text xml:space="preserve" font-family="OpenSans-Light,Open Sans" font-size="50.0" fill="#FEFFFF" transform="matrix(1.00, 0.00, -0.00, -1.00, 137.5, 38.3)">c</text><text xml:space="preserve" font-family="OpenSans-Light,Open Sans" font-size="50.0" fill="#FEFFFF" transform="matrix(1.00, 0.00, -0.00, -1.00, 161.2, 38.3)">h</text><text xml:space="preserve" font-family="OpenSans-Light,Open Sans" font-size="50.0" fill="#FEFFFF" transform="matrix(1.00, 0.00, -0.00, -1.00, 190.7, 38.3)">r</text><text xml:space="preserve" font-family="OpenSans-Light,Open Sans" font-size="50.0" fill="#FEFFFF" transform="matrix(1.00, 0.00, -0.00, -1.00, 209.2, 38.3)">o</text><text xml:space="preserve" font-family="OpenSans-Light,Open Sans" font-size="50.0" fill="#FEFFFF" transform="matrix(1.00, 0.00, -0.00, -1.00, 238.4, 38.3)">n</text><text xml:space="preserve" font-family="OpenSans-Light,Open Sans" font-size="50.0" fill="#FEFFFF" transform="matrix(1.00, 0.00, -0.00, -1.00, 267.9, 38.3)">o</text><text xml:space="preserve" font-family="OpenSans-Light,Open Sans" font-size="50.0" fill="#FEFFFF" transform="matrix(1.00, 0.00, -0.00, -1.00, 297.2, 38.3)">u</text><text xml:space="preserve" font-family="OpenSans-Light,Open Sans" font-size="50.0" fill="#FEFFFF" transform="matrix(1.00, 0.00, -0.00, -1.00, 326.7, 38.3)">s</text><text xml:space="preserve" font-family="OpenSans-Light,Open Sans" font-size="50.0" fill="#FEFFFF" transform="matrix(1.00, 0.00, -0.00, -1.00, 350.0, 38.3)"> </text><text xml:space="preserve" font-family="OpenSans-Light,Open Sans" font-size="50.0" fill="#FEFFFF" transform="matrix(1.00, 0.00, -0.00, -1.00, 363.0, 38.3)">M</text><text xml:space="preserve" font-family="OpenSans-Light,Open Sans" font-size="50.0" fill="#FEFFFF" transform="matrix(1.00, 0.00, -0.00, -1.00, 406.1, 38.3)">i</text><text xml:space="preserve" font-family="OpenSans-Light,Open Sans" font-size="50.0" fill="#FEFFFF" transform="matrix(1.00, 0.00, -0.00, -1.00, 417.4, 38.3)">c</text><text xml:space="preserve" font-family="OpenSans-Light,Open Sans" font-size="50.0" fill="#FEFFFF" transform="matrix(1.00, 0.00, -0.00, -1.00, 441.2, 38.3)">r</text><text xml:space="preserve" font-family="OpenSans-Light,Open Sans" font-size="50.0" fill="#FEFFFF" transform="matrix(1.00, 0.00, -0.00, -1.00, 459.6, 38.3)">o</text><text xml:space="preserve" font-family="OpenSans-Light,Open Sans" font-size="50.0" fill="#FEFFFF" transform="matrix(1.00, 0.00, -0.00, -1.00, 488.9, 38.3)">s</text><text xml:space="preserve" font-family="OpenSans-Light,Open Sans" font-size="50.0" fill="#FEFFFF" transform="matrix(1.00, 0.00, -0.00, -1.00, 512.2, 38.3)">e</text><text xml:space="preserve" font-family="OpenSans-Light,Open Sans" font-size="50.0" fill="#FEFFFF" transform="matrix(1.00, 0.00, -0.00, -1.00, 539.6, 38.3)">r</text><text xml:space="preserve" font-family="OpenSans-Light,Open Sans" font-size="50.0" fill="#FEFFFF" transform="matrix(1.00, 0.00, -0.00, -1.00, 559.1, 38.3)">v</text><text xml:space="preserve" font-family="OpenSans-Light,Open Sans" font-size="50.0" fill="#FEFFFF" transform="matrix(1.00, 0.00, -0.00, -1.00, 582.0, 38.3)">i</text><text xml:space="preserve" font-family="OpenSans-Light,Open Sans" font-size="50.0" fill="#FEFFFF" transform="matrix(1.00, 0.00, -0.00, -1.00, 593.4, 38.3)">c</text><text xml:space="preserve" font-family="OpenSans-Light,Open Sans" font-size="50.0" fill="#FEFFFF" transform="matrix(1.00, 0.00, -0.00, -1.00, 617.1, 38.3)">e</text><text xml:space="preserve" font-family="OpenSans-Light,Open Sans" font-size="50.0" fill="#FEFFFF" transform="matrix(1.00, 0.00, -0.00, -1.00, 644.5, 38.3)">s</text><path d="M 995.4 698.4 C 1014.9 678.8 1014.9 647.2 995.4 627.6 C 975.8 608.1 944.2 608.1 924.6 627.6 C 905.1 647.2 905.1 678.8 924.6 698.4 C 944.2 717.9 975.8 717.9 995.4 698.4 Z M 995.4 698.4 " fill="#FEFFFE"></path><g><clipPath id="clip0x608000abadc0"><path d="M 910.0 613.0 L 1010.0 613.0 L 1010.0 713.0 L 910.0 713.0 Z M 910.0 613.0 "></path></clipPath><g clip-path="url(#clip0x608000abadc0)"><text xml:space="preserve" font-family="Helvetica-Light,Helvetica" font-size="36.0" fill="#E74B3B" transform="matrix(1.00, 0.00, -0.00, -1.00, 948.0, 649.8)">B</text></g></g><path d="M 348.0 978.0 L 552.0 978.0 L 552.0 878.0 L 348.0 878.0 Z M 348.0 978.0 " fill="#FEFFFE"></path><g><clipPath id="clip0x608000abb0c0"><path d="M 343.0 876.0 L 557.1 876.0 L 557.1 980.0 L 343.0 980.0 Z M 343.0 876.0 "></path></clipPath><g clip-path="url(#clip0x608000abb0c0)"><text xml:space="preserve" font-family="Helvetica-Light,Helvetica" font-size="36.0" fill="#E74B3B" transform="matrix(1.00, 0.00, -0.00, -1.00, 367.0, 936.2)">M</text><text xml:space="preserve" font-family="Helvetica-Light,Helvetica" font-size="36.0" fill="#E74B3B" transform="matrix(1.00, 0.00, -0.00, -1.00, 397.0, 936.2)">e</text><text xml:space="preserve" font-family="Helvetica-Light,Helvetica" font-size="36.0" fill="#E74B3B" transform="matrix(1.00, 0.00, -0.00, -1.00, 417.0, 936.2)">s</text><text xml:space="preserve" font-family="Helvetica-Light,Helvetica" font-size="36.0" fill="#E74B3B" transform="matrix(1.00, 0.00, -0.00, -1.00, 435.0, 936.2)">s</text><text xml:space="preserve" font-family="Helvetica-Light,Helvetica" font-size="36.0" fill="#E74B3B" transform="matrix(1.00, 0.00, -0.00, -1.00, 453.0, 936.2)">a</text><text xml:space="preserve" font-family="Helvetica-Light,Helvetica" font-size="36.0" fill="#E74B3B" transform="matrix(1.00, 0.00, -0.00, -1.00, 473.1, 936.2)">g</text><text xml:space="preserve" font-family="Helvetica-Light,Helvetica" font-size="36.0" fill="#E74B3B" transform="matrix(1.00, 0.00, -0.00, -1.00, 495.1, 936.2)">e</text><text xml:space="preserve" font-family="Helvetica-Light,Helvetica" font-size="36.0" fill="#E74B3B" transform="matrix(1.00, 0.00, -0.00, -1.00, 515.1, 936.2)">s</text><text xml:space="preserve" font-family="Helvetica-Light,Helvetica" font-size="36.0" fill="#E74B3B" transform="matrix(1.00, 0.00, -0.00, -1.00, 533.1, 936.2)"> </text><text xml:space="preserve" font-family="Helvetica-Light,Helvetica" font-size="36.0" fill="#E74B3B" transform="matrix(1.00, 0.00, -0.00, -1.00, 390.0, 893.2)">S</text><text xml:space="preserve" font-family="Helvetica-Light,Helvetica" font-size="36.0" fill="#E74B3B" transform="matrix(1.00, 0.00, -0.00, -1.00, 412.0, 893.2)">e</text><text xml:space="preserve" font-family="Helvetica-Light,Helvetica" font-size="36.0" fill="#E74B3B" transform="matrix(1.00, 0.00, -0.00, -1.00, 432.1, 893.2)">r</text><text xml:space="preserve" font-family="Helvetica-Light,Helvetica" font-size="36.0" fill="#E74B3B" transform="matrix(1.00, 0.00, -0.00, -1.00, 444.0, 893.2)">v</text><text xml:space="preserve" font-family="Helvetica-Light,Helvetica" font-size="36.0" fill="#E74B3B" transform="matrix(1.00, 0.00, -0.00, -1.00, 462.0, 893.2)">i</text><text xml:space="preserve" font-family="Helvetica-Light,Helvetica" font-size="36.0" fill="#E74B3B" transform="matrix(1.00, 0.00, -0.00, -1.00, 470.0, 893.2)">c</text><text xml:space="preserve" font-family="Helvetica-Light,Helvetica" font-size="36.0" fill="#E74B3B" transform="matrix(1.00, 0.00, -0.00, -1.00, 490.1, 893.2)">e</text></g></g><path d="M 858.0 978.0 L 1062.0 978.0 L 1062.0 878.0 L 858.0 878.0 Z M 857.9 978.0 " fill="#FEFFFE"></path><g><clipPath id="clip0x608000abb960"><path d="M 852.9 876.0 L 1067.1 876.0 L 1067.1 980.0 L 852.9 980.0 Z M 852.9 876.0 "></path></clipPath><g clip-path="url(#clip0x608000abb960)"><text xml:space="preserve" font-family="Helvetica-Light,Helvetica" font-size="36.0" fill="#E74B3B" transform="matrix(1.00, 0.00, -0.00, -1.00, 901.0, 936.2)">M</text><text xml:space="preserve" font-family="Helvetica-Light,Helvetica" font-size="36.0" fill="#E74B3B" transform="matrix(1.00, 0.00, -0.00, -1.00, 931.0, 936.2)">e</text><text xml:space="preserve" font-family="Helvetica-Light,Helvetica" font-size="36.0" fill="#E74B3B" transform="matrix(1.00, 0.00, -0.00, -1.00, 951.0, 936.2)">t</text><text xml:space="preserve" font-family="Helvetica-Light,Helvetica" font-size="36.0" fill="#E74B3B" transform="matrix(1.00, 0.00, -0.00, -1.00, 961.0, 936.2)">r</text><text xml:space="preserve" font-family="Helvetica-Light,Helvetica" font-size="36.0" fill="#E74B3B" transform="matrix(1.00, 0.00, -0.00, -1.00, 973.0, 936.2)">i</text><text xml:space="preserve" font-family="Helvetica-Light,Helvetica" font-size="36.0" fill="#E74B3B" transform="matrix(1.00, 0.00, -0.00, -1.00, 981.0, 936.2)">c</text><text xml:space="preserve" font-family="Helvetica-Light,Helvetica" font-size="36.0" fill="#E74B3B" transform="matrix(1.00, 0.00, -0.00, -1.00, 1001.0, 936.2)">s</text><text xml:space="preserve" font-family="Helvetica-Light,Helvetica" font-size="36.0" fill="#E74B3B" transform="matrix(1.00, 0.00, -0.00, -1.00, 1019.0, 936.2)"> </text><text xml:space="preserve" font-family="Helvetica-Light,Helvetica" font-size="36.0" fill="#E74B3B" transform="matrix(1.00, 0.00, -0.00, -1.00, 900.0, 893.2)">S</text><text xml:space="preserve" font-family="Helvetica-Light,Helvetica" font-size="36.0" fill="#E74B3B" transform="matrix(1.00, 0.00, -0.00, -1.00, 922.0, 893.2)">e</text><text xml:space="preserve" font-family="Helvetica-Light,Helvetica" font-size="36.0" fill="#E74B3B" transform="matrix(1.00, 0.00, -0.00, -1.00, 942.0, 893.2)">r</text><text xml:space="preserve" font-family="Helvetica-Light,Helvetica" font-size="36.0" fill="#E74B3B" transform="matrix(1.00, 0.00, -0.00, -1.00, 954.0, 893.2)">v</text><text xml:space="preserve" font-family="Helvetica-Light,Helvetica" font-size="36.0" fill="#E74B3B" transform="matrix(1.00, 0.00, -0.00, -1.00, 972.0, 893.2)">i</text><text xml:space="preserve" font-family="Helvetica-Light,Helvetica" font-size="36.0" fill="#E74B3B" transform="matrix(1.00, 0.00, -0.00, -1.00, 980.0, 893.2)">c</text><text xml:space="preserve" font-family="Helvetica-Light,Helvetica" font-size="36.0" fill="#E74B3B" transform="matrix(1.00, 0.00, -0.00, -1.00, 1000.0, 893.2)">e</text></g></g><path d="M 1368.0 978.0 L 1572.0 978.0 L 1572.0 878.0 L 1368.0 878.0 Z M 1367.9 978.0 " fill="#FEFFFE"></path><g><clipPath id="clip0x608000abc1a0"><path d="M 1362.9 876.0 L 1577.1 876.0 L 1577.1 980.0 L 1362.9 980.0 Z M 1362.9 876.0 "></path></clipPath><g clip-path="url(#clip0x608000abc1a0)"><text xml:space="preserve" font-family="Helvetica-Light,Helvetica" font-size="36.0" fill="#E74B3B" transform="matrix(1.00, 0.00, -0.00, -1.00, 1419.0, 936.2)">H</text><text xml:space="preserve" font-family="Helvetica-Light,Helvetica" font-size="36.0" fill="#E74B3B" transform="matrix(1.00, 0.00, -0.00, -1.00, 1445.0, 936.2)">o</text><text xml:space="preserve" font-family="Helvetica-Light,Helvetica" font-size="36.0" fill="#E74B3B" transform="matrix(1.00, 0.00, -0.00, -1.00, 1465.0, 936.2)">o</text><text xml:space="preserve" font-family="Helvetica-Light,Helvetica" font-size="36.0" fill="#E74B3B" transform="matrix(1.00, 0.00, -0.00, -1.00, 1485.0, 936.2)">k</text><text xml:space="preserve" font-family="Helvetica-Light,Helvetica" font-size="36.0" fill="#E74B3B" transform="matrix(1.00, 0.00, -0.00, -1.00, 1503.0, 936.2)">s</text><text xml:space="preserve" font-family="Helvetica-Light,Helvetica" font-size="36.0" fill="#E74B3B" transform="matrix(1.00, 0.00, -0.00, -1.00, 1521.0, 936.2)"> </text><text xml:space="preserve" font-family="Helvetica-Light,Helvetica" font-size="36.0" fill="#E74B3B" transform="matrix(1.00, 0.00, -0.00, -1.00, 1410.0, 893.2)">S</text><text xml:space="preserve" font-family="Helvetica-Light,Helvetica" font-size="36.0" fill="#E74B3B" transform="matrix(1.00, 0.00, -0.00, -1.00, 1432.0, 893.2)">e</text><text xml:space="preserve" font-family="Helvetica-Light,Helvetica" font-size="36.0" fill="#E74B3B" transform="matrix(1.00, 0.00, -0.00, -1.00, 1452.0, 893.2)">r</text><text xml:space="preserve" font-family="Helvetica-Light,Helvetica" font-size="36.0" fill="#E74B3B" transform="matrix(1.00, 0.00, -0.00, -1.00, 1464.0, 893.2)">v</text><text xml:space="preserve" font-family="Helvetica-Light,Helvetica" font-size="36.0" fill="#E74B3B" transform="matrix(1.00, 0.00, -0.00, -1.00, 1482.0, 893.2)">i</text><text xml:space="preserve" font-family="Helvetica-Light,Helvetica" font-size="36.0" fill="#E74B3B" transform="matrix(1.00, 0.00, -0.00, -1.00, 1490.0, 893.2)">c</text><text xml:space="preserve" font-family="Helvetica-Light,Helvetica" font-size="36.0" fill="#E74B3B" transform="matrix(1.00, 0.00, -0.00, -1.00, 1510.0, 893.2)">e</text></g></g><path d="M 799.0 489.0 L 1121.0 489.0 L 1121.0 430.0 L 799.0 430.0 Z M 799.1 489.4 " fill="#FEFFFE"></path><g><clipPath id="clip0x608000abc920"><path d="M 795.6 430.1 L 1124.4 430.1 L 1124.4 489.4 L 795.6 489.4 Z M 795.6 430.1 "></path></clipPath><g clip-path="url(#clip0x608000abc920)"><text xml:space="preserve" font-family="Helvetica-Light,Helvetica" font-size="30.0" fill="#E74B3B" transform="matrix(1.00, 0.00, -0.00, -1.00, 895.8, 448.3)">R</text><text xml:space="preserve" font-family="Helvetica-Light,Helvetica" font-size="30.0" fill="#E74B3B" transform="matrix(1.00, 0.00, -0.00, -1.00, 915.8, 448.3)">E</text><text xml:space="preserve" font-family="Helvetica-Light,Helvetica" font-size="30.0" fill="#E74B3B" transform="matrix(1.00, 0.00, -0.00, -1.00, 934.2, 448.3)">S</text><text xml:space="preserve" font-family="Helvetica-Light,Helvetica" font-size="30.0" fill="#E74B3B" transform="matrix(1.00, 0.00, -0.00, -1.00, 952.5, 448.3)">T</text><text xml:space="preserve" font-family="Helvetica-Light,Helvetica" font-size="30.0" fill="#E74B3B" transform="matrix(1.00, 0.00, -0.00, -1.00, 969.2, 448.3)"> </text><text xml:space="preserve" font-family="Helvetica-Light,Helvetica" font-size="30.0" fill="#E74B3B" transform="matrix(1.00, 0.00, -0.00, -1.00, 977.5, 448.3)">A</text><text xml:space="preserve" font-family="Helvetica-Light,Helvetica" font-size="30.0" fill="#E74B3B" transform="matrix(1.00, 0.00, -0.00, -1.00, 997.5, 448.3)">P</text><text xml:space="preserve" font-family="Helvetica-Light,Helvetica" font-size="30.0" fill="#E74B3B" transform="matrix(1.00, 0.00, -0.00, -1.00, 1015.8, 448.3)">I</text></g></g><text xml:space="preserve" font-family="OpenSans,Open Sans" font-size="30.0" fill="#FEFFFF" transform="matrix(1.00, 0.00, -0.00, -1.00, 1025.8, 651.3)">M</text><text xml:space="preserve" font-family="OpenSans,Open Sans" font-size="30.0" fill="#FEFFFF" transform="matrix(1.00, 0.00, -0.00, -1.00, 1052.9, 651.3)">a</text><text xml:space="preserve" font-family="OpenSans,Open Sans" font-size="30.0" fill="#FEFFFF" transform="matrix(1.00, 0.00, -0.00, -1.00, 1069.6, 651.3)">i</text><text xml:space="preserve" font-family="OpenSans,Open Sans" font-size="30.0" fill="#FEFFFF" transform="matrix(1.00, 0.00, -0.00, -1.00, 1077.2, 651.3)">n</text><text xml:space="preserve" font-family="OpenSans,Open Sans" font-size="30.0" fill="#FEFFFF" transform="matrix(1.00, 0.00, -0.00, -1.00, 1095.6, 651.3)"> </text><text xml:space="preserve" font-family="OpenSans,Open Sans" font-size="30.0" fill="#FEFFFF" transform="matrix(1.00, 0.00, -0.00, -1.00, 1103.4, 651.3)">E</text><text xml:space="preserve" font-family="OpenSans,Open Sans" font-size="30.0" fill="#FEFFFF" transform="matrix(1.00, 0.00, -0.00, -1.00, 1120.1, 651.3)">x</text><text xml:space="preserve" font-family="OpenSans,Open Sans" font-size="30.0" fill="#FEFFFF" transform="matrix(1.00, 0.00, -0.00, -1.00, 1135.2, 651.3)">c</text><text xml:space="preserve" font-family="OpenSans,Open Sans" font-size="30.0" fill="#FEFFFF" transform="matrix(1.00, 0.00, -0.00, -1.00, 1149.4, 651.3)">h</text><text xml:space="preserve" font-family="OpenSans,Open Sans" font-size="30.0" fill="#FEFFFF" transform="matrix(1.00, 0.00, -0.00, -1.00, 1167.8, 651.3)">a</text><text xml:space="preserve" font-family="OpenSans,Open Sans" font-size="30.0" fill="#FEFFFF" transform="matrix(1.00, 0.00, -0.00, -1.00, 1184.5, 651.3)">n</text><text xml:space="preserve" font-family="OpenSans,Open Sans" font-size="30.0" fill="#FEFFFF" transform="matrix(1.00, 0.00, -0.00, -1.00, 1202.9, 651.3)">g</text><text xml:space="preserve" font-family="OpenSans,Open Sans" font-size="30.0" fill="#FEFFFF" transform="matrix(1.00, 0.00, -0.00, -1.00, 1219.4, 651.3)">e</text><path d="M 934.2 305.0 C 928.2 304.8 923.0 299.9 923.0 293.8 L 923.0 187.6 C 923.0 181.5 928.2 177.0 934.2 177.0 L 985.8 177.0 C 991.9 177.0 997.0 181.5 997.0 187.6 L 997.0 293.8 C 997.0 299.9 991.9 305.0 985.8 305.0 L 934.2 305.0 Z M 939.7 296.3 L 980.3 296.0 C 985.1 296.0 989.0 292.5 989.0 287.7 L 989.0 204.1 C 989.0 199.3 985.1 195.0 980.3 195.0 L 939.7 195.0 C 934.9 195.0 931.0 199.3 931.0 204.1 L 931.0 287.7 C 931.0 292.5 934.9 296.3 939.7 296.3 Z M 960.4 192.3 C 961.6 192.3 962.9 191.8 963.8 190.9 C 965.7 189.0 965.7 185.9 963.8 184.0 C 961.9 182.1 958.8 182.1 956.9 184.0 C 955.0 185.9 955.0 189.0 956.9 190.9 C 957.9 191.8 959.1 192.3 960.4 192.3 Z M 960.4 192.3 " fill="#FEFFFE"></path></g></svg>