<?xml version="1.0" encoding="UTF-8" standalone="no"?><svg xmlns="http://www.w3.org/2000/svg" xmlns:xlink="http://www.w3.org/1999/xlink" clip-rule="evenodd" stroke-miterlimit="10" viewBox="0 0 1920 1080"><desc>SVG generated by Keynote</desc><defs></defs><g transform="matrix(1.00, 0.00, -0.00, -1.00, 0.0, 1080.0)"><path d="M 0.0 1080.0 L 1920.0 1080.0 L 1920.0 0.0 L 0.0 0.0 Z M 0.0 1080.0 " fill="#E74B3B"></path><text xml:space="preserve" font-family="OpenSans-Light,Open Sans" font-size="50.0" fill="#FEFFFF" transform="matrix(1.00, 0.00, -0.00, -1.00, 32.4, 38.4)">A</text><text xml:space="preserve" font-family="OpenSans-Light,Open Sans" font-size="50.0" fill="#FEFFFF" transform="matrix(1.00, 0.00, -0.00, -1.00, 62.4, 38.4)">s</text><text xml:space="preserve" font-family="OpenSans-Light,Open Sans" font-size="50.0" fill="#FEFFFF" transform="matrix(1.00, 0.00, -0.00, -1.00, 85.6, 38.4)">y</text><text xml:space="preserve" font-family="OpenSans-Light,Open Sans" font-size="50.0" fill="#FEFFFF" transform="matrix(1.00, 0.00, -0.00, -1.00, 108.6, 38.4)">n</text><text xml:space="preserve" font-family="OpenSans-Light,Open Sans" font-size="50.0" fill="#FEFFFF" transform="matrix(1.00, 0.00, -0.00, -1.00, 138.1, 38.4)">c</text><text xml:space="preserve" font-family="OpenSans-Light,Open Sans" font-size="50.0" fill="#FEFFFF" transform="matrix(1.00, 0.00, -0.00, -1.00, 161.8, 38.4)">h</text><text xml:space="preserve" font-family="OpenSans-Light,Open Sans" font-size="50.0" fill="#FEFFFF" transform="matrix(1.00, 0.00, -0.00, -1.00, 191.3, 38.4)">r</text><text xml:space="preserve" font-family="OpenSans-Light,Open Sans" font-size="50.0" fill="#FEFFFF" transform="matrix(1.00, 0.00, -0.00, -1.00, 209.8, 38.4)">o</text><text xml:space="preserve" font-family="OpenSans-Light,Open Sans" font-size="50.0" fill="#FEFFFF" transform="matrix(1.00, 0.00, -0.00, -1.00, 239.1, 38.4)">n</text><text xml:space="preserve" font-family="OpenSans-Light,Open Sans" font-size="50.0" fill="#FEFFFF" transform="matrix(1.00, 0.00, -0.00, -1.00, 268.6, 38.4)">o</text><text xml:space="preserve" font-family="OpenSans-Light,Open Sans" font-size="50.0" fill="#FEFFFF" transform="matrix(1.00, 0.00, -0.00, -1.00, 297.8, 38.4)">u</text><text xml:space="preserve" font-family="OpenSans-Light,Open Sans" font-size="50.0" fill="#FEFFFF" transform="matrix(1.00, 0.00, -0.00, -1.00, 327.3, 38.4)">s</text><text xml:space="preserve" font-family="OpenSans-Light,Open Sans" font-size="50.0" fill="#FEFFFF" transform="matrix(1.00, 0.00, -0.00, -1.00, 350.6, 38.4)"> </text><text xml:space="preserve" font-family="OpenSans-Light,Open Sans" font-size="50.0" fill="#FEFFFF" transform="matrix(1.00, 0.00, -0.00, -1.00, 363.6, 38.4)">M</text><text xml:space="preserve" font-family="OpenSans-Light,Open Sans" font-size="50.0" fill="#FEFFFF" transform="matrix(1.00, 0.00, -0.00, -1.00, 406.7, 38.4)">i</text><text xml:space="preserve" font-family="OpenSans-Light,Open Sans" font-size="50.0" fill="#FEFFFF" transform="matrix(1.00, 0.00, -0.00, -1.00, 418.0, 38.4)">c</text><text xml:space="preserve" font-family="OpenSans-Light,Open Sans" font-size="50.0" fill="#FEFFFF" transform="matrix(1.00, 0.00, -0.00, -1.00, 441.8, 38.4)">r</text><text xml:space="preserve" font-family="OpenSans-Light,Open Sans" font-size="50.0" fill="#FEFFFF" transform="matrix(1.00, 0.00, -0.00, -1.00, 460.3, 38.4)">o</text><text xml:space="preserve" font-family="OpenSans-Light,Open Sans" font-size="50.0" fill="#FEFFFF" transform="matrix(1.00, 0.00, -0.00, -1.00, 489.5, 38.4)">s</text><text xml:space="preserve" font-family="OpenSans-Light,Open Sans" font-size="50.0" fill="#FEFFFF" transform="matrix(1.00, 0.00, -0.00, -1.00, 512.8, 38.4)">e</text><text xml:space="preserve" font-family="OpenSans-Light,Open Sans" font-size="50.0" fill="#FEFFFF" transform="matrix(1.00, 0.00, -0.00, -1.00, 540.3, 38.4)">r</text><text xml:space="preserve" font-family="OpenSans-Light,Open Sans" font-size="50.0" fill="#FEFFFF" transform="matrix(1.00, 0.00, -0.00, -1.00, 559.7, 38.4)">v</text><text xml:space="preserve" font-family="OpenSans-Light,Open Sans" font-size="50.0" fill="#FEFFFF" transform="matrix(1.00, 0.00, -0.00, -1.00, 582.7, 38.4)">i</text><text xml:space="preserve" font-family="OpenSans-Light,Open Sans" font-size="50.0" fill="#FEFFFF" transform="matrix(1.00, 0.00, -0.00, -1.00, 594.0, 38.4)">c</text><text xml:space="preserve" font-family="OpenSans-Light,Open Sans" font-size="50.0" fill="#FEFFFF" transform="matrix(1.00, 0.00, -0.00, -1.00, 617.7, 38.4)">e</text><text xml:space="preserve" font-family="OpenSans-Light,Open Sans" font-size="50.0" fill="#FEFFFF" transform="matrix(1.00, 0.00, -0.00, -1.00, 645.2, 38.4)">s</text><text xml:space="preserve" font-family="OpenSans-Light,Open Sans" font-size="80.0" fill="#FEFFFF" transform="matrix(1.00, 0.00, -0.00, -1.00, 279.0, 821.4)">C</text><text xml:space="preserve" font-family="OpenSans-Light,Open Sans" font-size="80.0" fill="#FEFFFF" transform="matrix(1.00, 0.00, -0.00, -1.00, 328.7, 821.4)">h</text><text xml:space="preserve" font-family="OpenSans-Light,Open Sans" font-size="80.0" fill="#FEFFFF" transform="matrix(1.00, 0.00, -0.00, -1.00, 375.9, 821.4)">e</text><text xml:space="preserve" font-family="OpenSans-Light,Open Sans" font-size="80.0" fill="#FEFFFF" transform="matrix(1.00, 0.00, -0.00, -1.00, 419.8, 821.4)">c</text><text xml:space="preserve" font-family="OpenSans-Light,Open Sans" font-size="80.0" fill="#FEFFFF" transform="matrix(1.00, 0.00, -0.00, -1.00, 457.8, 821.4)">k</text><text xml:space="preserve" font-family="OpenSans-Light,Open Sans" font-size="80.0" fill="#FEFFFF" transform="matrix(1.00, 0.00, -0.00, -1.00, 496.5, 821.4)"> </text><text xml:space="preserve" font-family="OpenSans-Light,Open Sans" font-size="80.0" fill="#FEFFFF" transform="matrix(1.00, 0.00, -0.00, -1.00, 517.2, 821.4)">o</text><text xml:space="preserve" font-family="OpenSans-Light,Open Sans" font-size="80.0" fill="#FEFFFF" transform="matrix(1.00, 0.00, -0.00, -1.00, 564.1, 821.4)">u</text><text xml:space="preserve" font-family="OpenSans-Light,Open Sans" font-size="80.0" fill="#FEFFFF" transform="matrix(1.00, 0.00, -0.00, -1.00, 611.3, 821.4)">t</text><text xml:space="preserve" font-family="OpenSans-Light,Open Sans" font-size="80.0" fill="#FEFFFF" transform="matrix(1.00, 0.00, -0.00, -1.00, 638.1, 821.4)"> </text><text xml:space="preserve" font-family="OpenSans-Light,Open Sans" font-size="80.0" fill="#FEFFFF" transform="matrix(1.00, 0.00, -0.00, -1.00, 658.8, 821.4)">B</text><text xml:space="preserve" font-family="OpenSans-Light,Open Sans" font-size="80.0" fill="#FEFFFF" transform="matrix(1.00, 0.00, -0.00, -1.00, 709.0, 821.4)">r</text><text xml:space="preserve" font-family="OpenSans-Light,Open Sans" font-size="80.0" fill="#FEFFFF" transform="matrix(1.00, 0.00, -0.00, -1.00, 740.2, 821.4)">u</text><text xml:space="preserve" font-family="OpenSans-Light,Open Sans" font-size="80.0" fill="#FEFFFF" transform="matrix(1.00, 0.00, -0.00, -1.00, 787.3, 821.4)">n</text><text xml:space="preserve" font-family="OpenSans-Light,Open Sans" font-size="80.0" fill="#FEFFFF" transform="matrix(1.00, 0.00, -0.00, -1.00, 834.5, 821.4)">o</text><text xml:space="preserve" font-family="OpenSans-Light,Open Sans" font-size="80.0" fill="#FEFFFF" transform="matrix(1.00, 0.00, -0.00, -1.00, 881.4, 821.4)"> </text><text xml:space="preserve" font-family="OpenSans-Light,Open Sans" font-size="80.0" fill="#FEFFFF" transform="matrix(1.00, 0.00, -0.00, -1.00, 902.1, 821.4)">P</text><text xml:space="preserve" font-family="OpenSans-Light,Open Sans" font-size="80.0" fill="#FEFFFF" transform="matrix(1.00, 0.00, -0.00, -1.00, 948.9, 821.4)">e</text><text xml:space="preserve" font-family="OpenSans-Light,Open Sans" font-size="80.0" fill="#FEFFFF" transform="matrix(1.00, 0.00, -0.00, -1.00, 992.8, 821.4)">d</text><text xml:space="preserve" font-family="OpenSans-Light,Open Sans" font-size="80.0" fill="#FEFFFF" transform="matrix(1.00, 0.00, -0.00, -1.00, 1040.4, 821.4)">r</text><text xml:space="preserve" font-family="OpenSans-Light,Open Sans" font-size="80.0" fill="#FEFFFF" transform="matrix(1.00, 0.00, -0.00, -1.00, 1070.0, 821.4)">o</text><text xml:space="preserve" font-family="OpenSans-Light,Open Sans" font-size="80.0" fill="#FEFFFF" transform="matrix(1.00, 0.00, -0.00, -1.00, 1116.1, 821.4)">’</text><text xml:space="preserve" font-family="OpenSans-Light,Open Sans" font-size="80.0" fill="#FEFFFF" transform="matrix(1.00, 0.00, -0.00, -1.00, 1125.3, 821.4)">s</text><text xml:space="preserve" font-family="OpenSans-Light,Open Sans" font-size="80.0" fill="#FEFFFF" transform="matrix(1.00, 0.00, -0.00, -1.00, 1162.5, 821.4)"> </text><text xml:space="preserve" font-family="OpenSans-Light,Open Sans" font-size="80.0" fill="#FEFFFF" transform="matrix(1.00, 0.00, -0.00, -1.00, 1183.3, 821.4)">p</text><text xml:space="preserve" font-family="OpenSans-Light,Open Sans" font-size="80.0" fill="#FEFFFF" transform="matrix(1.00, 0.00, -0.00, -1.00, 1230.9, 821.4)">r</text><text xml:space="preserve" font-family="OpenSans-Light,Open Sans" font-size="80.0" fill="#FEFFFF" transform="matrix(1.00, 0.00, -0.00, -1.00, 1260.5, 821.4)">e</text><text xml:space="preserve" font-family="OpenSans-Light,Open Sans" font-size="80.0" fill="#FEFFFF" transform="matrix(1.00, 0.00, -0.00, -1.00, 1304.4, 821.4)">s</text><text xml:space="preserve" font-family="OpenSans-Light,Open Sans" font-size="80.0" fill="#FEFFFF" transform="matrix(1.00, 0.00, -0.00, -1.00, 1341.6, 821.4)">e</text><text xml:space="preserve" font-family="OpenSans-Light,Open Sans" font-size="80.0" fill="#FEFFFF" transform="matrix(1.00, 0.00, -0.00, -1.00, 1385.5, 821.4)">n</text><text xml:space="preserve" font-family="OpenSans-Light,Open Sans" font-size="80.0" fill="#FEFFFF" transform="matrix(1.00, 0.00, -0.00, -1.00, 1432.7, 821.4)">t</text><text xml:space="preserve" font-family="OpenSans-Light,Open Sans" font-size="80.0" fill="#FEFFFF" transform="matrix(1.00, 0.00, -0.00, -1.00, 1459.5, 821.4)">a</text><text xml:space="preserve" font-family="OpenSans-Light,Open Sans" font-size="80.0" fill="#FEFFFF" transform="matrix(1.00, 0.00, -0.00, -1.00, 1501.8, 821.4)">t</text><text xml:space="preserve" font-family="OpenSans-Light,Open Sans" font-size="80.0" fill="#FEFFFF" transform="matrix(1.00, 0.00, -0.00, -1.00, 1528.6, 821.4)">i</text><text xml:space="preserve" font-family="OpenSans-Light,Open Sans" font-size="80.0" fill="#FEFFFF" transform="matrix(1.00, 0.00, -0.00, -1.00, 1546.7, 821.4)">o</text><text xml:space="preserve" font-family="OpenSans-Light,Open Sans" font-size="80.0" fill="#FEFFFF" transform="matrix(1.00, 0.00, -0.00, -1.00, 1593.6, 821.4)">n</text><text xml:space="preserve" font-family="OpenSans-Light,Open Sans" font-size="80.0" fill="#FEFFFF" transform="matrix(1.00, 0.00, -0.00, -1.00, 1640.8, 821.4)"> </text><text xml:space="preserve" font-family="OpenSans-Light,Open Sans" font-size="80.0" fill="#FEFFFF" transform="matrix(1.00, 0.00, -0.00, -1.00, 393.6, 712.4)">o</text><text xml:space="preserve" font-family="OpenSans-Light,Open Sans" font-size="80.0" fill="#FEFFFF" transform="matrix(1.00, 0.00, -0.00, -1.00, 440.5, 712.4)">n</text><text xml:space="preserve" font-family="OpenSans-Light,Open Sans" font-size="80.0" fill="#FEFFFF" transform="matrix(1.00, 0.00, -0.00, -1.00, 487.7, 712.4)"> </text><text xml:space="preserve" font-family="OpenSans-Light,Open Sans" font-size="80.0" fill="#FEFFFF" transform="matrix(1.00, 0.00, -0.00, -1.00, 508.4, 712.4)">A</text><text xml:space="preserve" font-family="OpenSans-Light,Open Sans" font-size="80.0" fill="#FEFFFF" transform="matrix(1.00, 0.00, -0.00, -1.00, 556.5, 712.4)">s</text><text xml:space="preserve" font-family="OpenSans-Light,Open Sans" font-size="80.0" fill="#FEFFFF" transform="matrix(1.00, 0.00, -0.00, -1.00, 593.7, 712.4)">y</text><text xml:space="preserve" font-family="OpenSans-Light,Open Sans" font-size="80.0" fill="#FEFFFF" transform="matrix(1.00, 0.00, -0.00, -1.00, 630.4, 712.4)">n</text><text xml:space="preserve" font-family="OpenSans-Light,Open Sans" font-size="80.0" fill="#FEFFFF" transform="matrix(1.00, 0.00, -0.00, -1.00, 677.6, 712.4)">c</text><text xml:space="preserve" font-family="OpenSans-Light,Open Sans" font-size="80.0" fill="#FEFFFF" transform="matrix(1.00, 0.00, -0.00, -1.00, 715.6, 712.4)">h</text><text xml:space="preserve" font-family="OpenSans-Light,Open Sans" font-size="80.0" fill="#FEFFFF" transform="matrix(1.00, 0.00, -0.00, -1.00, 762.8, 712.4)">r</text><text xml:space="preserve" font-family="OpenSans-Light,Open Sans" font-size="80.0" fill="#FEFFFF" transform="matrix(1.00, 0.00, -0.00, -1.00, 792.3, 712.4)">o</text><text xml:space="preserve" font-family="OpenSans-Light,Open Sans" font-size="80.0" fill="#FEFFFF" transform="matrix(1.00, 0.00, -0.00, -1.00, 839.2, 712.4)">n</text><text xml:space="preserve" font-family="OpenSans-Light,Open Sans" font-size="80.0" fill="#FEFFFF" transform="matrix(1.00, 0.00, -0.00, -1.00, 886.4, 712.4)">o</text><text xml:space="preserve" font-family="OpenSans-Light,Open Sans" font-size="80.0" fill="#FEFFFF" transform="matrix(1.00, 0.00, -0.00, -1.00, 933.2, 712.4)">u</text><text xml:space="preserve" font-family="OpenSans-Light,Open Sans" font-size="80.0" fill="#FEFFFF" transform="matrix(1.00, 0.00, -0.00, -1.00, 980.4, 712.4)">s</text><text xml:space="preserve" font-family="OpenSans-Light,Open Sans" font-size="80.0" fill="#FEFFFF" transform="matrix(1.00, 0.00, -0.00, -1.00, 1017.6, 712.4)"> </text><text xml:space="preserve" font-family="OpenSans-Light,Open Sans" font-size="80.0" fill="#FEFFFF" transform="matrix(1.00, 0.00, -0.00, -1.00, 1038.4, 712.4)">M</text><text xml:space="preserve" font-family="OpenSans-Light,Open Sans" font-size="80.0" fill="#FEFFFF" transform="matrix(1.00, 0.00, -0.00, -1.00, 1107.4, 712.4)">i</text><text xml:space="preserve" font-family="OpenSans-Light,Open Sans" font-size="80.0" fill="#FEFFFF" transform="matrix(1.00, 0.00, -0.00, -1.00, 1125.5, 712.4)">c</text><text xml:space="preserve" font-family="OpenSans-Light,Open Sans" font-size="80.0" fill="#FEFFFF" transform="matrix(1.00, 0.00, -0.00, -1.00, 1163.5, 712.4)">r</text><text xml:space="preserve" font-family="OpenSans-Light,Open Sans" font-size="80.0" fill="#FEFFFF" transform="matrix(1.00, 0.00, -0.00, -1.00, 1193.1, 712.4)">o</text><text xml:space="preserve" font-family="OpenSans-Light,Open Sans" font-size="80.0" fill="#FEFFFF" transform="matrix(1.00, 0.00, -0.00, -1.00, 1239.9, 712.4)">s</text><text xml:space="preserve" font-family="OpenSans-Light,Open Sans" font-size="80.0" fill="#FEFFFF" transform="matrix(1.00, 0.00, -0.00, -1.00, 1277.2, 712.4)">e</text><text xml:space="preserve" font-family="OpenSans-Light,Open Sans" font-size="80.0" fill="#FEFFFF" transform="matrix(1.00, 0.00, -0.00, -1.00, 1321.1, 712.4)">r</text><text xml:space="preserve" font-family="OpenSans-Light,Open Sans" font-size="80.0" fill="#FEFFFF" transform="matrix(1.00, 0.00, -0.00, -1.00, 1352.2, 712.4)">v</text><text xml:space="preserve" font-family="OpenSans-Light,Open Sans" font-size="80.0" fill="#FEFFFF" transform="matrix(1.00, 0.00, -0.00, -1.00, 1388.9, 712.4)">i</text><text xml:space="preserve" font-family="OpenSans-Light,Open Sans" font-size="80.0" fill="#FEFFFF" transform="matrix(1.00, 0.00, -0.00, -1.00, 1407.0, 712.4)">c</text><text xml:space="preserve" font-family="OpenSans-Light,Open Sans" font-size="80.0" fill="#FEFFFF" transform="matrix(1.00, 0.00, -0.00, -1.00, 1445.1, 712.4)">e</text><text xml:space="preserve" font-family="OpenSans-Light,Open Sans" font-size="80.0" fill="#FEFFFF" transform="matrix(1.00, 0.00, -0.00, -1.00, 1488.9, 712.4)">s</text><text xml:space="preserve" font-family="OpenSans-Light,Open Sans" font-size="80.0" fill="#FEFFFF" transform="matrix(1.00, 0.00, -0.00, -1.00, 1526.2, 712.4)"> </text><text xml:space="preserve" font-family="OpenSans-Light,Open Sans" font-size="40.0" fill="#FEFFFF" transform="matrix(1.00, 0.00, -0.00, -1.00, 410.9, 536.7)">s</text><text xml:space="preserve" font-family="OpenSans-Light,Open Sans" font-size="40.0" fill="#FEFFFF" transform="matrix(1.00, 0.00, -0.00, -1.00, 429.5, 536.7)">l</text><text xml:space="preserve" font-family="OpenSans-Light,Open Sans" font-size="40.0" fill="#FEFFFF" transform="matrix(1.00, 0.00, -0.00, -1.00, 438.6, 536.7)">i</text><text xml:space="preserve" font-family="OpenSans-Light,Open Sans" font-size="40.0" fill="#FEFFFF" transform="matrix(1.00, 0.00, -0.00, -1.00, 447.6, 536.7)">d</text><text xml:space="preserve" font-family="OpenSans-Light,Open Sans" font-size="40.0" fill="#FEFFFF" transform="matrix(1.00, 0.00, -0.00, -1.00, 471.4, 536.7)">e</text><text xml:space="preserve" font-family="OpenSans-Light,Open Sans" font-size="40.0" fill="#FEFFFF" transform="matrix(1.00, 0.00, -0.00, -1.00, 493.4, 536.7)">s</text><text xml:space="preserve" font-family="OpenSans-Light,Open Sans" font-size="40.0" fill="#FEFFFF" transform="matrix(1.00, 0.00, -0.00, -1.00, 512.0, 536.7)">h</text><text xml:space="preserve" font-family="OpenSans-Light,Open Sans" font-size="40.0" fill="#FEFFFF" transform="matrix(1.00, 0.00, -0.00, -1.00, 535.6, 536.7)">a</text><text xml:space="preserve" font-family="OpenSans-Light,Open Sans" font-size="40.0" fill="#FEFFFF" transform="matrix(1.00, 0.00, -0.00, -1.00, 556.8, 536.7)">r</text><text xml:space="preserve" font-family="OpenSans-Light,Open Sans" font-size="40.0" fill="#FEFFFF" transform="matrix(1.00, 0.00, -0.00, -1.00, 571.6, 536.7)">e</text><text xml:space="preserve" font-family="OpenSans-Light,Open Sans" font-size="40.0" fill="#FEFFFF" transform="matrix(1.00, 0.00, -0.00, -1.00, 593.5, 536.7)">.</text><text xml:space="preserve" font-family="OpenSans-Light,Open Sans" font-size="40.0" fill="#FEFFFF" transform="matrix(1.00, 0.00, -0.00, -1.00, 603.0, 536.7)">n</text><text xml:space="preserve" font-family="OpenSans-Light,Open Sans" font-size="40.0" fill="#FEFFFF" transform="matrix(1.00, 0.00, -0.00, -1.00, 626.6, 536.7)">e</text><text xml:space="preserve" font-family="OpenSans-Light,Open Sans" font-size="40.0" fill="#FEFFFF" transform="matrix(1.00, 0.00, -0.00, -1.00, 648.5, 536.7)">t</text><text xml:space="preserve" font-family="OpenSans-Light,Open Sans" font-size="40.0" fill="#FEFFFF" transform="matrix(1.00, 0.00, -0.00, -1.00, 661.9, 536.7)">/</text><text xml:space="preserve" font-family="OpenSans-Light,Open Sans" font-size="40.0" fill="#FEFFFF" transform="matrix(1.00, 0.00, -0.00, -1.00, 675.6, 536.7)">b</text><text xml:space="preserve" font-family="OpenSans-Light,Open Sans" font-size="40.0" fill="#FEFFFF" transform="matrix(1.00, 0.00, -0.00, -1.00, 699.4, 536.7)">p</text><text xml:space="preserve" font-family="OpenSans-Light,Open Sans" font-size="40.0" fill="#FEFFFF" transform="matrix(1.00, 0.00, -0.00, -1.00, 723.2, 536.7)">e</text><text xml:space="preserve" font-family="OpenSans-Light,Open Sans" font-size="40.0" fill="#FEFFFF" transform="matrix(1.00, 0.00, -0.00, -1.00, 745.1, 536.7)">d</text><text xml:space="preserve" font-family="OpenSans-Light,Open Sans" font-size="40.0" fill="#FEFFFF" transform="matrix(1.00, 0.00, -0.00, -1.00, 769.0, 536.7)">r</text><text xml:space="preserve" font-family="OpenSans-Light,Open Sans" font-size="40.0" fill="#FEFFFF" transform="matrix(1.00, 0.00, -0.00, -1.00, 783.7, 536.7)">o</text><text xml:space="preserve" font-family="OpenSans-Light,Open Sans" font-size="40.0" fill="#FEFFFF" transform="matrix(1.00, 0.00, -0.00, -1.00, 807.2, 536.7)">/</text><text xml:space="preserve" font-family="OpenSans-Light,Open Sans" font-size="40.0" fill="#FEFFFF" transform="matrix(1.00, 0.00, -0.00, -1.00, 820.8, 536.7)">a</text><text xml:space="preserve" font-family="OpenSans-Light,Open Sans" font-size="40.0" fill="#FEFFFF" transform="matrix(1.00, 0.00, -0.00, -1.00, 842.0, 536.7)">s</text><text xml:space="preserve" font-family="OpenSans-Light,Open Sans" font-size="40.0" fill="#FEFFFF" transform="matrix(1.00, 0.00, -0.00, -1.00, 860.6, 536.7)">y</text><text xml:space="preserve" font-family="OpenSans-Light,Open Sans" font-size="40.0" fill="#FEFFFF" transform="matrix(1.00, 0.00, -0.00, -1.00, 878.9, 536.7)">n</text><text xml:space="preserve" font-family="OpenSans-Light,Open Sans" font-size="40.0" fill="#FEFFFF" transform="matrix(1.00, 0.00, -0.00, -1.00, 902.5, 536.7)">c</text><text xml:space="preserve" font-family="OpenSans-Light,Open Sans" font-size="40.0" fill="#FEFFFF" transform="matrix(1.00, 0.00, -0.00, -1.00, 921.5, 536.7)">h</text><text xml:space="preserve" font-family="OpenSans-Light,Open Sans" font-size="40.0" fill="#FEFFFF" transform="matrix(1.00, 0.00, -0.00, -1.00, 945.1, 536.7)">r</text><text xml:space="preserve" font-family="OpenSans-Light,Open Sans" font-size="40.0" fill="#FEFFFF" transform="matrix(1.00, 0.00, -0.00, -1.00, 959.9, 536.7)">o</text><text xml:space="preserve" font-family="OpenSans-Light,Open Sans" font-size="40.0" fill="#FEFFFF" transform="matrix(1.00, 0.00, -0.00, -1.00, 983.3, 536.7)">n</text><text xml:space="preserve" font-family="OpenSans-Light,Open Sans" font-size="40.0" fill="#FEFFFF" transform="matrix(1.00, 0.00, -0.00, -1.00, 1006.9, 536.7)">o</text><text xml:space="preserve" font-family="OpenSans-Light,Open Sans" font-size="40.0" fill="#FEFFFF" transform="matrix(1.00, 0.00, -0.00, -1.00, 1030.3, 536.7)">u</text><text xml:space="preserve" font-family="OpenSans-Light,Open Sans" font-size="40.0" fill="#FEFFFF" transform="matrix(1.00, 0.00, -0.00, -1.00, 1053.9, 536.7)">s</text><text xml:space="preserve" font-family="OpenSans-Light,Open Sans" font-size="40.0" fill="#FEFFFF" transform="matrix(1.00, 0.00, -0.00, -1.00, 1072.6, 536.7)">-</text><text xml:space="preserve" font-family="OpenSans-Light,Open Sans" font-size="40.0" fill="#FEFFFF" transform="matrix(1.00, 0.00, -0.00, -1.00, 1085.4, 536.7)">m</text><text xml:space="preserve" font-family="OpenSans-Light,Open Sans" font-size="40.0" fill="#FEFFFF" transform="matrix(1.00, 0.00, -0.00, -1.00, 1120.7, 536.7)">i</text><text xml:space="preserve" font-family="OpenSans-Light,Open Sans" font-size="40.0" fill="#FEFFFF" transform="matrix(1.00, 0.00, -0.00, -1.00, 1129.8, 536.7)">c</text><text xml:space="preserve" font-family="OpenSans-Light,Open Sans" font-size="40.0" fill="#FEFFFF" transform="matrix(1.00, 0.00, -0.00, -1.00, 1148.8, 536.7)">r</text><text xml:space="preserve" font-family="OpenSans-Light,Open Sans" font-size="40.0" fill="#FEFFFF" transform="matrix(1.00, 0.00, -0.00, -1.00, 1163.6, 536.7)">o</text><text xml:space="preserve" font-family="OpenSans-Light,Open Sans" font-size="40.0" fill="#FEFFFF" transform="matrix(1.00, 0.00, -0.00, -1.00, 1187.0, 536.7)">s</text><text xml:space="preserve" font-family="OpenSans-Light,Open Sans" font-size="40.0" fill="#FEFFFF" transform="matrix(1.00, 0.00, -0.00, -1.00, 1205.6, 536.7)">e</text><text xml:space="preserve" font-family="OpenSans-Light,Open Sans" font-size="40.0" fill="#FEFFFF" transform="matrix(1.00, 0.00, -0.00, -1.00, 1227.6, 536.7)">r</text><text xml:space="preserve" font-family="OpenSans-Light,Open Sans" font-size="40.0" fill="#FEFFFF" transform="matrix(1.00, 0.00, -0.00, -1.00, 1243.1, 536.7)">v</text><text xml:space="preserve" font-family="OpenSans-Light,Open Sans" font-size="40.0" fill="#FEFFFF" transform="matrix(1.00, 0.00, -0.00, -1.00, 1261.5, 536.7)">i</text><text xml:space="preserve" font-family="OpenSans-Light,Open Sans" font-size="40.0" fill="#FEFFFF" transform="matrix(1.00, 0.00, -0.00, -1.00, 1270.5, 536.7)">c</text><text xml:space="preserve" font-family="OpenSans-Light,Open Sans" font-size="40.0" fill="#FEFFFF" transform="matrix(1.00, 0.00, -0.00, -1.00, 1289.5, 536.7)">e</text><text xml:space="preserve" font-family="OpenSans-Light,Open Sans" font-size="40.0" fill="#FEFFFF" transform="matrix(1.00, 0.00, -0.00, -1.00, 1311.5, 536.7)">s</text><text xml:space="preserve" font-family="OpenSans-Light,Open Sans" font-size="40.0" fill="#FEFFFF" transform="matrix(1.00, 0.00, -0.00, -1.00, 1330.1, 536.7)">-</text><text xml:space="preserve" font-family="OpenSans-Light,Open Sans" font-size="40.0" fill="#FEFFFF" transform="matrix(1.00, 0.00, -0.00, -1.00, 1343.0, 536.7)">i</text><text xml:space="preserve" font-family="OpenSans-Light,Open Sans" font-size="40.0" fill="#FEFFFF" transform="matrix(1.00, 0.00, -0.00, -1.00, 1352.0, 536.7)">n</text><text xml:space="preserve" font-family="OpenSans-Light,Open Sans" font-size="40.0" fill="#FEFFFF" transform="matrix(1.00, 0.00, -0.00, -1.00, 1375.6, 536.7)">-</text><text xml:space="preserve" font-family="OpenSans-Light,Open Sans" font-size="40.0" fill="#FEFFFF" transform="matrix(1.00, 0.00, -0.00, -1.00, 1388.5, 536.7)">n</text><text xml:space="preserve" font-family="OpenSans-Light,Open Sans" font-size="40.0" fill="#FEFFFF" transform="matrix(1.00, 0.00, -0.00, -1.00, 1412.1, 536.7)">o</text><text xml:space="preserve" font-family="OpenSans-Light,Open Sans" font-size="40.0" fill="#FEFFFF" transform="matrix(1.00, 0.00, -0.00, -1.00, 1435.5, 536.7)">d</text><text xml:space="preserve" font-family="OpenSans-Light,Open Sans" font-size="40.0" fill="#FEFFFF" transform="matrix(1.00, 0.00, -0.00, -1.00, 1459.3, 536.7)">e</text><text xml:space="preserve" font-family="OpenSans-Light,Open Sans" font-size="40.0" fill="#FEFFFF" transform="matrix(1.00, 0.00, -0.00, -1.00, 1481.3, 536.7)">j</text><text xml:space="preserve" font-family="OpenSans-Light,Open Sans" font-size="40.0" fill="#FEFFFF" transform="matrix(1.00, 0.00, -0.00, -1.00, 1490.3, 536.7)">s</text><g><clipPath id="clip0x608000ab2240"><path d="M 409.9 531.7 L 1509.1 531.7 L 1509.1 535.7 L 409.9 535.7 Z M 409.9 531.7 "></path></clipPath><g clip-path="url(#clip0x608000ab2240)"><path d="M 146.8 377.3 L 1245.0 377.3 " fill="none" stroke="#FEFFFF" stroke-width="1.99" transform="matrix(1.00, 0.00, 0.00, -1.00, 264.1, 911.0)"></path></g></g></g></svg>