<?xml version="1.0" encoding="UTF-8" standalone="no"?><svg xmlns="http://www.w3.org/2000/svg" xmlns:xlink="http://www.w3.org/1999/xlink" clip-rule="evenodd" stroke-miterlimit="10" viewBox="0 0 1920 1080"><desc>SVG generated by Keynote</desc><defs></defs><g transform="matrix(1.00, 0.00, -0.00, -1.00, 0.0, 1080.0)"><path d="M 0.0 1080.0 L 1920.0 1080.0 L 1920.0 0.0 L 0.0 0.0 Z M 0.0 1080.0 " fill="#1ABB9B"></path><text xml:space="preserve" font-family="OpenSans-Light,Open Sans" font-size="50.0" fill="#FEFFFF" transform="matrix(1.00, 0.00, -0.00, -1.00, 31.7, 38.3)">T</text><text xml:space="preserve" font-family="OpenSans-Light,Open Sans" font-size="50.0" fill="#FEFFFF" transform="matrix(1.00, 0.00, -0.00, -1.00, 57.9, 38.3)">h</text><text xml:space="preserve" font-family="OpenSans-Light,Open Sans" font-size="50.0" fill="#FEFFFF" transform="matrix(1.00, 0.00, -0.00, -1.00, 87.4, 38.3)">e</text><text xml:space="preserve" font-family="OpenSans-Light,Open Sans" font-size="50.0" fill="#FEFFFF" transform="matrix(1.00, 0.00, -0.00, -1.00, 114.8, 38.3)"> </text><text xml:space="preserve" font-family="OpenSans-Light,Open Sans" font-size="50.0" fill="#FEFFFF" transform="matrix(1.00, 0.00, -0.00, -1.00, 127.8, 38.3)">f</text><text xml:space="preserve" font-family="OpenSans-Light,Open Sans" font-size="50.0" fill="#FEFFFF" transform="matrix(1.00, 0.00, -0.00, -1.00, 142.8, 38.3)">r</text><text xml:space="preserve" font-family="OpenSans-Light,Open Sans" font-size="50.0" fill="#FEFFFF" transform="matrix(1.00, 0.00, -0.00, -1.00, 161.3, 38.3)">o</text><text xml:space="preserve" font-family="OpenSans-Light,Open Sans" font-size="50.0" fill="#FEFFFF" transform="matrix(1.00, 0.00, -0.00, -1.00, 190.5, 38.3)">n</text><text xml:space="preserve" font-family="OpenSans-Light,Open Sans" font-size="50.0" fill="#FEFFFF" transform="matrix(1.00, 0.00, -0.00, -1.00, 220.0, 38.3)">t</text><text xml:space="preserve" font-family="OpenSans-Light,Open Sans" font-size="50.0" fill="#FEFFFF" transform="matrix(1.00, 0.00, -0.00, -1.00, 236.8, 38.3)">-</text><text xml:space="preserve" font-family="OpenSans-Light,Open Sans" font-size="50.0" fill="#FEFFFF" transform="matrix(1.00, 0.00, -0.00, -1.00, 252.9, 38.3)">e</text><text xml:space="preserve" font-family="OpenSans-Light,Open Sans" font-size="50.0" fill="#FEFFFF" transform="matrix(1.00, 0.00, -0.00, -1.00, 280.3, 38.3)">n</text><text xml:space="preserve" font-family="OpenSans-Light,Open Sans" font-size="50.0" fill="#FEFFFF" transform="matrix(1.00, 0.00, -0.00, -1.00, 309.8, 38.3)">d</text><g><clipPath id="clip0x6000012a7ec0"><path d="M 907.4 1017.2 L 1012.3 1017.2 L 1012.3 1122.2 L 907.4 1122.2 Z M 907.4 1017.2 "></path></clipPath><g clip-path="url(#clip0x6000012a7ec0)"><path d="M 996.2 1106.1 C 1016.3 1086.0 1016.3 1053.4 996.2 1033.3 C 976.1 1013.2 943.5 1013.2 923.4 1033.3 C 903.3 1053.4 903.3 1086.0 923.4 1106.1 C 943.5 1126.2 976.1 1126.2 996.2 1106.1 Z M 996.2 1106.1 " fill="#FEFFFE"></path></g></g><g><clipPath id="clip0x6000012a8160"><path d="M 908.4 1018.2 L 1011.3 1018.2 L 1011.3 1121.2 L 908.4 1121.2 Z M 908.4 1018.2 "></path></clipPath><g clip-path="url(#clip0x6000012a8160)"><text xml:space="preserve" font-family="Helvetica-Light,Helvetica" font-size="36.0" fill="#024336" transform="matrix(1.00, 0.00, -0.00, -1.00, 947.8, 1056.5)">B</text></g></g><g><clipPath id="clip0x6000012a8400"><path d="M 952.2 862.3 L 952.2 1007.5 L 967.4 1007.5 L 967.4 862.3 Z M 952.2 862.3 "></path></clipPath><g clip-path="url(#clip0x6000012a8400)"><path d="M 11.7 0.5 L 13.2 0.5 L 129.9 0.5 L 131.7 0.5 " fill="none" stroke="#FEFFFE" stroke-width="3.00" transform="matrix(0.00, 1.00, 1.00, 0.00, 959.8, 863.3)"></path><path d="M 966.9 993.6 L 960.3 1006.8 L 953.7 993.6 Z M 966.9 993.6 " fill="#FEFFFE"></path><path d="M 953.7 876.6 L 960.3 863.4 L 966.9 876.6 Z M 953.7 876.6 " fill="#FEFFFE"></path></g></g><g><clipPath id="clip0x6000012a8e20"><path d="M 1020.8 1038.7 L 1355.1 1038.7 L 1355.1 1100.1 L 1020.8 1100.1 Z M 1020.8 1038.7 "></path></clipPath><g clip-path="url(#clip0x6000012a8e20)"><text xml:space="preserve" font-family="OpenSans,Open Sans" font-size="30.0" fill="#FEFFFF" transform="matrix(1.00, 0.00, -0.00, -1.00, 1031.0, 1057.7)">M</text><text xml:space="preserve" font-family="OpenSans,Open Sans" font-size="30.0" fill="#FEFFFF" transform="matrix(1.00, 0.00, -0.00, -1.00, 1058.1, 1057.7)">a</text><text xml:space="preserve" font-family="OpenSans,Open Sans" font-size="30.0" fill="#FEFFFF" transform="matrix(1.00, 0.00, -0.00, -1.00, 1074.7, 1057.7)">i</text><text xml:space="preserve" font-family="OpenSans,Open Sans" font-size="30.0" fill="#FEFFFF" transform="matrix(1.00, 0.00, -0.00, -1.00, 1082.3, 1057.7)">n</text><text xml:space="preserve" font-family="OpenSans,Open Sans" font-size="30.0" fill="#FEFFFF" transform="matrix(1.00, 0.00, -0.00, -1.00, 1100.7, 1057.7)"> </text><text xml:space="preserve" font-family="OpenSans,Open Sans" font-size="30.0" fill="#FEFFFF" transform="matrix(1.00, 0.00, -0.00, -1.00, 1108.5, 1057.7)">E</text><text xml:space="preserve" font-family="OpenSans,Open Sans" font-size="30.0" fill="#FEFFFF" transform="matrix(1.00, 0.00, -0.00, -1.00, 1125.2, 1057.7)">x</text><text xml:space="preserve" font-family="OpenSans,Open Sans" font-size="30.0" fill="#FEFFFF" transform="matrix(1.00, 0.00, -0.00, -1.00, 1140.3, 1057.7)">c</text><text xml:space="preserve" font-family="OpenSans,Open Sans" font-size="30.0" fill="#FEFFFF" transform="matrix(1.00, 0.00, -0.00, -1.00, 1154.6, 1057.7)">h</text><text xml:space="preserve" font-family="OpenSans,Open Sans" font-size="30.0" fill="#FEFFFF" transform="matrix(1.00, 0.00, -0.00, -1.00, 1173.0, 1057.7)">a</text><text xml:space="preserve" font-family="OpenSans,Open Sans" font-size="30.0" fill="#FEFFFF" transform="matrix(1.00, 0.00, -0.00, -1.00, 1189.7, 1057.7)">n</text><text xml:space="preserve" font-family="OpenSans,Open Sans" font-size="30.0" fill="#FEFFFF" transform="matrix(1.00, 0.00, -0.00, -1.00, 1208.1, 1057.7)">g</text><text xml:space="preserve" font-family="OpenSans,Open Sans" font-size="30.0" fill="#FEFFFF" transform="matrix(1.00, 0.00, -0.00, -1.00, 1224.5, 1057.7)">e</text></g></g><g><clipPath id="clip0x6000012a94e0"><path d="M -1.0 895.1 L 1920.7 895.1 L 1920.7 887.1 L -1.0 887.1 Z M -1.0 895.1 "></path></clipPath><g clip-path="url(#clip0x6000012a94e0)"><path d="M -0.2 0.0 L 1919.8 0.0 " fill="none" stroke="#BC3124" stroke-width="6.00" stroke-dasharray="12.0, 12.0" transform="matrix(1.00, 0.00, 0.00, -1.00, 0.0, 891.1)"></path></g></g><g><clipPath id="clip0x6000012a9720"><path d="M 7.0 902.0 L 201.4 902.0 L 201.4 970.0 L 7.0 970.0 Z M 7.0 902.0 "></path></clipPath><g clip-path="url(#clip0x6000012a9720)"><text xml:space="preserve" font-family="Helvetica-Light,Helvetica" font-size="40.0" fill="#FEFFFF" transform="matrix(1.00, 0.00, -0.00, -1.00, 17.0, 921.2)">B</text><text xml:space="preserve" font-family="Helvetica-Light,Helvetica" font-size="40.0" fill="#FEFFFF" transform="matrix(1.00, 0.00, -0.00, -1.00, 43.7, 921.2)">a</text><text xml:space="preserve" font-family="Helvetica-Light,Helvetica" font-size="40.0" fill="#FEFFFF" transform="matrix(1.00, 0.00, -0.00, -1.00, 65.9, 921.2)">c</text><text xml:space="preserve" font-family="Helvetica-Light,Helvetica" font-size="40.0" fill="#FEFFFF" transform="matrix(1.00, 0.00, -0.00, -1.00, 88.2, 921.2)">k</text><text xml:space="preserve" font-family="Helvetica-Light,Helvetica" font-size="40.0" fill="#FEFFFF" transform="matrix(1.00, 0.00, -0.00, -1.00, 108.2, 921.2)">-</text><text xml:space="preserve" font-family="Helvetica-Light,Helvetica" font-size="40.0" fill="#FEFFFF" transform="matrix(1.00, 0.00, -0.00, -1.00, 121.5, 921.2)">e</text><text xml:space="preserve" font-family="Helvetica-Light,Helvetica" font-size="40.0" fill="#FEFFFF" transform="matrix(1.00, 0.00, -0.00, -1.00, 143.7, 921.2)">n</text><text xml:space="preserve" font-family="Helvetica-Light,Helvetica" font-size="40.0" fill="#FEFFFF" transform="matrix(1.00, 0.00, -0.00, -1.00, 166.0, 921.2)">d</text></g></g><g><clipPath id="clip0x6000012a9ba0"><path d="M 7.0 818.0 L 200.7 818.0 L 200.7 886.0 L 7.0 886.0 Z M 7.0 818.0 "></path></clipPath><g clip-path="url(#clip0x6000012a9ba0)"><text xml:space="preserve" font-family="Helvetica-Light,Helvetica" font-size="40.0" fill="#FEFFFF" transform="matrix(1.00, 0.00, -0.00, -1.00, 17.0, 837.2)">F</text><text xml:space="preserve" font-family="Helvetica-Light,Helvetica" font-size="40.0" fill="#FEFFFF" transform="matrix(1.00, 0.00, -0.00, -1.00, 39.2, 837.2)">r</text><text xml:space="preserve" font-family="Helvetica-Light,Helvetica" font-size="40.0" fill="#FEFFFF" transform="matrix(1.00, 0.00, -0.00, -1.00, 51.8, 837.2)">o</text><text xml:space="preserve" font-family="Helvetica-Light,Helvetica" font-size="40.0" fill="#FEFFFF" transform="matrix(1.00, 0.00, -0.00, -1.00, 74.1, 837.2)">n</text><text xml:space="preserve" font-family="Helvetica-Light,Helvetica" font-size="40.0" fill="#FEFFFF" transform="matrix(1.00, 0.00, -0.00, -1.00, 96.3, 837.2)">t</text><text xml:space="preserve" font-family="Helvetica-Light,Helvetica" font-size="40.0" fill="#FEFFFF" transform="matrix(1.00, 0.00, -0.00, -1.00, 107.4, 837.2)">-</text><text xml:space="preserve" font-family="Helvetica-Light,Helvetica" font-size="40.0" fill="#FEFFFF" transform="matrix(1.00, 0.00, -0.00, -1.00, 120.8, 837.2)">e</text><text xml:space="preserve" font-family="Helvetica-Light,Helvetica" font-size="40.0" fill="#FEFFFF" transform="matrix(1.00, 0.00, -0.00, -1.00, 143.0, 837.2)">n</text><text xml:space="preserve" font-family="Helvetica-Light,Helvetica" font-size="40.0" fill="#FEFFFF" transform="matrix(1.00, 0.00, -0.00, -1.00, 165.2, 837.2)">d</text></g></g><g><clipPath id="clip0x6000012aa0e0"><path d="M 908.8 650.5 L 1010.8 650.5 L 1010.8 752.5 L 908.8 752.5 Z M 908.8 650.5 "></path></clipPath><g clip-path="url(#clip0x6000012aa0e0)"><path d="M 995.2 736.9 C 1014.7 717.4 1014.7 685.7 995.2 666.2 C 975.7 646.7 944.0 646.7 924.5 666.2 C 905.0 685.7 905.0 717.4 924.5 736.9 C 944.0 756.4 975.7 756.4 995.2 736.9 Z M 995.2 736.9 " fill="#FEFFFE"></path></g></g><g><clipPath id="clip0x6000012aa320"><path d="M 909.8 651.5 L 1009.8 651.5 L 1009.8 751.5 L 909.8 751.5 Z M 909.8 651.5 "></path></clipPath><g clip-path="url(#clip0x6000012aa320)"><text xml:space="preserve" font-family="Helvetica-Light,Helvetica" font-size="36.0" fill="#024336" transform="matrix(1.00, 0.00, -0.00, -1.00, 947.8, 688.3)">B</text></g></g><g><clipPath id="clip0x6000012aa560"><path d="M 1015.0 670.8 L 1246.8 670.8 L 1246.8 732.3 L 1015.0 732.3 Z M 1015.0 670.8 "></path></clipPath><g clip-path="url(#clip0x6000012aa560)"><text xml:space="preserve" font-family="OpenSans,Open Sans" font-size="30.0" fill="#FEFFFF" transform="matrix(1.00, 0.00, -0.00, -1.00, 1025.7, 689.8)">M</text><text xml:space="preserve" font-family="OpenSans,Open Sans" font-size="30.0" fill="#FEFFFF" transform="matrix(1.00, 0.00, -0.00, -1.00, 1052.8, 689.8)">a</text><text xml:space="preserve" font-family="OpenSans,Open Sans" font-size="30.0" fill="#FEFFFF" transform="matrix(1.00, 0.00, -0.00, -1.00, 1069.4, 689.8)">i</text><text xml:space="preserve" font-family="OpenSans,Open Sans" font-size="30.0" fill="#FEFFFF" transform="matrix(1.00, 0.00, -0.00, -1.00, 1077.0, 689.8)">n</text><text xml:space="preserve" font-family="OpenSans,Open Sans" font-size="30.0" fill="#FEFFFF" transform="matrix(1.00, 0.00, -0.00, -1.00, 1095.4, 689.8)"> </text><text xml:space="preserve" font-family="OpenSans,Open Sans" font-size="30.0" fill="#FEFFFF" transform="matrix(1.00, 0.00, -0.00, -1.00, 1103.2, 689.8)">E</text><text xml:space="preserve" font-family="OpenSans,Open Sans" font-size="30.0" fill="#FEFFFF" transform="matrix(1.00, 0.00, -0.00, -1.00, 1119.9, 689.8)">x</text><text xml:space="preserve" font-family="OpenSans,Open Sans" font-size="30.0" fill="#FEFFFF" transform="matrix(1.00, 0.00, -0.00, -1.00, 1135.0, 689.8)">c</text><text xml:space="preserve" font-family="OpenSans,Open Sans" font-size="30.0" fill="#FEFFFF" transform="matrix(1.00, 0.00, -0.00, -1.00, 1149.3, 689.8)">h</text><text xml:space="preserve" font-family="OpenSans,Open Sans" font-size="30.0" fill="#FEFFFF" transform="matrix(1.00, 0.00, -0.00, -1.00, 1167.7, 689.8)">a</text><text xml:space="preserve" font-family="OpenSans,Open Sans" font-size="30.0" fill="#FEFFFF" transform="matrix(1.00, 0.00, -0.00, -1.00, 1184.4, 689.8)">n</text><text xml:space="preserve" font-family="OpenSans,Open Sans" font-size="30.0" fill="#FEFFFF" transform="matrix(1.00, 0.00, -0.00, -1.00, 1202.8, 689.8)">g</text><text xml:space="preserve" font-family="OpenSans,Open Sans" font-size="30.0" fill="#FEFFFF" transform="matrix(1.00, 0.00, -0.00, -1.00, 1219.2, 689.8)">e</text></g></g><g><clipPath id="clip0x6080012beae0"><path d="M 797.9 799.5 L 1121.8 799.5 L 1121.8 857.5 L 797.9 857.5 Z M 797.9 799.5 "></path></clipPath><g clip-path="url(#clip0x6080012beae0)"><path d="M 798.8 856.1 L 1120.8 856.1 L 1120.8 800.1 L 798.8 800.1 Z M 798.9 856.5 " fill="#FEFFFE"></path></g></g><g><clipPath id="clip0x6080012bed20"><path d="M 795.4 800.5 L 1124.3 800.5 L 1124.3 856.5 L 795.4 856.5 Z M 795.4 800.5 "></path></clipPath><g clip-path="url(#clip0x6080012bed20)"><text xml:space="preserve" font-family="Helvetica-Light,Helvetica" font-size="30.0" fill="#024336" transform="matrix(1.00, 0.00, -0.00, -1.00, 824.8, 817.4)">C</text><text xml:space="preserve" font-family="Helvetica-Light,Helvetica" font-size="30.0" fill="#024336" transform="matrix(1.00, 0.00, -0.00, -1.00, 846.4, 817.4)">o</text><text xml:space="preserve" font-family="Helvetica-Light,Helvetica" font-size="30.0" fill="#024336" transform="matrix(1.00, 0.00, -0.00, -1.00, 863.1, 817.4)">n</text><text xml:space="preserve" font-family="Helvetica-Light,Helvetica" font-size="30.0" fill="#024336" transform="matrix(1.00, 0.00, -0.00, -1.00, 879.8, 817.4)">n</text><text xml:space="preserve" font-family="Helvetica-Light,Helvetica" font-size="30.0" fill="#024336" transform="matrix(1.00, 0.00, -0.00, -1.00, 896.5, 817.4)">e</text><text xml:space="preserve" font-family="Helvetica-Light,Helvetica" font-size="30.0" fill="#024336" transform="matrix(1.00, 0.00, -0.00, -1.00, 913.2, 817.4)">c</text><text xml:space="preserve" font-family="Helvetica-Light,Helvetica" font-size="30.0" fill="#024336" transform="matrix(1.00, 0.00, -0.00, -1.00, 929.8, 817.4)">t</text><text xml:space="preserve" font-family="Helvetica-Light,Helvetica" font-size="30.0" fill="#024336" transform="matrix(1.00, 0.00, -0.00, -1.00, 938.2, 817.4)">i</text><text xml:space="preserve" font-family="Helvetica-Light,Helvetica" font-size="30.0" fill="#024336" transform="matrix(1.00, 0.00, -0.00, -1.00, 944.8, 817.4)">o</text><text xml:space="preserve" font-family="Helvetica-Light,Helvetica" font-size="30.0" fill="#024336" transform="matrix(1.00, 0.00, -0.00, -1.00, 961.5, 817.4)">n</text><text xml:space="preserve" font-family="Helvetica-Light,Helvetica" font-size="30.0" fill="#024336" transform="matrix(1.00, 0.00, -0.00, -1.00, 978.2, 817.4)"> </text><text xml:space="preserve" font-family="Helvetica-Light,Helvetica" font-size="30.0" fill="#024336" transform="matrix(1.00, 0.00, -0.00, -1.00, 986.5, 817.4)">A</text><text xml:space="preserve" font-family="Helvetica-Light,Helvetica" font-size="30.0" fill="#024336" transform="matrix(1.00, 0.00, -0.00, -1.00, 1006.5, 817.4)">d</text><text xml:space="preserve" font-family="Helvetica-Light,Helvetica" font-size="30.0" fill="#024336" transform="matrix(1.00, 0.00, -0.00, -1.00, 1024.9, 817.4)">a</text><text xml:space="preserve" font-family="Helvetica-Light,Helvetica" font-size="30.0" fill="#024336" transform="matrix(1.00, 0.00, -0.00, -1.00, 1041.6, 817.4)">p</text><text xml:space="preserve" font-family="Helvetica-Light,Helvetica" font-size="30.0" fill="#024336" transform="matrix(1.00, 0.00, -0.00, -1.00, 1059.9, 817.4)">t</text><text xml:space="preserve" font-family="Helvetica-Light,Helvetica" font-size="30.0" fill="#024336" transform="matrix(1.00, 0.00, -0.00, -1.00, 1068.2, 817.4)">e</text><text xml:space="preserve" font-family="Helvetica-Light,Helvetica" font-size="30.0" fill="#024336" transform="matrix(1.00, 0.00, -0.00, -1.00, 1084.9, 817.4)">r</text></g></g><g><clipPath id="clip0x6080012bf5c0"><path d="M 716.1 549.3 L 959.9 549.3 L 959.9 607.2 L 716.1 607.2 Z M 716.1 549.3 "></path></clipPath><g clip-path="url(#clip0x6080012bf5c0)"><path d="M 236.1 0.1 C 88.6 -1.0 9.9 12.5 0.6 40.7 L 0.6 42.6 " fill="none" stroke="#FEFFFE" stroke-width="3.00" stroke-dasharray="6.0, 6.0" transform="matrix(1.00, 0.00, 0.00, -1.00, 722.8, 604.7)"></path><path d="M 716.7 563.4 L 723.6 550.4 L 729.9 563.7 Z M 716.7 563.4 " fill="#FEFFFE"></path></g></g><g><clipPath id="clip0x6080012bf800"><path d="M 967.4 648.9 L 967.4 602.1 L 952.2 602.1 L 952.2 648.9 Z M 967.4 648.9 "></path></clipPath><g clip-path="url(#clip0x6080012bf800)"><path d="M 11.8 -0.5 L 13.2 -0.5 L 44.8 -0.5 " fill="none" stroke="#FEFFFE" stroke-width="3.00" stroke-dasharray="6.0, 6.0" transform="matrix(0.00, -1.00, -1.00, 0.00, 959.8, 647.9)"></path><path d="M 966.9 634.6 L 960.3 647.8 L 953.7 634.6 Z M 966.9 634.6 " fill="#FEFFFE"></path></g></g><g><clipPath id="clip0x6080012bfb00"><path d="M 952.2 753.2 L 952.2 799.5 L 967.4 799.5 L 967.4 753.2 Z M 952.2 753.2 "></path></clipPath><g clip-path="url(#clip0x6080012bfb00)"><path d="M 11.9 0.5 L 13.2 0.5 L 31.1 0.5 L 32.9 0.5 " fill="none" stroke="#FEFFFE" stroke-width="3.00" transform="matrix(0.00, 1.00, 1.00, 0.00, 959.8, 754.2)"></path><path d="M 966.9 785.6 L 960.3 798.8 L 953.7 785.6 Z M 966.9 785.6 " fill="#FEFFFE"></path><path d="M 953.7 767.6 L 960.3 754.4 L 966.9 767.6 Z M 953.7 767.6 " fill="#FEFFFE"></path></g></g><g><clipPath id="clip0x6080012bfe60"><path d="M 976.5 946.4 L 1665.0 946.4 L 1665.0 988.5 L 976.5 988.5 Z M 976.5 946.4 "></path></clipPath><g clip-path="url(#clip0x6080012bfe60)"><text xml:space="preserve" font-family="AndaleMono,Andale Mono" font-size="25.0" fill="#FEFFFF" transform="matrix(1.00, 0.00, -0.00, -1.00, 983.5, 958.9)">v</text><text xml:space="preserve" font-family="AndaleMono,Andale Mono" font-size="25.0" fill="#FEFFFF" transform="matrix(1.00, 0.00, -0.00, -1.00, 998.5, 958.9)">1</text><text xml:space="preserve" font-family="AndaleMono,Andale Mono" font-size="25.0" fill="#FEFFFF" transform="matrix(1.00, 0.00, -0.00, -1.00, 1013.5, 958.9)">.</text><text xml:space="preserve" font-family="AndaleMono,Andale Mono" font-size="25.0" fill="#FEFFFF" transform="matrix(1.00, 0.00, -0.00, -1.00, 1028.5, 958.9)">u</text><text xml:space="preserve" font-family="AndaleMono,Andale Mono" font-size="25.0" fill="#FEFFFF" transform="matrix(1.00, 0.00, -0.00, -1.00, 1043.5, 958.9)">s</text><text xml:space="preserve" font-family="AndaleMono,Andale Mono" font-size="25.0" fill="#FEFFFF" transform="matrix(1.00, 0.00, -0.00, -1.00, 1058.5, 958.9)">e</text><text xml:space="preserve" font-family="AndaleMono,Andale Mono" font-size="25.0" fill="#FEFFFF" transform="matrix(1.00, 0.00, -0.00, -1.00, 1073.5, 958.9)">r</text><text xml:space="preserve" font-family="AndaleMono,Andale Mono" font-size="25.0" fill="#FEFFFF" transform="matrix(1.00, 0.00, -0.00, -1.00, 1088.5, 958.9)">.</text><text xml:space="preserve" font-family="AndaleMono,Andale Mono" font-size="25.0" fill="#FEFFFF" transform="matrix(1.00, 0.00, -0.00, -1.00, 1103.5, 958.9)">f</text><text xml:space="preserve" font-family="AndaleMono,Andale Mono" font-size="25.0" fill="#FEFFFF" transform="matrix(1.00, 0.00, -0.00, -1.00, 1118.6, 958.9)">6</text><text xml:space="preserve" font-family="AndaleMono,Andale Mono" font-size="25.0" fill="#FEFFFF" transform="matrix(1.00, 0.00, -0.00, -1.00, 1133.6, 958.9)">7</text><text xml:space="preserve" font-family="AndaleMono,Andale Mono" font-size="25.0" fill="#FEFFFF" transform="matrix(1.00, 0.00, -0.00, -1.00, 1148.6, 958.9)">a</text><text xml:space="preserve" font-family="AndaleMono,Andale Mono" font-size="25.0" fill="#FEFFFF" transform="matrix(1.00, 0.00, -0.00, -1.00, 1163.6, 958.9)">5</text><text xml:space="preserve" font-family="AndaleMono,Andale Mono" font-size="25.0" fill="#FEFFFF" transform="matrix(1.00, 0.00, -0.00, -1.00, 1178.6, 958.9)">c</text><text xml:space="preserve" font-family="AndaleMono,Andale Mono" font-size="25.0" fill="#FEFFFF" transform="matrix(1.00, 0.00, -0.00, -1.00, 1193.6, 958.9)">a</text><text xml:space="preserve" font-family="AndaleMono,Andale Mono" font-size="25.0" fill="#FEFFFF" transform="matrix(1.00, 0.00, -0.00, -1.00, 1208.6, 958.9)">d</text><text xml:space="preserve" font-family="AndaleMono,Andale Mono" font-size="25.0" fill="#FEFFFF" transform="matrix(1.00, 0.00, -0.00, -1.00, 1223.6, 958.9)">0</text><text xml:space="preserve" font-family="AndaleMono,Andale Mono" font-size="25.0" fill="#FEFFFF" transform="matrix(1.00, 0.00, -0.00, -1.00, 1238.6, 958.9)">2</text><text xml:space="preserve" font-family="AndaleMono,Andale Mono" font-size="25.0" fill="#FEFFFF" transform="matrix(1.00, 0.00, -0.00, -1.00, 1253.6, 958.9)">e</text><text xml:space="preserve" font-family="AndaleMono,Andale Mono" font-size="25.0" fill="#FEFFFF" transform="matrix(1.00, 0.00, -0.00, -1.00, 1268.6, 958.9)">e</text><text xml:space="preserve" font-family="AndaleMono,Andale Mono" font-size="25.0" fill="#FEFFFF" transform="matrix(1.00, 0.00, -0.00, -1.00, 1283.6, 958.9)">4</text><text xml:space="preserve" font-family="AndaleMono,Andale Mono" font-size="25.0" fill="#FEFFFF" transform="matrix(1.00, 0.00, -0.00, -1.00, 1298.6, 958.9)">.</text><text xml:space="preserve" font-family="AndaleMono,Andale Mono" font-size="25.0" fill="#FEFFFF" transform="matrix(1.00, 0.00, -0.00, -1.00, 1313.6, 958.9)">m</text><text xml:space="preserve" font-family="AndaleMono,Andale Mono" font-size="25.0" fill="#FEFFFF" transform="matrix(1.00, 0.00, -0.00, -1.00, 1328.6, 958.9)">e</text><text xml:space="preserve" font-family="AndaleMono,Andale Mono" font-size="25.0" fill="#FEFFFF" transform="matrix(1.00, 0.00, -0.00, -1.00, 1343.6, 958.9)">s</text><text xml:space="preserve" font-family="AndaleMono,Andale Mono" font-size="25.0" fill="#FEFFFF" transform="matrix(1.00, 0.00, -0.00, -1.00, 1358.6, 958.9)">s</text><text xml:space="preserve" font-family="AndaleMono,Andale Mono" font-size="25.0" fill="#FEFFFF" transform="matrix(1.00, 0.00, -0.00, -1.00, 1373.6, 958.9)">a</text><text xml:space="preserve" font-family="AndaleMono,Andale Mono" font-size="25.0" fill="#FEFFFF" transform="matrix(1.00, 0.00, -0.00, -1.00, 1388.6, 958.9)">g</text><text xml:space="preserve" font-family="AndaleMono,Andale Mono" font-size="25.0" fill="#FEFFFF" transform="matrix(1.00, 0.00, -0.00, -1.00, 1403.6, 958.9)">e</text></g></g><g><clipPath id="clip0x6080014a0b40"><path d="M 976.5 912.4 L 1665.0 912.4 L 1665.0 954.5 L 976.5 954.5 Z M 976.5 912.4 "></path></clipPath><g clip-path="url(#clip0x6080014a0b40)"><text xml:space="preserve" font-family="AndaleMono,Andale Mono" font-size="25.0" fill="#FEFFFF" transform="matrix(1.00, 0.00, -0.00, -1.00, 983.5, 924.9)">v</text><text xml:space="preserve" font-family="AndaleMono,Andale Mono" font-size="25.0" fill="#FEFFFF" transform="matrix(1.00, 0.00, -0.00, -1.00, 998.5, 924.9)">1</text><text xml:space="preserve" font-family="AndaleMono,Andale Mono" font-size="25.0" fill="#FEFFFF" transform="matrix(1.00, 0.00, -0.00, -1.00, 1013.5, 924.9)">.</text><text xml:space="preserve" font-family="AndaleMono,Andale Mono" font-size="25.0" fill="#FEFFFF" transform="matrix(1.00, 0.00, -0.00, -1.00, 1028.5, 924.9)">u</text><text xml:space="preserve" font-family="AndaleMono,Andale Mono" font-size="25.0" fill="#FEFFFF" transform="matrix(1.00, 0.00, -0.00, -1.00, 1043.5, 924.9)">s</text><text xml:space="preserve" font-family="AndaleMono,Andale Mono" font-size="25.0" fill="#FEFFFF" transform="matrix(1.00, 0.00, -0.00, -1.00, 1058.5, 924.9)">e</text><text xml:space="preserve" font-family="AndaleMono,Andale Mono" font-size="25.0" fill="#FEFFFF" transform="matrix(1.00, 0.00, -0.00, -1.00, 1073.5, 924.9)">r</text><text xml:space="preserve" font-family="AndaleMono,Andale Mono" font-size="25.0" fill="#FEFFFF" transform="matrix(1.00, 0.00, -0.00, -1.00, 1088.5, 924.9)">.</text><text xml:space="preserve" font-family="AndaleMono,Andale Mono" font-size="25.0" fill="#FEFFFF" transform="matrix(1.00, 0.00, -0.00, -1.00, 1103.5, 924.9)">f</text><text xml:space="preserve" font-family="AndaleMono,Andale Mono" font-size="25.0" fill="#FEFFFF" transform="matrix(1.00, 0.00, -0.00, -1.00, 1118.6, 924.9)">6</text><text xml:space="preserve" font-family="AndaleMono,Andale Mono" font-size="25.0" fill="#FEFFFF" transform="matrix(1.00, 0.00, -0.00, -1.00, 1133.6, 924.9)">7</text><text xml:space="preserve" font-family="AndaleMono,Andale Mono" font-size="25.0" fill="#FEFFFF" transform="matrix(1.00, 0.00, -0.00, -1.00, 1148.6, 924.9)">a</text><text xml:space="preserve" font-family="AndaleMono,Andale Mono" font-size="25.0" fill="#FEFFFF" transform="matrix(1.00, 0.00, -0.00, -1.00, 1163.6, 924.9)">5</text><text xml:space="preserve" font-family="AndaleMono,Andale Mono" font-size="25.0" fill="#FEFFFF" transform="matrix(1.00, 0.00, -0.00, -1.00, 1178.6, 924.9)">c</text><text xml:space="preserve" font-family="AndaleMono,Andale Mono" font-size="25.0" fill="#FEFFFF" transform="matrix(1.00, 0.00, -0.00, -1.00, 1193.6, 924.9)">a</text><text xml:space="preserve" font-family="AndaleMono,Andale Mono" font-size="25.0" fill="#FEFFFF" transform="matrix(1.00, 0.00, -0.00, -1.00, 1208.6, 924.9)">d</text><text xml:space="preserve" font-family="AndaleMono,Andale Mono" font-size="25.0" fill="#FEFFFF" transform="matrix(1.00, 0.00, -0.00, -1.00, 1223.6, 924.9)">0</text><text xml:space="preserve" font-family="AndaleMono,Andale Mono" font-size="25.0" fill="#FEFFFF" transform="matrix(1.00, 0.00, -0.00, -1.00, 1238.6, 924.9)">2</text><text xml:space="preserve" font-family="AndaleMono,Andale Mono" font-size="25.0" fill="#FEFFFF" transform="matrix(1.00, 0.00, -0.00, -1.00, 1253.6, 924.9)">e</text><text xml:space="preserve" font-family="AndaleMono,Andale Mono" font-size="25.0" fill="#FEFFFF" transform="matrix(1.00, 0.00, -0.00, -1.00, 1268.6, 924.9)">e</text><text xml:space="preserve" font-family="AndaleMono,Andale Mono" font-size="25.0" fill="#FEFFFF" transform="matrix(1.00, 0.00, -0.00, -1.00, 1283.6, 924.9)">4</text><text xml:space="preserve" font-family="AndaleMono,Andale Mono" font-size="25.0" fill="#FEFFFF" transform="matrix(1.00, 0.00, -0.00, -1.00, 1298.6, 924.9)">.</text><text xml:space="preserve" font-family="AndaleMono,Andale Mono" font-size="25.0" fill="#FEFFFF" transform="matrix(1.00, 0.00, -0.00, -1.00, 1313.6, 924.9)">n</text><text xml:space="preserve" font-family="AndaleMono,Andale Mono" font-size="25.0" fill="#FEFFFF" transform="matrix(1.00, 0.00, -0.00, -1.00, 1328.6, 924.9)">o</text><text xml:space="preserve" font-family="AndaleMono,Andale Mono" font-size="25.0" fill="#FEFFFF" transform="matrix(1.00, 0.00, -0.00, -1.00, 1343.6, 924.9)">t</text><text xml:space="preserve" font-family="AndaleMono,Andale Mono" font-size="25.0" fill="#FEFFFF" transform="matrix(1.00, 0.00, -0.00, -1.00, 1358.6, 924.9)">i</text><text xml:space="preserve" font-family="AndaleMono,Andale Mono" font-size="25.0" fill="#FEFFFF" transform="matrix(1.00, 0.00, -0.00, -1.00, 1373.6, 924.9)">f</text><text xml:space="preserve" font-family="AndaleMono,Andale Mono" font-size="25.0" fill="#FEFFFF" transform="matrix(1.00, 0.00, -0.00, -1.00, 1388.6, 924.9)">i</text><text xml:space="preserve" font-family="AndaleMono,Andale Mono" font-size="25.0" fill="#FEFFFF" transform="matrix(1.00, 0.00, -0.00, -1.00, 1403.6, 924.9)">c</text><text xml:space="preserve" font-family="AndaleMono,Andale Mono" font-size="25.0" fill="#FEFFFF" transform="matrix(1.00, 0.00, -0.00, -1.00, 1418.7, 924.9)">a</text><text xml:space="preserve" font-family="AndaleMono,Andale Mono" font-size="25.0" fill="#FEFFFF" transform="matrix(1.00, 0.00, -0.00, -1.00, 1433.7, 924.9)">t</text><text xml:space="preserve" font-family="AndaleMono,Andale Mono" font-size="25.0" fill="#FEFFFF" transform="matrix(1.00, 0.00, -0.00, -1.00, 1448.7, 924.9)">i</text><text xml:space="preserve" font-family="AndaleMono,Andale Mono" font-size="25.0" fill="#FEFFFF" transform="matrix(1.00, 0.00, -0.00, -1.00, 1463.7, 924.9)">o</text><text xml:space="preserve" font-family="AndaleMono,Andale Mono" font-size="25.0" fill="#FEFFFF" transform="matrix(1.00, 0.00, -0.00, -1.00, 1478.7, 924.9)">n</text></g></g><g><clipPath id="clip0x6000012ab460"><path d="M 961.8 549.3 L 1205.5 549.3 L 1205.5 607.2 L 961.8 607.2 Z M 961.8 549.3 "></path></clipPath><g clip-path="url(#clip0x6000012ab460)"><path d="M 0.0 0.1 C 147.5 -1.0 226.3 12.5 235.6 40.7 L 235.6 42.6 " fill="none" stroke="#FEFFFE" stroke-width="3.00" stroke-dasharray="6.0, 6.0" transform="matrix(1.00, 0.00, 0.00, -1.00, 962.8, 604.7)"></path><path d="M 1191.8 563.7 L 1198.0 550.4 L 1205.0 563.4 Z M 1191.8 563.7 " fill="#FEFFFE"></path></g></g><g><clipPath id="clip0x6000012ab760"><path d="M 612.7 438.3 L 824.9 438.3 L 824.9 543.2 L 612.7 543.2 Z M 612.7 438.3 "></path></clipPath><g clip-path="url(#clip0x6000012ab760)"><path d="M 613.8 542.1 L 823.8 542.1 L 823.8 439.1 L 613.8 439.1 Z M 613.7 542.2 " fill="#FEFFFE"></path></g></g><g><clipPath id="clip0x6080014a12c0"><path d="M 610.2 439.3 L 827.4 439.3 L 827.4 542.2 L 610.2 542.2 Z M 610.2 439.3 "></path></clipPath><g clip-path="url(#clip0x6080014a12c0)"><text xml:space="preserve" font-family="Helvetica-Light,Helvetica" font-size="30.0" fill="#024336" transform="matrix(1.00, 0.00, -0.00, -1.00, 649.6, 497.1)">M</text><text xml:space="preserve" font-family="Helvetica-Light,Helvetica" font-size="30.0" fill="#024336" transform="matrix(1.00, 0.00, -0.00, -1.00, 674.6, 497.1)">e</text><text xml:space="preserve" font-family="Helvetica-Light,Helvetica" font-size="30.0" fill="#024336" transform="matrix(1.00, 0.00, -0.00, -1.00, 691.3, 497.1)">s</text><text xml:space="preserve" font-family="Helvetica-Light,Helvetica" font-size="30.0" fill="#024336" transform="matrix(1.00, 0.00, -0.00, -1.00, 706.3, 497.1)">s</text><text xml:space="preserve" font-family="Helvetica-Light,Helvetica" font-size="30.0" fill="#024336" transform="matrix(1.00, 0.00, -0.00, -1.00, 721.3, 497.1)">a</text><text xml:space="preserve" font-family="Helvetica-Light,Helvetica" font-size="30.0" fill="#024336" transform="matrix(1.00, 0.00, -0.00, -1.00, 738.0, 497.1)">g</text><text xml:space="preserve" font-family="Helvetica-Light,Helvetica" font-size="30.0" fill="#024336" transform="matrix(1.00, 0.00, -0.00, -1.00, 756.3, 497.1)">e</text><text xml:space="preserve" font-family="Helvetica-Light,Helvetica" font-size="30.0" fill="#024336" transform="matrix(1.00, 0.00, -0.00, -1.00, 773.0, 497.1)">s</text><text xml:space="preserve" font-family="Helvetica-Light,Helvetica" font-size="30.0" fill="#024336" transform="matrix(1.00, 0.00, -0.00, -1.00, 788.0, 497.1)"> </text><text xml:space="preserve" font-family="Helvetica-Light,Helvetica" font-size="30.0" fill="#024336" transform="matrix(1.00, 0.00, -0.00, -1.00, 665.5, 461.1)">H</text><text xml:space="preserve" font-family="Helvetica-Light,Helvetica" font-size="30.0" fill="#024336" transform="matrix(1.00, 0.00, -0.00, -1.00, 687.1, 461.1)">a</text><text xml:space="preserve" font-family="Helvetica-Light,Helvetica" font-size="30.0" fill="#024336" transform="matrix(1.00, 0.00, -0.00, -1.00, 703.8, 461.1)">n</text><text xml:space="preserve" font-family="Helvetica-Light,Helvetica" font-size="30.0" fill="#024336" transform="matrix(1.00, 0.00, -0.00, -1.00, 720.5, 461.1)">d</text><text xml:space="preserve" font-family="Helvetica-Light,Helvetica" font-size="30.0" fill="#024336" transform="matrix(1.00, 0.00, -0.00, -1.00, 738.8, 461.1)">l</text><text xml:space="preserve" font-family="Helvetica-Light,Helvetica" font-size="30.0" fill="#024336" transform="matrix(1.00, 0.00, -0.00, -1.00, 745.5, 461.1)">e</text><text xml:space="preserve" font-family="Helvetica-Light,Helvetica" font-size="30.0" fill="#024336" transform="matrix(1.00, 0.00, -0.00, -1.00, 762.2, 461.1)">r</text></g></g><g><clipPath id="clip0x6080014a1aa0"><path d="M 1081.9 438.3 L 1294.0 438.3 L 1294.0 543.2 L 1081.9 543.2 Z M 1081.9 438.3 "></path></clipPath><g clip-path="url(#clip0x6080014a1aa0)"><path d="M 1082.8 542.1 L 1292.8 542.1 L 1292.8 439.1 L 1082.8 439.1 Z M 1082.9 542.2 " fill="#FEFFFE"></path></g></g><g><clipPath id="clip0x6080014a1ce0"><path d="M 1079.4 439.3 L 1296.5 439.3 L 1296.5 542.2 L 1079.4 542.2 Z M 1079.4 439.3 "></path></clipPath><g clip-path="url(#clip0x6080014a1ce0)"><text xml:space="preserve" font-family="Helvetica-Light,Helvetica" font-size="30.0" fill="#024336" transform="matrix(1.00, 0.00, -0.00, -1.00, 1105.4, 497.1)">N</text><text xml:space="preserve" font-family="Helvetica-Light,Helvetica" font-size="30.0" fill="#024336" transform="matrix(1.00, 0.00, -0.00, -1.00, 1127.1, 497.1)">o</text><text xml:space="preserve" font-family="Helvetica-Light,Helvetica" font-size="30.0" fill="#024336" transform="matrix(1.00, 0.00, -0.00, -1.00, 1143.7, 497.1)">t</text><text xml:space="preserve" font-family="Helvetica-Light,Helvetica" font-size="30.0" fill="#024336" transform="matrix(1.00, 0.00, -0.00, -1.00, 1152.1, 497.1)">i</text><text xml:space="preserve" font-family="Helvetica-Light,Helvetica" font-size="30.0" fill="#024336" transform="matrix(1.00, 0.00, -0.00, -1.00, 1158.7, 497.1)">ﬁ</text><text xml:space="preserve" font-family="Helvetica-Light,Helvetica" font-size="30.0" fill="#024336" transform="matrix(1.00, 0.00, -0.00, -1.00, 1173.7, 497.1)">c</text><text xml:space="preserve" font-family="Helvetica-Light,Helvetica" font-size="30.0" fill="#024336" transform="matrix(1.00, 0.00, -0.00, -1.00, 1190.4, 497.1)">a</text><text xml:space="preserve" font-family="Helvetica-Light,Helvetica" font-size="30.0" fill="#024336" transform="matrix(1.00, 0.00, -0.00, -1.00, 1207.1, 497.1)">t</text><text xml:space="preserve" font-family="Helvetica-Light,Helvetica" font-size="30.0" fill="#024336" transform="matrix(1.00, 0.00, -0.00, -1.00, 1215.4, 497.1)">i</text><text xml:space="preserve" font-family="Helvetica-Light,Helvetica" font-size="30.0" fill="#024336" transform="matrix(1.00, 0.00, -0.00, -1.00, 1222.1, 497.1)">o</text><text xml:space="preserve" font-family="Helvetica-Light,Helvetica" font-size="30.0" fill="#024336" transform="matrix(1.00, 0.00, -0.00, -1.00, 1238.8, 497.1)">n</text><text xml:space="preserve" font-family="Helvetica-Light,Helvetica" font-size="30.0" fill="#024336" transform="matrix(1.00, 0.00, -0.00, -1.00, 1255.5, 497.1)">s</text><text xml:space="preserve" font-family="Helvetica-Light,Helvetica" font-size="30.0" fill="#024336" transform="matrix(1.00, 0.00, -0.00, -1.00, 1270.5, 497.1)"> </text><text xml:space="preserve" font-family="Helvetica-Light,Helvetica" font-size="30.0" fill="#024336" transform="matrix(1.00, 0.00, -0.00, -1.00, 1134.6, 461.1)">H</text><text xml:space="preserve" font-family="Helvetica-Light,Helvetica" font-size="30.0" fill="#024336" transform="matrix(1.00, 0.00, -0.00, -1.00, 1156.3, 461.1)">a</text><text xml:space="preserve" font-family="Helvetica-Light,Helvetica" font-size="30.0" fill="#024336" transform="matrix(1.00, 0.00, -0.00, -1.00, 1172.9, 461.1)">n</text><text xml:space="preserve" font-family="Helvetica-Light,Helvetica" font-size="30.0" fill="#024336" transform="matrix(1.00, 0.00, -0.00, -1.00, 1189.6, 461.1)">d</text><text xml:space="preserve" font-family="Helvetica-Light,Helvetica" font-size="30.0" fill="#024336" transform="matrix(1.00, 0.00, -0.00, -1.00, 1207.9, 461.1)">l</text><text xml:space="preserve" font-family="Helvetica-Light,Helvetica" font-size="30.0" fill="#024336" transform="matrix(1.00, 0.00, -0.00, -1.00, 1214.6, 461.1)">e</text><text xml:space="preserve" font-family="Helvetica-Light,Helvetica" font-size="30.0" fill="#024336" transform="matrix(1.00, 0.00, -0.00, -1.00, 1231.3, 461.1)">r</text></g></g><g><clipPath id="clip0x6080014a2640"><path d="M 1132.7 798.8 L 1686.3 798.8 L 1686.3 860.3 L 1132.7 860.3 Z M 1132.7 798.8 "></path></clipPath><g clip-path="url(#clip0x6080014a2640)"><text xml:space="preserve" font-family="OpenSans,Open Sans" font-size="30.0" fill="#FEFFFF" transform="matrix(1.00, 0.00, -0.00, -1.00, 1142.9, 817.8)">S</text><text xml:space="preserve" font-family="OpenSans,Open Sans" font-size="30.0" fill="#FEFFFF" transform="matrix(1.00, 0.00, -0.00, -1.00, 1159.3, 817.8)">T</text><text xml:space="preserve" font-family="OpenSans,Open Sans" font-size="30.0" fill="#FEFFFF" transform="matrix(1.00, 0.00, -0.00, -1.00, 1175.3, 817.8)">O</text><text xml:space="preserve" font-family="OpenSans,Open Sans" font-size="30.0" fill="#FEFFFF" transform="matrix(1.00, 0.00, -0.00, -1.00, 1198.7, 817.8)">M</text><text xml:space="preserve" font-family="OpenSans,Open Sans" font-size="30.0" fill="#FEFFFF" transform="matrix(1.00, 0.00, -0.00, -1.00, 1225.8, 817.8)">P</text><text xml:space="preserve" font-family="OpenSans,Open Sans" font-size="30.0" fill="#FEFFFF" transform="matrix(1.00, 0.00, -0.00, -1.00, 1240.0, 817.8)">,</text><text xml:space="preserve" font-family="OpenSans,Open Sans" font-size="30.0" fill="#FEFFFF" transform="matrix(1.00, 0.00, -0.00, -1.00, 1247.3, 817.8)"> </text><text xml:space="preserve" font-family="OpenSans,Open Sans" font-size="30.0" fill="#FEFFFF" transform="matrix(1.00, 0.00, -0.00, -1.00, 1255.1, 817.8)">M</text><text xml:space="preserve" font-family="OpenSans,Open Sans" font-size="30.0" fill="#FEFFFF" transform="matrix(1.00, 0.00, -0.00, -1.00, 1282.2, 817.8)">Q</text><text xml:space="preserve" font-family="OpenSans,Open Sans" font-size="30.0" fill="#FEFFFF" transform="matrix(1.00, 0.00, -0.00, -1.00, 1304.6, 817.8)">T</text><text xml:space="preserve" font-family="OpenSans,Open Sans" font-size="30.0" fill="#FEFFFF" transform="matrix(1.00, 0.00, -0.00, -1.00, 1321.8, 817.8)">T</text><text xml:space="preserve" font-family="OpenSans,Open Sans" font-size="30.0" fill="#FEFFFF" transform="matrix(1.00, 0.00, -0.00, -1.00, 1336.6, 817.8)">,</text><text xml:space="preserve" font-family="OpenSans,Open Sans" font-size="30.0" fill="#FEFFFF" transform="matrix(1.00, 0.00, -0.00, -1.00, 1344.0, 817.8)"> </text><text xml:space="preserve" font-family="OpenSans,Open Sans" font-size="30.0" fill="#FEFFFF" transform="matrix(1.00, 0.00, -0.00, -1.00, 1351.8, 817.8)">C</text><text xml:space="preserve" font-family="OpenSans,Open Sans" font-size="30.0" fill="#FEFFFF" transform="matrix(1.00, 0.00, -0.00, -1.00, 1370.7, 817.8)">u</text><text xml:space="preserve" font-family="OpenSans,Open Sans" font-size="30.0" fill="#FEFFFF" transform="matrix(1.00, 0.00, -0.00, -1.00, 1389.1, 817.8)">s</text><text xml:space="preserve" font-family="OpenSans,Open Sans" font-size="30.0" fill="#FEFFFF" transform="matrix(1.00, 0.00, -0.00, -1.00, 1403.4, 817.8)">t</text><text xml:space="preserve" font-family="OpenSans,Open Sans" font-size="30.0" fill="#FEFFFF" transform="matrix(1.00, 0.00, -0.00, -1.00, 1414.0, 817.8)">o</text><text xml:space="preserve" font-family="OpenSans,Open Sans" font-size="30.0" fill="#FEFFFF" transform="matrix(1.00, 0.00, -0.00, -1.00, 1432.1, 817.8)">m</text><text xml:space="preserve" font-family="OpenSans,Open Sans" font-size="30.0" fill="#FEFFFF" transform="matrix(1.00, 0.00, -0.00, -1.00, 1460.1, 817.8)"> </text><text xml:space="preserve" font-family="OpenSans,Open Sans" font-size="30.0" fill="#FEFFFF" transform="matrix(1.00, 0.00, -0.00, -1.00, 1467.8, 817.8)">W</text><text xml:space="preserve" font-family="OpenSans,Open Sans" font-size="30.0" fill="#FEFFFF" transform="matrix(1.00, 0.00, -0.00, -1.00, 1495.6, 817.8)">S</text><text xml:space="preserve" font-family="OpenSans,Open Sans" font-size="30.0" fill="#FEFFFF" transform="matrix(1.00, 0.00, -0.00, -1.00, 1512.1, 817.8)"> </text><text xml:space="preserve" font-family="OpenSans,Open Sans" font-size="30.0" fill="#FEFFFF" transform="matrix(1.00, 0.00, -0.00, -1.00, 1519.9, 817.8)">P</text><text xml:space="preserve" font-family="OpenSans,Open Sans" font-size="30.0" fill="#FEFFFF" transform="matrix(1.00, 0.00, -0.00, -1.00, 1537.9, 817.8)">r</text><text xml:space="preserve" font-family="OpenSans,Open Sans" font-size="30.0" fill="#FEFFFF" transform="matrix(1.00, 0.00, -0.00, -1.00, 1549.6, 817.8)">o</text><text xml:space="preserve" font-family="OpenSans,Open Sans" font-size="30.0" fill="#FEFFFF" transform="matrix(1.00, 0.00, -0.00, -1.00, 1567.7, 817.8)">t</text><text xml:space="preserve" font-family="OpenSans,Open Sans" font-size="30.0" fill="#FEFFFF" transform="matrix(1.00, 0.00, -0.00, -1.00, 1578.3, 817.8)">o</text><text xml:space="preserve" font-family="OpenSans,Open Sans" font-size="30.0" fill="#FEFFFF" transform="matrix(1.00, 0.00, -0.00, -1.00, 1596.4, 817.8)">c</text><text xml:space="preserve" font-family="OpenSans,Open Sans" font-size="30.0" fill="#FEFFFF" transform="matrix(1.00, 0.00, -0.00, -1.00, 1610.7, 817.8)">o</text><text xml:space="preserve" font-family="OpenSans,Open Sans" font-size="30.0" fill="#FEFFFF" transform="matrix(1.00, 0.00, -0.00, -1.00, 1628.8, 817.8)">l</text><text xml:space="preserve" font-family="OpenSans,Open Sans" font-size="30.0" fill="#FEFFFF" transform="matrix(1.00, 0.00, -0.00, -1.00, 1636.4, 817.8)">,</text><text xml:space="preserve" font-family="OpenSans,Open Sans" font-size="30.0" fill="#FEFFFF" transform="matrix(1.00, 0.00, -0.00, -1.00, 1643.7, 817.8)"> </text><text xml:space="preserve" font-family="OpenSans,Open Sans" font-size="30.0" fill="#FEFFFF" transform="matrix(1.00, 0.00, -0.00, -1.00, 1651.5, 817.8)">…</text></g></g></g></svg>