<?xml version="1.0" encoding="UTF-8" standalone="no"?><svg xmlns="http://www.w3.org/2000/svg" xmlns:xlink="http://www.w3.org/1999/xlink" clip-rule="evenodd" stroke-miterlimit="10" viewBox="0 0 1920 1080"><desc>SVG generated by Keynote</desc><defs></defs><g transform="matrix(1.00, 0.00, -0.00, -1.00, 0.0, 1080.0)"><path d="M 0.0 1080.0 L 1920.0 1080.0 L 1920.0 0.0 L 0.0 0.0 Z M 0.0 1080.0 " fill="#E74B3B"></path><text xml:space="preserve" font-family="OpenSans-Light,Open Sans" font-size="50.0" fill="#FEFFFF" transform="matrix(1.00, 0.00, -0.00, -1.00, 31.7, 39.0)">A</text><text xml:space="preserve" font-family="OpenSans-Light,Open Sans" font-size="50.0" fill="#FEFFFF" transform="matrix(1.00, 0.00, -0.00, -1.00, 61.7, 39.0)">s</text><text xml:space="preserve" font-family="OpenSans-Light,Open Sans" font-size="50.0" fill="#FEFFFF" transform="matrix(1.00, 0.00, -0.00, -1.00, 85.0, 39.0)">y</text><text xml:space="preserve" font-family="OpenSans-Light,Open Sans" font-size="50.0" fill="#FEFFFF" transform="matrix(1.00, 0.00, -0.00, -1.00, 108.0, 39.0)">n</text><text xml:space="preserve" font-family="OpenSans-Light,Open Sans" font-size="50.0" fill="#FEFFFF" transform="matrix(1.00, 0.00, -0.00, -1.00, 137.4, 39.0)">c</text><text xml:space="preserve" font-family="OpenSans-Light,Open Sans" font-size="50.0" fill="#FEFFFF" transform="matrix(1.00, 0.00, -0.00, -1.00, 161.2, 39.0)">h</text><text xml:space="preserve" font-family="OpenSans-Light,Open Sans" font-size="50.0" fill="#FEFFFF" transform="matrix(1.00, 0.00, -0.00, -1.00, 190.7, 39.0)">r</text><text xml:space="preserve" font-family="OpenSans-Light,Open Sans" font-size="50.0" fill="#FEFFFF" transform="matrix(1.00, 0.00, -0.00, -1.00, 209.1, 39.0)">o</text><text xml:space="preserve" font-family="OpenSans-Light,Open Sans" font-size="50.0" fill="#FEFFFF" transform="matrix(1.00, 0.00, -0.00, -1.00, 238.4, 39.0)">n</text><text xml:space="preserve" font-family="OpenSans-Light,Open Sans" font-size="50.0" fill="#FEFFFF" transform="matrix(1.00, 0.00, -0.00, -1.00, 267.9, 39.0)">o</text><text xml:space="preserve" font-family="OpenSans-Light,Open Sans" font-size="50.0" fill="#FEFFFF" transform="matrix(1.00, 0.00, -0.00, -1.00, 297.2, 39.0)">u</text><text xml:space="preserve" font-family="OpenSans-Light,Open Sans" font-size="50.0" fill="#FEFFFF" transform="matrix(1.00, 0.00, -0.00, -1.00, 326.7, 39.0)">s</text><text xml:space="preserve" font-family="OpenSans-Light,Open Sans" font-size="50.0" fill="#FEFFFF" transform="matrix(1.00, 0.00, -0.00, -1.00, 350.0, 39.0)"> </text><text xml:space="preserve" font-family="OpenSans-Light,Open Sans" font-size="50.0" fill="#FEFFFF" transform="matrix(1.00, 0.00, -0.00, -1.00, 363.0, 39.0)">M</text><text xml:space="preserve" font-family="OpenSans-Light,Open Sans" font-size="50.0" fill="#FEFFFF" transform="matrix(1.00, 0.00, -0.00, -1.00, 406.1, 39.0)">i</text><text xml:space="preserve" font-family="OpenSans-Light,Open Sans" font-size="50.0" fill="#FEFFFF" transform="matrix(1.00, 0.00, -0.00, -1.00, 417.4, 39.0)">c</text><text xml:space="preserve" font-family="OpenSans-Light,Open Sans" font-size="50.0" fill="#FEFFFF" transform="matrix(1.00, 0.00, -0.00, -1.00, 441.2, 39.0)">r</text><text xml:space="preserve" font-family="OpenSans-Light,Open Sans" font-size="50.0" fill="#FEFFFF" transform="matrix(1.00, 0.00, -0.00, -1.00, 459.6, 39.0)">o</text><text xml:space="preserve" font-family="OpenSans-Light,Open Sans" font-size="50.0" fill="#FEFFFF" transform="matrix(1.00, 0.00, -0.00, -1.00, 488.9, 39.0)">s</text><text xml:space="preserve" font-family="OpenSans-Light,Open Sans" font-size="50.0" fill="#FEFFFF" transform="matrix(1.00, 0.00, -0.00, -1.00, 512.2, 39.0)">e</text><text xml:space="preserve" font-family="OpenSans-Light,Open Sans" font-size="50.0" fill="#FEFFFF" transform="matrix(1.00, 0.00, -0.00, -1.00, 539.6, 39.0)">r</text><text xml:space="preserve" font-family="OpenSans-Light,Open Sans" font-size="50.0" fill="#FEFFFF" transform="matrix(1.00, 0.00, -0.00, -1.00, 559.1, 39.0)">v</text><text xml:space="preserve" font-family="OpenSans-Light,Open Sans" font-size="50.0" fill="#FEFFFF" transform="matrix(1.00, 0.00, -0.00, -1.00, 582.0, 39.0)">i</text><text xml:space="preserve" font-family="OpenSans-Light,Open Sans" font-size="50.0" fill="#FEFFFF" transform="matrix(1.00, 0.00, -0.00, -1.00, 593.3, 39.0)">c</text><text xml:space="preserve" font-family="OpenSans-Light,Open Sans" font-size="50.0" fill="#FEFFFF" transform="matrix(1.00, 0.00, -0.00, -1.00, 617.1, 39.0)">e</text><text xml:space="preserve" font-family="OpenSans-Light,Open Sans" font-size="50.0" fill="#FEFFFF" transform="matrix(1.00, 0.00, -0.00, -1.00, 644.5, 39.0)">s</text><text xml:space="preserve" font-family="OpenSans-Light,Open Sans" font-size="80.0" fill="#FEFFFF" transform="matrix(1.00, 0.00, -0.00, -1.00, 287.8, 793.9)">B</text><text xml:space="preserve" font-family="OpenSans-Light,Open Sans" font-size="80.0" fill="#FEFFFF" transform="matrix(1.00, 0.00, -0.00, -1.00, 337.9, 793.9)">a</text><text xml:space="preserve" font-family="OpenSans-Light,Open Sans" font-size="80.0" fill="#FEFFFF" transform="matrix(1.00, 0.00, -0.00, -1.00, 380.3, 793.9)">s</text><text xml:space="preserve" font-family="OpenSans-Light,Open Sans" font-size="80.0" fill="#FEFFFF" transform="matrix(1.00, 0.00, -0.00, -1.00, 417.5, 793.9)">i</text><text xml:space="preserve" font-family="OpenSans-Light,Open Sans" font-size="80.0" fill="#FEFFFF" transform="matrix(1.00, 0.00, -0.00, -1.00, 435.6, 793.9)">c</text><text xml:space="preserve" font-family="OpenSans-Light,Open Sans" font-size="80.0" fill="#FEFFFF" transform="matrix(1.00, 0.00, -0.00, -1.00, 473.7, 793.9)">a</text><text xml:space="preserve" font-family="OpenSans-Light,Open Sans" font-size="80.0" fill="#FEFFFF" transform="matrix(1.00, 0.00, -0.00, -1.00, 516.0, 793.9)">l</text><text xml:space="preserve" font-family="OpenSans-Light,Open Sans" font-size="80.0" fill="#FEFFFF" transform="matrix(1.00, 0.00, -0.00, -1.00, 534.1, 793.9)">l</text><text xml:space="preserve" font-family="OpenSans-Light,Open Sans" font-size="80.0" fill="#FEFFFF" transform="matrix(1.00, 0.00, -0.00, -1.00, 552.2, 793.9)">y</text><text xml:space="preserve" font-family="OpenSans-Light,Open Sans" font-size="80.0" fill="#FEFFFF" transform="matrix(1.00, 0.00, -0.00, -1.00, 585.7, 793.9)">,</text><text xml:space="preserve" font-family="OpenSans-Light,Open Sans" font-size="80.0" fill="#FEFFFF" transform="matrix(1.00, 0.00, -0.00, -1.00, 602.9, 793.9)"> </text><text xml:space="preserve" font-family="OpenSans-Light,Open Sans" font-size="80.0" fill="#FEFFFF" transform="matrix(1.00, 0.00, -0.00, -1.00, 623.7, 793.9)">t</text><text xml:space="preserve" font-family="OpenSans-Light,Open Sans" font-size="80.0" fill="#FEFFFF" transform="matrix(1.00, 0.00, -0.00, -1.00, 650.5, 793.9)">h</text><text xml:space="preserve" font-family="OpenSans-Light,Open Sans" font-size="80.0" fill="#FEFFFF" transform="matrix(1.00, 0.00, -0.00, -1.00, 697.6, 793.9)">e</text><text xml:space="preserve" font-family="OpenSans-Light,Open Sans" font-size="80.0" fill="#FEFFFF" transform="matrix(1.00, 0.00, -0.00, -1.00, 741.5, 793.9)"> </text><text xml:space="preserve" font-family="OpenSans-Light,Open Sans" font-size="80.0" fill="#FEFFFF" transform="matrix(1.00, 0.00, -0.00, -1.00, 762.3, 793.9)">i</text><text xml:space="preserve" font-family="OpenSans-Light,Open Sans" font-size="80.0" fill="#FEFFFF" transform="matrix(1.00, 0.00, -0.00, -1.00, 780.4, 793.9)">d</text><text xml:space="preserve" font-family="OpenSans-Light,Open Sans" font-size="80.0" fill="#FEFFFF" transform="matrix(1.00, 0.00, -0.00, -1.00, 828.0, 793.9)">e</text><text xml:space="preserve" font-family="OpenSans-Light,Open Sans" font-size="80.0" fill="#FEFFFF" transform="matrix(1.00, 0.00, -0.00, -1.00, 871.9, 793.9)">a</text><text xml:space="preserve" font-family="OpenSans-Light,Open Sans" font-size="80.0" fill="#FEFFFF" transform="matrix(1.00, 0.00, -0.00, -1.00, 914.3, 793.9)"> </text><text xml:space="preserve" font-family="OpenSans-Light,Open Sans" font-size="80.0" fill="#FEFFFF" transform="matrix(1.00, 0.00, -0.00, -1.00, 935.0, 793.9)">b</text><text xml:space="preserve" font-family="OpenSans-Light,Open Sans" font-size="80.0" fill="#FEFFFF" transform="matrix(1.00, 0.00, -0.00, -1.00, 982.7, 793.9)">e</text><text xml:space="preserve" font-family="OpenSans-Light,Open Sans" font-size="80.0" fill="#FEFFFF" transform="matrix(1.00, 0.00, -0.00, -1.00, 1026.6, 793.9)">h</text><text xml:space="preserve" font-family="OpenSans-Light,Open Sans" font-size="80.0" fill="#FEFFFF" transform="matrix(1.00, 0.00, -0.00, -1.00, 1073.7, 793.9)">i</text><text xml:space="preserve" font-family="OpenSans-Light,Open Sans" font-size="80.0" fill="#FEFFFF" transform="matrix(1.00, 0.00, -0.00, -1.00, 1091.8, 793.9)">n</text><text xml:space="preserve" font-family="OpenSans-Light,Open Sans" font-size="80.0" fill="#FEFFFF" transform="matrix(1.00, 0.00, -0.00, -1.00, 1139.0, 793.9)">d</text><text xml:space="preserve" font-family="OpenSans-Light,Open Sans" font-size="80.0" fill="#FEFFFF" transform="matrix(1.00, 0.00, -0.00, -1.00, 1186.6, 793.9)"> </text><text xml:space="preserve" font-family="OpenSans-Light,Open Sans" font-size="80.0" fill="#FEFFFF" transform="matrix(1.00, 0.00, -0.00, -1.00, 1207.4, 793.9)">i</text><text xml:space="preserve" font-family="OpenSans-Light,Open Sans" font-size="80.0" fill="#FEFFFF" transform="matrix(1.00, 0.00, -0.00, -1.00, 1225.5, 793.9)">t</text><text xml:space="preserve" font-family="OpenSans-Light,Open Sans" font-size="80.0" fill="#FEFFFF" transform="matrix(1.00, 0.00, -0.00, -1.00, 1252.3, 793.9)">,</text><text xml:space="preserve" font-family="OpenSans-Light,Open Sans" font-size="80.0" fill="#FEFFFF" transform="matrix(1.00, 0.00, -0.00, -1.00, 1269.5, 793.9)"> </text><text xml:space="preserve" font-family="OpenSans-Light,Open Sans" font-size="80.0" fill="#FEFFFF" transform="matrix(1.00, 0.00, -0.00, -1.00, 1290.2, 793.9)">i</text><text xml:space="preserve" font-family="OpenSans-Light,Open Sans" font-size="80.0" fill="#FEFFFF" transform="matrix(1.00, 0.00, -0.00, -1.00, 1308.3, 793.9)">s</text><text xml:space="preserve" font-family="OpenSans-Light,Open Sans" font-size="80.0" fill="#FEFFFF" transform="matrix(1.00, 0.00, -0.00, -1.00, 1345.6, 793.9)"> </text><text xml:space="preserve" font-family="OpenSans-Light,Open Sans" font-size="80.0" fill="#FEFFFF" transform="matrix(1.00, 0.00, -0.00, -1.00, 1366.3, 793.9)">t</text><text xml:space="preserve" font-family="OpenSans-Light,Open Sans" font-size="80.0" fill="#FEFFFF" transform="matrix(1.00, 0.00, -0.00, -1.00, 1393.1, 793.9)">h</text><text xml:space="preserve" font-family="OpenSans-Light,Open Sans" font-size="80.0" fill="#FEFFFF" transform="matrix(1.00, 0.00, -0.00, -1.00, 1440.3, 793.9)">a</text><text xml:space="preserve" font-family="OpenSans-Light,Open Sans" font-size="80.0" fill="#FEFFFF" transform="matrix(1.00, 0.00, -0.00, -1.00, 1482.7, 793.9)">t</text><text xml:space="preserve" font-family="OpenSans-Light,Open Sans" font-size="80.0" fill="#FEFFFF" transform="matrix(1.00, 0.00, -0.00, -1.00, 1509.5, 793.9)"> </text><text xml:space="preserve" font-family="OpenSans-Light,Open Sans" font-size="80.0" fill="#FEFFFF" transform="matrix(1.00, 0.00, -0.00, -1.00, 1530.2, 793.9)">w</text><text xml:space="preserve" font-family="OpenSans-Light,Open Sans" font-size="80.0" fill="#FEFFFF" transform="matrix(1.00, 0.00, -0.00, -1.00, 1588.1, 793.9)">e</text><text xml:space="preserve" font-family="OpenSans-Light,Open Sans" font-size="80.0" fill="#FEFFFF" transform="matrix(1.00, 0.00, -0.00, -1.00, 1632.0, 793.9)"> </text><text xml:space="preserve" font-family="OpenSans-Light,Open Sans" font-size="80.0" fill="#FEFFFF" transform="matrix(1.00, 0.00, -0.00, -1.00, 106.8, 684.9)">c</text><text xml:space="preserve" font-family="OpenSans-Light,Open Sans" font-size="80.0" fill="#FEFFFF" transform="matrix(1.00, 0.00, -0.00, -1.00, 144.8, 684.9)">a</text><text xml:space="preserve" font-family="OpenSans-Light,Open Sans" font-size="80.0" fill="#FEFFFF" transform="matrix(1.00, 0.00, -0.00, -1.00, 187.2, 684.9)">n</text><text xml:space="preserve" font-family="OpenSans-Light,Open Sans" font-size="80.0" fill="#FEFFFF" transform="matrix(1.00, 0.00, -0.00, -1.00, 234.3, 684.9)"> </text><text xml:space="preserve" font-family="OpenSans-Light,Open Sans" font-size="80.0" fill="#FEFFFF" transform="matrix(1.00, 0.00, -0.00, -1.00, 255.1, 684.9)">u</text><text xml:space="preserve" font-family="OpenSans-Light,Open Sans" font-size="80.0" fill="#FEFFFF" transform="matrix(1.00, 0.00, -0.00, -1.00, 302.3, 684.9)">s</text><text xml:space="preserve" font-family="OpenSans-Light,Open Sans" font-size="80.0" fill="#FEFFFF" transform="matrix(1.00, 0.00, -0.00, -1.00, 339.5, 684.9)">e</text><text xml:space="preserve" font-family="OpenSans-Light,Open Sans" font-size="80.0" fill="#FEFFFF" transform="matrix(1.00, 0.00, -0.00, -1.00, 383.4, 684.9)"> </text><text xml:space="preserve" font-family="OpenSans-Light,Open Sans" font-size="80.0" fill="#FEFFFF" transform="matrix(1.00, 0.00, -0.00, -1.00, 404.2, 684.9)">a</text><text xml:space="preserve" font-family="OpenSans-Light,Open Sans" font-size="80.0" fill="#FEFFFF" transform="matrix(1.00, 0.00, -0.00, -1.00, 446.5, 684.9)"> </text><text xml:space="preserve" font-family="OpenSans-Light,Open Sans" font-size="80.0" fill="#FEFFFF" transform="matrix(1.00, 0.00, -0.00, -1.00, 467.3, 684.9)">m</text><text xml:space="preserve" font-family="OpenSans-Light,Open Sans" font-size="80.0" fill="#FEFFFF" transform="matrix(1.00, 0.00, -0.00, -1.00, 537.9, 684.9)">e</text><text xml:space="preserve" font-family="OpenSans-Light,Open Sans" font-size="80.0" fill="#FEFFFF" transform="matrix(1.00, 0.00, -0.00, -1.00, 581.8, 684.9)">s</text><text xml:space="preserve" font-family="OpenSans-Light,Open Sans" font-size="80.0" fill="#FEFFFF" transform="matrix(1.00, 0.00, -0.00, -1.00, 619.1, 684.9)">s</text><text xml:space="preserve" font-family="OpenSans-Light,Open Sans" font-size="80.0" fill="#FEFFFF" transform="matrix(1.00, 0.00, -0.00, -1.00, 656.3, 684.9)">a</text><text xml:space="preserve" font-family="OpenSans-Light,Open Sans" font-size="80.0" fill="#FEFFFF" transform="matrix(1.00, 0.00, -0.00, -1.00, 698.7, 684.9)">g</text><text xml:space="preserve" font-family="OpenSans-Light,Open Sans" font-size="80.0" fill="#FEFFFF" transform="matrix(1.00, 0.00, -0.00, -1.00, 740.5, 684.9)">e</text><text xml:space="preserve" font-family="OpenSans-Light,Open Sans" font-size="80.0" fill="#FEFFFF" transform="matrix(1.00, 0.00, -0.00, -1.00, 784.4, 684.9)"> </text><text xml:space="preserve" font-family="OpenSans-Light,Open Sans" font-size="80.0" fill="#FEFFFF" transform="matrix(1.00, 0.00, -0.00, -1.00, 805.2, 684.9)">b</text><text xml:space="preserve" font-family="OpenSans-Light,Open Sans" font-size="80.0" fill="#FEFFFF" transform="matrix(1.00, 0.00, -0.00, -1.00, 852.8, 684.9)">r</text><text xml:space="preserve" font-family="OpenSans-Light,Open Sans" font-size="80.0" fill="#FEFFFF" transform="matrix(1.00, 0.00, -0.00, -1.00, 882.3, 684.9)">o</text><text xml:space="preserve" font-family="OpenSans-Light,Open Sans" font-size="80.0" fill="#FEFFFF" transform="matrix(1.00, 0.00, -0.00, -1.00, 929.2, 684.9)">k</text><text xml:space="preserve" font-family="OpenSans-Light,Open Sans" font-size="80.0" fill="#FEFFFF" transform="matrix(1.00, 0.00, -0.00, -1.00, 966.3, 684.9)">e</text><text xml:space="preserve" font-family="OpenSans-Light,Open Sans" font-size="80.0" fill="#FEFFFF" transform="matrix(1.00, 0.00, -0.00, -1.00, 1010.2, 684.9)">r</text><text xml:space="preserve" font-family="OpenSans-Light,Open Sans" font-size="80.0" fill="#FEFFFF" transform="matrix(1.00, 0.00, -0.00, -1.00, 1041.3, 684.9)"> </text><text xml:space="preserve" font-family="OpenSans-Light,Open Sans" font-size="80.0" fill="#FEFFFF" transform="matrix(1.00, 0.00, -0.00, -1.00, 1062.1, 684.9)">f</text><text xml:space="preserve" font-family="OpenSans-Light,Open Sans" font-size="80.0" fill="#FEFFFF" transform="matrix(1.00, 0.00, -0.00, -1.00, 1086.1, 684.9)">o</text><text xml:space="preserve" font-family="OpenSans-Light,Open Sans" font-size="80.0" fill="#FEFFFF" transform="matrix(1.00, 0.00, -0.00, -1.00, 1132.9, 684.9)">r</text><text xml:space="preserve" font-family="OpenSans-Light,Open Sans" font-size="80.0" fill="#FEFFFF" transform="matrix(1.00, 0.00, -0.00, -1.00, 1164.1, 684.9)"> </text><text xml:space="preserve" font-family="OpenSans-Light,Open Sans" font-size="80.0" fill="#FEFFFF" transform="matrix(1.00, 0.00, -0.00, -1.00, 1184.9, 684.9)">t</text><text xml:space="preserve" font-family="OpenSans-Light,Open Sans" font-size="80.0" fill="#FEFFFF" transform="matrix(1.00, 0.00, -0.00, -1.00, 1211.6, 684.9)">h</text><text xml:space="preserve" font-family="OpenSans-Light,Open Sans" font-size="80.0" fill="#FEFFFF" transform="matrix(1.00, 0.00, -0.00, -1.00, 1258.8, 684.9)">e</text><text xml:space="preserve" font-family="OpenSans-Light,Open Sans" font-size="80.0" fill="#FEFFFF" transform="matrix(1.00, 0.00, -0.00, -1.00, 1302.7, 684.9)"> </text><text xml:space="preserve" font-family="OpenSans-Light,Open Sans" font-size="80.0" fill="#FEFFFF" transform="matrix(1.00, 0.00, -0.00, -1.00, 1323.5, 684.9)">m</text><text xml:space="preserve" font-family="OpenSans-Light,Open Sans" font-size="80.0" fill="#FEFFFF" transform="matrix(1.00, 0.00, -0.00, -1.00, 1394.1, 684.9)">i</text><text xml:space="preserve" font-family="OpenSans-Light,Open Sans" font-size="80.0" fill="#FEFFFF" transform="matrix(1.00, 0.00, -0.00, -1.00, 1412.2, 684.9)">c</text><text xml:space="preserve" font-family="OpenSans-Light,Open Sans" font-size="80.0" fill="#FEFFFF" transform="matrix(1.00, 0.00, -0.00, -1.00, 1450.2, 684.9)">r</text><text xml:space="preserve" font-family="OpenSans-Light,Open Sans" font-size="80.0" fill="#FEFFFF" transform="matrix(1.00, 0.00, -0.00, -1.00, 1479.7, 684.9)">o</text><text xml:space="preserve" font-family="OpenSans-Light,Open Sans" font-size="80.0" fill="#FEFFFF" transform="matrix(1.00, 0.00, -0.00, -1.00, 1526.6, 684.9)">s</text><text xml:space="preserve" font-family="OpenSans-Light,Open Sans" font-size="80.0" fill="#FEFFFF" transform="matrix(1.00, 0.00, -0.00, -1.00, 1563.9, 684.9)">e</text><text xml:space="preserve" font-family="OpenSans-Light,Open Sans" font-size="80.0" fill="#FEFFFF" transform="matrix(1.00, 0.00, -0.00, -1.00, 1607.7, 684.9)">r</text><text xml:space="preserve" font-family="OpenSans-Light,Open Sans" font-size="80.0" fill="#FEFFFF" transform="matrix(1.00, 0.00, -0.00, -1.00, 1638.9, 684.9)">v</text><text xml:space="preserve" font-family="OpenSans-Light,Open Sans" font-size="80.0" fill="#FEFFFF" transform="matrix(1.00, 0.00, -0.00, -1.00, 1675.6, 684.9)">i</text><text xml:space="preserve" font-family="OpenSans-Light,Open Sans" font-size="80.0" fill="#FEFFFF" transform="matrix(1.00, 0.00, -0.00, -1.00, 1693.7, 684.9)">c</text><text xml:space="preserve" font-family="OpenSans-Light,Open Sans" font-size="80.0" fill="#FEFFFF" transform="matrix(1.00, 0.00, -0.00, -1.00, 1731.7, 684.9)">e</text><text xml:space="preserve" font-family="OpenSans-Light,Open Sans" font-size="80.0" fill="#FEFFFF" transform="matrix(1.00, 0.00, -0.00, -1.00, 1775.6, 684.9)">s</text><text xml:space="preserve" font-family="OpenSans-Light,Open Sans" font-size="80.0" fill="#FEFFFF" transform="matrix(1.00, 0.00, -0.00, -1.00, 1812.9, 684.9)"> </text><text xml:space="preserve" font-family="OpenSans-Light,Open Sans" font-size="80.0" fill="#FEFFFF" transform="matrix(1.00, 0.00, -0.00, -1.00, 104.8, 575.9)">t</text><text xml:space="preserve" font-family="OpenSans-Light,Open Sans" font-size="80.0" fill="#FEFFFF" transform="matrix(1.00, 0.00, -0.00, -1.00, 131.6, 575.9)">o</text><text xml:space="preserve" font-family="OpenSans-Light,Open Sans" font-size="80.0" fill="#FEFFFF" transform="matrix(1.00, 0.00, -0.00, -1.00, 178.4, 575.9)"> </text><text xml:space="preserve" font-family="OpenSans-Light,Open Sans" font-size="80.0" fill="#FEFFFF" transform="matrix(1.00, 0.00, -0.00, -1.00, 199.2, 575.9)">c</text><text xml:space="preserve" font-family="OpenSans-Light,Open Sans" font-size="80.0" fill="#FEFFFF" transform="matrix(1.00, 0.00, -0.00, -1.00, 237.2, 575.9)">o</text><text xml:space="preserve" font-family="OpenSans-Light,Open Sans" font-size="80.0" fill="#FEFFFF" transform="matrix(1.00, 0.00, -0.00, -1.00, 284.1, 575.9)">o</text><text xml:space="preserve" font-family="OpenSans-Light,Open Sans" font-size="80.0" fill="#FEFFFF" transform="matrix(1.00, 0.00, -0.00, -1.00, 331.0, 575.9)">r</text><text xml:space="preserve" font-family="OpenSans-Light,Open Sans" font-size="80.0" fill="#FEFFFF" transform="matrix(1.00, 0.00, -0.00, -1.00, 360.5, 575.9)">d</text><text xml:space="preserve" font-family="OpenSans-Light,Open Sans" font-size="80.0" fill="#FEFFFF" transform="matrix(1.00, 0.00, -0.00, -1.00, 408.1, 575.9)">i</text><text xml:space="preserve" font-family="OpenSans-Light,Open Sans" font-size="80.0" fill="#FEFFFF" transform="matrix(1.00, 0.00, -0.00, -1.00, 426.2, 575.9)">n</text><text xml:space="preserve" font-family="OpenSans-Light,Open Sans" font-size="80.0" fill="#FEFFFF" transform="matrix(1.00, 0.00, -0.00, -1.00, 473.4, 575.9)">a</text><text xml:space="preserve" font-family="OpenSans-Light,Open Sans" font-size="80.0" fill="#FEFFFF" transform="matrix(1.00, 0.00, -0.00, -1.00, 515.8, 575.9)">t</text><text xml:space="preserve" font-family="OpenSans-Light,Open Sans" font-size="80.0" fill="#FEFFFF" transform="matrix(1.00, 0.00, -0.00, -1.00, 542.6, 575.9)">e</text><text xml:space="preserve" font-family="OpenSans-Light,Open Sans" font-size="80.0" fill="#FEFFFF" transform="matrix(1.00, 0.00, -0.00, -1.00, 586.5, 575.9)"> </text><text xml:space="preserve" font-family="OpenSans-Light,Open Sans" font-size="80.0" fill="#FEFFFF" transform="matrix(1.00, 0.00, -0.00, -1.00, 607.2, 575.9)">a</text><text xml:space="preserve" font-family="OpenSans-Light,Open Sans" font-size="80.0" fill="#FEFFFF" transform="matrix(1.00, 0.00, -0.00, -1.00, 649.6, 575.9)">n</text><text xml:space="preserve" font-family="OpenSans-Light,Open Sans" font-size="80.0" fill="#FEFFFF" transform="matrix(1.00, 0.00, -0.00, -1.00, 696.8, 575.9)">d</text><text xml:space="preserve" font-family="OpenSans-Light,Open Sans" font-size="80.0" fill="#FEFFFF" transform="matrix(1.00, 0.00, -0.00, -1.00, 744.4, 575.9)"> </text><text xml:space="preserve" font-family="OpenSans-Light,Open Sans" font-size="80.0" fill="#FEFFFF" transform="matrix(1.00, 0.00, -0.00, -1.00, 765.2, 575.9)">c</text><text xml:space="preserve" font-family="OpenSans-Light,Open Sans" font-size="80.0" fill="#FEFFFF" transform="matrix(1.00, 0.00, -0.00, -1.00, 803.2, 575.9)">o</text><text xml:space="preserve" font-family="OpenSans-Light,Open Sans" font-size="80.0" fill="#FEFFFF" transform="matrix(1.00, 0.00, -0.00, -1.00, 850.0, 575.9)">m</text><text xml:space="preserve" font-family="OpenSans-Light,Open Sans" font-size="80.0" fill="#FEFFFF" transform="matrix(1.00, 0.00, -0.00, -1.00, 920.7, 575.9)">m</text><text xml:space="preserve" font-family="OpenSans-Light,Open Sans" font-size="80.0" fill="#FEFFFF" transform="matrix(1.00, 0.00, -0.00, -1.00, 991.3, 575.9)">u</text><text xml:space="preserve" font-family="OpenSans-Light,Open Sans" font-size="80.0" fill="#FEFFFF" transform="matrix(1.00, 0.00, -0.00, -1.00, 1038.4, 575.9)">n</text><text xml:space="preserve" font-family="OpenSans-Light,Open Sans" font-size="80.0" fill="#FEFFFF" transform="matrix(1.00, 0.00, -0.00, -1.00, 1085.6, 575.9)">i</text><text xml:space="preserve" font-family="OpenSans-Light,Open Sans" font-size="80.0" fill="#FEFFFF" transform="matrix(1.00, 0.00, -0.00, -1.00, 1103.7, 575.9)">c</text><text xml:space="preserve" font-family="OpenSans-Light,Open Sans" font-size="80.0" fill="#FEFFFF" transform="matrix(1.00, 0.00, -0.00, -1.00, 1141.7, 575.9)">a</text><text xml:space="preserve" font-family="OpenSans-Light,Open Sans" font-size="80.0" fill="#FEFFFF" transform="matrix(1.00, 0.00, -0.00, -1.00, 1184.1, 575.9)">t</text><text xml:space="preserve" font-family="OpenSans-Light,Open Sans" font-size="80.0" fill="#FEFFFF" transform="matrix(1.00, 0.00, -0.00, -1.00, 1210.9, 575.9)">e</text><text xml:space="preserve" font-family="OpenSans-Light,Open Sans" font-size="80.0" fill="#FEFFFF" transform="matrix(1.00, 0.00, -0.00, -1.00, 1254.8, 575.9)"> </text><text xml:space="preserve" font-family="OpenSans-Light,Open Sans" font-size="80.0" fill="#FEFFFF" transform="matrix(1.00, 0.00, -0.00, -1.00, 1275.5, 575.9)">b</text><text xml:space="preserve" font-family="OpenSans-Light,Open Sans" font-size="80.0" fill="#FEFFFF" transform="matrix(1.00, 0.00, -0.00, -1.00, 1323.2, 575.9)">e</text><text xml:space="preserve" font-family="OpenSans-Light,Open Sans" font-size="80.0" fill="#FEFFFF" transform="matrix(1.00, 0.00, -0.00, -1.00, 1367.1, 575.9)">t</text><text xml:space="preserve" font-family="OpenSans-Light,Open Sans" font-size="80.0" fill="#FEFFFF" transform="matrix(1.00, 0.00, -0.00, -1.00, 1393.9, 575.9)">w</text><text xml:space="preserve" font-family="OpenSans-Light,Open Sans" font-size="80.0" fill="#FEFFFF" transform="matrix(1.00, 0.00, -0.00, -1.00, 1451.7, 575.9)">e</text><text xml:space="preserve" font-family="OpenSans-Light,Open Sans" font-size="80.0" fill="#FEFFFF" transform="matrix(1.00, 0.00, -0.00, -1.00, 1495.6, 575.9)">e</text><text xml:space="preserve" font-family="OpenSans-Light,Open Sans" font-size="80.0" fill="#FEFFFF" transform="matrix(1.00, 0.00, -0.00, -1.00, 1539.5, 575.9)">n</text><text xml:space="preserve" font-family="OpenSans-Light,Open Sans" font-size="80.0" fill="#FEFFFF" transform="matrix(1.00, 0.00, -0.00, -1.00, 1586.7, 575.9)"> </text><text xml:space="preserve" font-family="OpenSans-Light,Open Sans" font-size="80.0" fill="#FEFFFF" transform="matrix(1.00, 0.00, -0.00, -1.00, 1607.4, 575.9)">t</text><text xml:space="preserve" font-family="OpenSans-Light,Open Sans" font-size="80.0" fill="#FEFFFF" transform="matrix(1.00, 0.00, -0.00, -1.00, 1634.2, 575.9)">h</text><text xml:space="preserve" font-family="OpenSans-Light,Open Sans" font-size="80.0" fill="#FEFFFF" transform="matrix(1.00, 0.00, -0.00, -1.00, 1681.4, 575.9)">e</text><text xml:space="preserve" font-family="OpenSans-Light,Open Sans" font-size="80.0" fill="#FEFFFF" transform="matrix(1.00, 0.00, -0.00, -1.00, 1725.3, 575.9)">m</text><text xml:space="preserve" font-family="OpenSans-Light,Open Sans" font-size="80.0" fill="#FEFFFF" transform="matrix(1.00, 0.00, -0.00, -1.00, 1795.9, 575.9)">.</text></g></svg>