<?xml version="1.0" encoding="UTF-8" standalone="no"?><svg xmlns="http://www.w3.org/2000/svg" xmlns:xlink="http://www.w3.org/1999/xlink" clip-rule="evenodd" stroke-miterlimit="10" viewBox="0 0 1920 1080"><desc>SVG generated by Keynote</desc><defs></defs><g transform="matrix(1.00, 0.00, -0.00, -1.00, 0.0, 1080.0)"><path d="M 0.0 1080.0 L 1920.0 1080.0 L 1920.0 0.0 L 0.0 0.0 Z M 0.0 1080.0 " fill="#E74B3B"></path><text xml:space="preserve" font-family="OpenSans-Light,Open Sans" font-size="50.0" fill="#FEFFFF" transform="matrix(1.00, 0.00, -0.00, -1.00, 31.7, 38.3)">A</text><text xml:space="preserve" font-family="OpenSans-Light,Open Sans" font-size="50.0" fill="#FEFFFF" transform="matrix(1.00, 0.00, -0.00, -1.00, 61.7, 38.3)">s</text><text xml:space="preserve" font-family="OpenSans-Light,Open Sans" font-size="50.0" fill="#FEFFFF" transform="matrix(1.00, 0.00, -0.00, -1.00, 85.0, 38.3)">y</text><text xml:space="preserve" font-family="OpenSans-Light,Open Sans" font-size="50.0" fill="#FEFFFF" transform="matrix(1.00, 0.00, -0.00, -1.00, 108.0, 38.3)">n</text><text xml:space="preserve" font-family="OpenSans-Light,Open Sans" font-size="50.0" fill="#FEFFFF" transform="matrix(1.00, 0.00, -0.00, -1.00, 137.5, 38.3)">c</text><text xml:space="preserve" font-family="OpenSans-Light,Open Sans" font-size="50.0" fill="#FEFFFF" transform="matrix(1.00, 0.00, -0.00, -1.00, 161.2, 38.3)">h</text><text xml:space="preserve" font-family="OpenSans-Light,Open Sans" font-size="50.0" fill="#FEFFFF" transform="matrix(1.00, 0.00, -0.00, -1.00, 190.7, 38.3)">r</text><text xml:space="preserve" font-family="OpenSans-Light,Open Sans" font-size="50.0" fill="#FEFFFF" transform="matrix(1.00, 0.00, -0.00, -1.00, 209.2, 38.3)">o</text><text xml:space="preserve" font-family="OpenSans-Light,Open Sans" font-size="50.0" fill="#FEFFFF" transform="matrix(1.00, 0.00, -0.00, -1.00, 238.4, 38.3)">n</text><text xml:space="preserve" font-family="OpenSans-Light,Open Sans" font-size="50.0" fill="#FEFFFF" transform="matrix(1.00, 0.00, -0.00, -1.00, 267.9, 38.3)">o</text><text xml:space="preserve" font-family="OpenSans-Light,Open Sans" font-size="50.0" fill="#FEFFFF" transform="matrix(1.00, 0.00, -0.00, -1.00, 297.2, 38.3)">u</text><text xml:space="preserve" font-family="OpenSans-Light,Open Sans" font-size="50.0" fill="#FEFFFF" transform="matrix(1.00, 0.00, -0.00, -1.00, 326.7, 38.3)">s</text><text xml:space="preserve" font-family="OpenSans-Light,Open Sans" font-size="50.0" fill="#FEFFFF" transform="matrix(1.00, 0.00, -0.00, -1.00, 350.0, 38.3)"> </text><text xml:space="preserve" font-family="OpenSans-Light,Open Sans" font-size="50.0" fill="#FEFFFF" transform="matrix(1.00, 0.00, -0.00, -1.00, 363.0, 38.3)">M</text><text xml:space="preserve" font-family="OpenSans-Light,Open Sans" font-size="50.0" fill="#FEFFFF" transform="matrix(1.00, 0.00, -0.00, -1.00, 406.1, 38.3)">i</text><text xml:space="preserve" font-family="OpenSans-Light,Open Sans" font-size="50.0" fill="#FEFFFF" transform="matrix(1.00, 0.00, -0.00, -1.00, 417.4, 38.3)">c</text><text xml:space="preserve" font-family="OpenSans-Light,Open Sans" font-size="50.0" fill="#FEFFFF" transform="matrix(1.00, 0.00, -0.00, -1.00, 441.2, 38.3)">r</text><text xml:space="preserve" font-family="OpenSans-Light,Open Sans" font-size="50.0" fill="#FEFFFF" transform="matrix(1.00, 0.00, -0.00, -1.00, 459.6, 38.3)">o</text><text xml:space="preserve" font-family="OpenSans-Light,Open Sans" font-size="50.0" fill="#FEFFFF" transform="matrix(1.00, 0.00, -0.00, -1.00, 488.9, 38.3)">s</text><text xml:space="preserve" font-family="OpenSans-Light,Open Sans" font-size="50.0" fill="#FEFFFF" transform="matrix(1.00, 0.00, -0.00, -1.00, 512.2, 38.3)">e</text><text xml:space="preserve" font-family="OpenSans-Light,Open Sans" font-size="50.0" fill="#FEFFFF" transform="matrix(1.00, 0.00, -0.00, -1.00, 539.6, 38.3)">r</text><text xml:space="preserve" font-family="OpenSans-Light,Open Sans" font-size="50.0" fill="#FEFFFF" transform="matrix(1.00, 0.00, -0.00, -1.00, 559.1, 38.3)">v</text><text xml:space="preserve" font-family="OpenSans-Light,Open Sans" font-size="50.0" fill="#FEFFFF" transform="matrix(1.00, 0.00, -0.00, -1.00, 582.0, 38.3)">i</text><text xml:space="preserve" font-family="OpenSans-Light,Open Sans" font-size="50.0" fill="#FEFFFF" transform="matrix(1.00, 0.00, -0.00, -1.00, 593.4, 38.3)">c</text><text xml:space="preserve" font-family="OpenSans-Light,Open Sans" font-size="50.0" fill="#FEFFFF" transform="matrix(1.00, 0.00, -0.00, -1.00, 617.1, 38.3)">e</text><text xml:space="preserve" font-family="OpenSans-Light,Open Sans" font-size="50.0" fill="#FEFFFF" transform="matrix(1.00, 0.00, -0.00, -1.00, 644.5, 38.3)">s</text><g opacity="0.30"><g><clipPath id="clip0x6080010a8400"><path d="M 600.0 175.0 L 676.0 175.0 L 676.0 306.0 L 600.0 306.0 Z M 600.0 175.0 "></path></clipPath><g clip-path="url(#clip0x6080010a8400)"><path d="M 612.2 305.0 C 606.2 304.8 601.0 299.9 601.0 293.8 L 601.0 187.6 C 601.0 181.5 606.2 177.0 612.2 177.0 L 663.8 177.0 C 669.9 177.0 675.0 181.5 675.0 187.6 L 675.0 293.8 C 675.0 299.9 669.9 305.0 663.8 305.0 L 612.2 305.0 Z M 617.7 296.3 L 658.3 296.0 C 663.1 296.0 667.0 292.5 667.0 287.7 L 667.0 204.1 C 667.0 199.3 663.1 195.0 658.3 195.0 L 617.7 195.0 C 612.9 195.0 609.0 199.3 609.0 204.1 L 609.0 287.7 C 609.0 292.5 612.9 296.3 617.7 296.3 Z M 638.4 192.3 C 639.6 192.3 640.9 191.8 641.8 190.9 C 643.7 189.0 643.7 185.9 641.8 184.0 C 639.9 182.1 636.8 182.1 634.9 184.0 C 633.0 185.9 633.0 189.0 634.9 190.9 C 635.9 191.8 637.1 192.3 638.4 192.3 Z M 638.4 192.3 " fill="#FEFFFE"></path></g></g></g><path d="M 673.4 698.4 C 692.9 678.8 692.9 647.2 673.4 627.6 C 653.8 608.1 622.2 608.1 602.6 627.6 C 583.1 647.2 583.1 678.8 602.6 698.4 C 622.2 717.9 653.8 717.9 673.4 698.4 Z M 673.4 698.4 " fill="#FEFFFE"></path><g><clipPath id="clip0x6080010a8700"><path d="M 588.0 613.0 L 688.0 613.0 L 688.0 713.0 L 588.0 713.0 Z M 588.0 613.0 "></path></clipPath><g clip-path="url(#clip0x6080010a8700)"><text xml:space="preserve" font-family="Helvetica-Light,Helvetica" font-size="36.0" fill="#E74B3B" transform="matrix(1.00, 0.00, -0.00, -1.00, 626.0, 649.8)">B</text></g></g><path d="M 26.0 978.0 L 230.0 978.0 L 230.0 878.0 L 26.0 878.0 Z M 26.0 978.0 " fill="#FEFFFE"></path><g><clipPath id="clip0x6080010a8a00"><path d="M 21.0 876.0 L 235.1 876.0 L 235.1 980.0 L 21.0 980.0 Z M 21.0 876.0 "></path></clipPath><g clip-path="url(#clip0x6080010a8a00)"><text xml:space="preserve" font-family="Helvetica-Light,Helvetica" font-size="36.0" fill="#E74B3B" transform="matrix(1.00, 0.00, -0.00, -1.00, 45.0, 936.2)">M</text><text xml:space="preserve" font-family="Helvetica-Light,Helvetica" font-size="36.0" fill="#E74B3B" transform="matrix(1.00, 0.00, -0.00, -1.00, 75.0, 936.2)">e</text><text xml:space="preserve" font-family="Helvetica-Light,Helvetica" font-size="36.0" fill="#E74B3B" transform="matrix(1.00, 0.00, -0.00, -1.00, 95.0, 936.2)">s</text><text xml:space="preserve" font-family="Helvetica-Light,Helvetica" font-size="36.0" fill="#E74B3B" transform="matrix(1.00, 0.00, -0.00, -1.00, 113.0, 936.2)">s</text><text xml:space="preserve" font-family="Helvetica-Light,Helvetica" font-size="36.0" fill="#E74B3B" transform="matrix(1.00, 0.00, -0.00, -1.00, 131.0, 936.2)">a</text><text xml:space="preserve" font-family="Helvetica-Light,Helvetica" font-size="36.0" fill="#E74B3B" transform="matrix(1.00, 0.00, -0.00, -1.00, 151.1, 936.2)">g</text><text xml:space="preserve" font-family="Helvetica-Light,Helvetica" font-size="36.0" fill="#E74B3B" transform="matrix(1.00, 0.00, -0.00, -1.00, 173.1, 936.2)">e</text><text xml:space="preserve" font-family="Helvetica-Light,Helvetica" font-size="36.0" fill="#E74B3B" transform="matrix(1.00, 0.00, -0.00, -1.00, 193.1, 936.2)">s</text><text xml:space="preserve" font-family="Helvetica-Light,Helvetica" font-size="36.0" fill="#E74B3B" transform="matrix(1.00, 0.00, -0.00, -1.00, 211.1, 936.2)"> </text><text xml:space="preserve" font-family="Helvetica-Light,Helvetica" font-size="36.0" fill="#E74B3B" transform="matrix(1.00, 0.00, -0.00, -1.00, 68.0, 893.2)">S</text><text xml:space="preserve" font-family="Helvetica-Light,Helvetica" font-size="36.0" fill="#E74B3B" transform="matrix(1.00, 0.00, -0.00, -1.00, 90.0, 893.2)">e</text><text xml:space="preserve" font-family="Helvetica-Light,Helvetica" font-size="36.0" fill="#E74B3B" transform="matrix(1.00, 0.00, -0.00, -1.00, 110.1, 893.2)">r</text><text xml:space="preserve" font-family="Helvetica-Light,Helvetica" font-size="36.0" fill="#E74B3B" transform="matrix(1.00, 0.00, -0.00, -1.00, 122.0, 893.2)">v</text><text xml:space="preserve" font-family="Helvetica-Light,Helvetica" font-size="36.0" fill="#E74B3B" transform="matrix(1.00, 0.00, -0.00, -1.00, 140.0, 893.2)">i</text><text xml:space="preserve" font-family="Helvetica-Light,Helvetica" font-size="36.0" fill="#E74B3B" transform="matrix(1.00, 0.00, -0.00, -1.00, 148.0, 893.2)">c</text><text xml:space="preserve" font-family="Helvetica-Light,Helvetica" font-size="36.0" fill="#E74B3B" transform="matrix(1.00, 0.00, -0.00, -1.00, 168.1, 893.2)">e</text></g></g><path d="M 536.0 978.0 L 740.0 978.0 L 740.0 878.0 L 536.0 878.0 Z M 535.9 978.0 " fill="#FEFFFE"></path><g><clipPath id="clip0x6080010a92a0"><path d="M 530.9 876.0 L 745.1 876.0 L 745.1 980.0 L 530.9 980.0 Z M 530.9 876.0 "></path></clipPath><g clip-path="url(#clip0x6080010a92a0)"><text xml:space="preserve" font-family="Helvetica-Light,Helvetica" font-size="36.0" fill="#E74B3B" transform="matrix(1.00, 0.00, -0.00, -1.00, 579.0, 936.2)">M</text><text xml:space="preserve" font-family="Helvetica-Light,Helvetica" font-size="36.0" fill="#E74B3B" transform="matrix(1.00, 0.00, -0.00, -1.00, 609.0, 936.2)">e</text><text xml:space="preserve" font-family="Helvetica-Light,Helvetica" font-size="36.0" fill="#E74B3B" transform="matrix(1.00, 0.00, -0.00, -1.00, 629.0, 936.2)">t</text><text xml:space="preserve" font-family="Helvetica-Light,Helvetica" font-size="36.0" fill="#E74B3B" transform="matrix(1.00, 0.00, -0.00, -1.00, 639.0, 936.2)">r</text><text xml:space="preserve" font-family="Helvetica-Light,Helvetica" font-size="36.0" fill="#E74B3B" transform="matrix(1.00, 0.00, -0.00, -1.00, 651.0, 936.2)">i</text><text xml:space="preserve" font-family="Helvetica-Light,Helvetica" font-size="36.0" fill="#E74B3B" transform="matrix(1.00, 0.00, -0.00, -1.00, 659.0, 936.2)">c</text><text xml:space="preserve" font-family="Helvetica-Light,Helvetica" font-size="36.0" fill="#E74B3B" transform="matrix(1.00, 0.00, -0.00, -1.00, 679.0, 936.2)">s</text><text xml:space="preserve" font-family="Helvetica-Light,Helvetica" font-size="36.0" fill="#E74B3B" transform="matrix(1.00, 0.00, -0.00, -1.00, 697.0, 936.2)"> </text><text xml:space="preserve" font-family="Helvetica-Light,Helvetica" font-size="36.0" fill="#E74B3B" transform="matrix(1.00, 0.00, -0.00, -1.00, 578.0, 893.2)">S</text><text xml:space="preserve" font-family="Helvetica-Light,Helvetica" font-size="36.0" fill="#E74B3B" transform="matrix(1.00, 0.00, -0.00, -1.00, 600.0, 893.2)">e</text><text xml:space="preserve" font-family="Helvetica-Light,Helvetica" font-size="36.0" fill="#E74B3B" transform="matrix(1.00, 0.00, -0.00, -1.00, 620.0, 893.2)">r</text><text xml:space="preserve" font-family="Helvetica-Light,Helvetica" font-size="36.0" fill="#E74B3B" transform="matrix(1.00, 0.00, -0.00, -1.00, 632.0, 893.2)">v</text><text xml:space="preserve" font-family="Helvetica-Light,Helvetica" font-size="36.0" fill="#E74B3B" transform="matrix(1.00, 0.00, -0.00, -1.00, 650.0, 893.2)">i</text><text xml:space="preserve" font-family="Helvetica-Light,Helvetica" font-size="36.0" fill="#E74B3B" transform="matrix(1.00, 0.00, -0.00, -1.00, 658.0, 893.2)">c</text><text xml:space="preserve" font-family="Helvetica-Light,Helvetica" font-size="36.0" fill="#E74B3B" transform="matrix(1.00, 0.00, -0.00, -1.00, 678.0, 893.2)">e</text></g></g><path d="M 1046.0 978.0 L 1250.0 978.0 L 1250.0 878.0 L 1046.0 878.0 Z M 1045.9 978.0 " fill="#FEFFFE"></path><g><clipPath id="clip0x6080010a9ae0"><path d="M 1040.9 876.0 L 1255.1 876.0 L 1255.1 980.0 L 1040.9 980.0 Z M 1040.9 876.0 "></path></clipPath><g clip-path="url(#clip0x6080010a9ae0)"><text xml:space="preserve" font-family="Helvetica-Light,Helvetica" font-size="36.0" fill="#E74B3B" transform="matrix(1.00, 0.00, -0.00, -1.00, 1097.0, 936.2)">H</text><text xml:space="preserve" font-family="Helvetica-Light,Helvetica" font-size="36.0" fill="#E74B3B" transform="matrix(1.00, 0.00, -0.00, -1.00, 1123.0, 936.2)">o</text><text xml:space="preserve" font-family="Helvetica-Light,Helvetica" font-size="36.0" fill="#E74B3B" transform="matrix(1.00, 0.00, -0.00, -1.00, 1143.0, 936.2)">o</text><text xml:space="preserve" font-family="Helvetica-Light,Helvetica" font-size="36.0" fill="#E74B3B" transform="matrix(1.00, 0.00, -0.00, -1.00, 1163.0, 936.2)">k</text><text xml:space="preserve" font-family="Helvetica-Light,Helvetica" font-size="36.0" fill="#E74B3B" transform="matrix(1.00, 0.00, -0.00, -1.00, 1181.0, 936.2)">s</text><text xml:space="preserve" font-family="Helvetica-Light,Helvetica" font-size="36.0" fill="#E74B3B" transform="matrix(1.00, 0.00, -0.00, -1.00, 1199.0, 936.2)"> </text><text xml:space="preserve" font-family="Helvetica-Light,Helvetica" font-size="36.0" fill="#E74B3B" transform="matrix(1.00, 0.00, -0.00, -1.00, 1088.0, 893.2)">S</text><text xml:space="preserve" font-family="Helvetica-Light,Helvetica" font-size="36.0" fill="#E74B3B" transform="matrix(1.00, 0.00, -0.00, -1.00, 1110.0, 893.2)">e</text><text xml:space="preserve" font-family="Helvetica-Light,Helvetica" font-size="36.0" fill="#E74B3B" transform="matrix(1.00, 0.00, -0.00, -1.00, 1130.0, 893.2)">r</text><text xml:space="preserve" font-family="Helvetica-Light,Helvetica" font-size="36.0" fill="#E74B3B" transform="matrix(1.00, 0.00, -0.00, -1.00, 1142.0, 893.2)">v</text><text xml:space="preserve" font-family="Helvetica-Light,Helvetica" font-size="36.0" fill="#E74B3B" transform="matrix(1.00, 0.00, -0.00, -1.00, 1160.0, 893.2)">i</text><text xml:space="preserve" font-family="Helvetica-Light,Helvetica" font-size="36.0" fill="#E74B3B" transform="matrix(1.00, 0.00, -0.00, -1.00, 1168.0, 893.2)">c</text><text xml:space="preserve" font-family="Helvetica-Light,Helvetica" font-size="36.0" fill="#E74B3B" transform="matrix(1.00, 0.00, -0.00, -1.00, 1188.0, 893.2)">e</text></g></g><g opacity="0.30"><g><clipPath id="clip0x6080010aa200"><path d="M 476.0 429.0 L 800.0 429.0 L 800.0 491.0 L 476.0 491.0 Z M 476.0 429.0 "></path></clipPath><g clip-path="url(#clip0x6080010aa200)"><path d="M 477.0 489.0 L 799.0 489.0 L 799.0 430.0 L 477.0 430.0 Z M 477.1 489.4 " fill="#FEFFFE"></path></g></g><g><clipPath id="clip0x6080010aa440"><path d="M 476.0 430.1 L 800.0 430.1 L 800.0 489.4 L 476.0 489.4 Z M 476.0 430.1 "></path></clipPath><g clip-path="url(#clip0x6080010aa440)"><text xml:space="preserve" font-family="Helvetica-Light,Helvetica" font-size="30.0" fill="#E74B3B" transform="matrix(1.00, 0.00, -0.00, -1.00, 573.8, 448.3)">R</text><text xml:space="preserve" font-family="Helvetica-Light,Helvetica" font-size="30.0" fill="#E74B3B" transform="matrix(1.00, 0.00, -0.00, -1.00, 593.8, 448.3)">E</text><text xml:space="preserve" font-family="Helvetica-Light,Helvetica" font-size="30.0" fill="#E74B3B" transform="matrix(1.00, 0.00, -0.00, -1.00, 612.2, 448.3)">S</text><text xml:space="preserve" font-family="Helvetica-Light,Helvetica" font-size="30.0" fill="#E74B3B" transform="matrix(1.00, 0.00, -0.00, -1.00, 630.5, 448.3)">T</text><text xml:space="preserve" font-family="Helvetica-Light,Helvetica" font-size="30.0" fill="#E74B3B" transform="matrix(1.00, 0.00, -0.00, -1.00, 647.2, 448.3)"> </text><text xml:space="preserve" font-family="Helvetica-Light,Helvetica" font-size="30.0" fill="#E74B3B" transform="matrix(1.00, 0.00, -0.00, -1.00, 655.5, 448.3)">A</text><text xml:space="preserve" font-family="Helvetica-Light,Helvetica" font-size="30.0" fill="#E74B3B" transform="matrix(1.00, 0.00, -0.00, -1.00, 675.5, 448.3)">P</text><text xml:space="preserve" font-family="Helvetica-Light,Helvetica" font-size="30.0" fill="#E74B3B" transform="matrix(1.00, 0.00, -0.00, -1.00, 693.8, 448.3)">I</text></g></g></g><g opacity="0.30"><g><clipPath id="clip0x6080010aa980"><path d="M 630.0 322.0 L 646.0 322.0 L 646.0 413.0 L 630.0 413.0 Z M 630.0 322.0 "></path></clipPath><g clip-path="url(#clip0x6080010aa980)"><path d="M 0.3 0.5 L 74.3 0.5 L 76.3 0.5 " fill="none" stroke="#FEFFFE" stroke-width="3.00" transform="matrix(0.00, 1.00, 1.00, 0.00, 638.0, 323.7)"></path><path d="M 645.1 398.5 L 638.5 411.7 L 631.9 398.5 Z M 645.1 398.5 " fill="#FEFFFE"></path></g></g></g><g opacity="0.30"><g><clipPath id="clip0x6080010aace0"><path d="M 663.0 346.0 L 979.0 346.0 L 979.0 389.0 L 663.0 389.0 Z M 663.0 346.0 "></path></clipPath><g clip-path="url(#clip0x6080010aace0)"><text xml:space="preserve" font-family="AndaleMono,Andale Mono" font-size="30.0" fill="#FEFFFF" transform="matrix(1.00, 0.00, -0.00, -1.00, 667.9, 356.6)">P</text><text xml:space="preserve" font-family="AndaleMono,Andale Mono" font-size="30.0" fill="#FEFFFF" transform="matrix(1.00, 0.00, -0.00, -1.00, 685.9, 356.6)">O</text><text xml:space="preserve" font-family="AndaleMono,Andale Mono" font-size="30.0" fill="#FEFFFF" transform="matrix(1.00, 0.00, -0.00, -1.00, 704.0, 356.6)">S</text><text xml:space="preserve" font-family="AndaleMono,Andale Mono" font-size="30.0" fill="#FEFFFF" transform="matrix(1.00, 0.00, -0.00, -1.00, 722.0, 356.6)">T</text><text xml:space="preserve" font-family="AndaleMono,Andale Mono" font-size="30.0" fill="#FEFFFF" transform="matrix(1.00, 0.00, -0.00, -1.00, 740.0, 356.6)"> </text><text xml:space="preserve" font-family="AndaleMono,Andale Mono" font-size="30.0" fill="#FEFFFF" transform="matrix(1.00, 0.00, -0.00, -1.00, 758.0, 356.6)">/</text><text xml:space="preserve" font-family="AndaleMono,Andale Mono" font-size="30.0" fill="#FEFFFF" transform="matrix(1.00, 0.00, -0.00, -1.00, 776.0, 356.6)">v</text><text xml:space="preserve" font-family="AndaleMono,Andale Mono" font-size="30.0" fill="#FEFFFF" transform="matrix(1.00, 0.00, -0.00, -1.00, 794.0, 356.6)">1</text><text xml:space="preserve" font-family="AndaleMono,Andale Mono" font-size="30.0" fill="#FEFFFF" transform="matrix(1.00, 0.00, -0.00, -1.00, 812.0, 356.6)">/</text><text xml:space="preserve" font-family="AndaleMono,Andale Mono" font-size="30.0" fill="#FEFFFF" transform="matrix(1.00, 0.00, -0.00, -1.00, 830.0, 356.6)">m</text><text xml:space="preserve" font-family="AndaleMono,Andale Mono" font-size="30.0" fill="#FEFFFF" transform="matrix(1.00, 0.00, -0.00, -1.00, 848.0, 356.6)">e</text><text xml:space="preserve" font-family="AndaleMono,Andale Mono" font-size="30.0" fill="#FEFFFF" transform="matrix(1.00, 0.00, -0.00, -1.00, 866.0, 356.6)">s</text><text xml:space="preserve" font-family="AndaleMono,Andale Mono" font-size="30.0" fill="#FEFFFF" transform="matrix(1.00, 0.00, -0.00, -1.00, 884.0, 356.6)">s</text><text xml:space="preserve" font-family="AndaleMono,Andale Mono" font-size="30.0" fill="#FEFFFF" transform="matrix(1.00, 0.00, -0.00, -1.00, 902.0, 356.6)">a</text><text xml:space="preserve" font-family="AndaleMono,Andale Mono" font-size="30.0" fill="#FEFFFF" transform="matrix(1.00, 0.00, -0.00, -1.00, 920.0, 356.6)">g</text><text xml:space="preserve" font-family="AndaleMono,Andale Mono" font-size="30.0" fill="#FEFFFF" transform="matrix(1.00, 0.00, -0.00, -1.00, 938.0, 356.6)">e</text><text xml:space="preserve" font-family="AndaleMono,Andale Mono" font-size="30.0" fill="#FEFFFF" transform="matrix(1.00, 0.00, -0.00, -1.00, 956.0, 356.6)">s</text></g></g></g><g opacity="0.30"><g><clipPath id="clip0x600000eafae0"><path d="M 662.0 530.0 L 942.0 530.0 L 942.0 573.0 L 662.0 573.0 Z M 662.0 530.0 "></path></clipPath><g clip-path="url(#clip0x600000eafae0)"><text xml:space="preserve" font-family="AndaleMono,Andale Mono" font-size="30.0" fill="#FEFFFF" transform="matrix(1.00, 0.00, -0.00, -1.00, 667.0, 540.7)">v</text><text xml:space="preserve" font-family="AndaleMono,Andale Mono" font-size="30.0" fill="#FEFFFF" transform="matrix(1.00, 0.00, -0.00, -1.00, 685.0, 540.7)">1</text><text xml:space="preserve" font-family="AndaleMono,Andale Mono" font-size="30.0" fill="#FEFFFF" transform="matrix(1.00, 0.00, -0.00, -1.00, 703.0, 540.7)">.</text><text xml:space="preserve" font-family="AndaleMono,Andale Mono" font-size="30.0" fill="#FEFFFF" transform="matrix(1.00, 0.00, -0.00, -1.00, 721.0, 540.7)">m</text><text xml:space="preserve" font-family="AndaleMono,Andale Mono" font-size="30.0" fill="#FEFFFF" transform="matrix(1.00, 0.00, -0.00, -1.00, 739.1, 540.7)">e</text><text xml:space="preserve" font-family="AndaleMono,Andale Mono" font-size="30.0" fill="#FEFFFF" transform="matrix(1.00, 0.00, -0.00, -1.00, 757.1, 540.7)">s</text><text xml:space="preserve" font-family="AndaleMono,Andale Mono" font-size="30.0" fill="#FEFFFF" transform="matrix(1.00, 0.00, -0.00, -1.00, 775.1, 540.7)">s</text><text xml:space="preserve" font-family="AndaleMono,Andale Mono" font-size="30.0" fill="#FEFFFF" transform="matrix(1.00, 0.00, -0.00, -1.00, 793.1, 540.7)">a</text><text xml:space="preserve" font-family="AndaleMono,Andale Mono" font-size="30.0" fill="#FEFFFF" transform="matrix(1.00, 0.00, -0.00, -1.00, 811.1, 540.7)">g</text><text xml:space="preserve" font-family="AndaleMono,Andale Mono" font-size="30.0" fill="#FEFFFF" transform="matrix(1.00, 0.00, -0.00, -1.00, 829.1, 540.7)">e</text><text xml:space="preserve" font-family="AndaleMono,Andale Mono" font-size="30.0" fill="#FEFFFF" transform="matrix(1.00, 0.00, -0.00, -1.00, 847.1, 540.7)">s</text><text xml:space="preserve" font-family="AndaleMono,Andale Mono" font-size="30.0" fill="#FEFFFF" transform="matrix(1.00, 0.00, -0.00, -1.00, 865.1, 540.7)">.</text><text xml:space="preserve" font-family="AndaleMono,Andale Mono" font-size="30.0" fill="#FEFFFF" transform="matrix(1.00, 0.00, -0.00, -1.00, 883.1, 540.7)">n</text><text xml:space="preserve" font-family="AndaleMono,Andale Mono" font-size="30.0" fill="#FEFFFF" transform="matrix(1.00, 0.00, -0.00, -1.00, 901.1, 540.7)">e</text><text xml:space="preserve" font-family="AndaleMono,Andale Mono" font-size="30.0" fill="#FEFFFF" transform="matrix(1.00, 0.00, -0.00, -1.00, 919.1, 540.7)">w</text></g></g></g><g opacity="0.30"><g><clipPath id="clip0x600000eaee20"><path d="M 630.0 509.0 L 646.0 509.0 L 646.0 600.0 L 630.0 600.0 Z M 630.0 509.0 "></path></clipPath><g clip-path="url(#clip0x600000eaee20)"><path d="M 0.3 0.5 L 74.3 0.5 L 76.3 0.5 " fill="none" stroke="#FEFFFE" stroke-width="3.00" stroke-dasharray="6.0, 6.0" transform="matrix(0.00, 1.00, 1.00, 0.00, 638.0, 510.7)"></path><path d="M 645.1 585.5 L 638.5 598.7 L 631.9 585.5 Z M 645.1 585.5 " fill="#FEFFFE"></path></g></g></g><text xml:space="preserve" font-family="OpenSans,Open Sans" font-size="30.0" fill="#FEFFFF" transform="matrix(1.00, 0.00, -0.00, -1.00, 703.8, 651.3)">M</text><text xml:space="preserve" font-family="OpenSans,Open Sans" font-size="30.0" fill="#FEFFFF" transform="matrix(1.00, 0.00, -0.00, -1.00, 730.9, 651.3)">a</text><text xml:space="preserve" font-family="OpenSans,Open Sans" font-size="30.0" fill="#FEFFFF" transform="matrix(1.00, 0.00, -0.00, -1.00, 747.6, 651.3)">i</text><text xml:space="preserve" font-family="OpenSans,Open Sans" font-size="30.0" fill="#FEFFFF" transform="matrix(1.00, 0.00, -0.00, -1.00, 755.2, 651.3)">n</text><text xml:space="preserve" font-family="OpenSans,Open Sans" font-size="30.0" fill="#FEFFFF" transform="matrix(1.00, 0.00, -0.00, -1.00, 773.6, 651.3)"> </text><text xml:space="preserve" font-family="OpenSans,Open Sans" font-size="30.0" fill="#FEFFFF" transform="matrix(1.00, 0.00, -0.00, -1.00, 781.4, 651.3)">E</text><text xml:space="preserve" font-family="OpenSans,Open Sans" font-size="30.0" fill="#FEFFFF" transform="matrix(1.00, 0.00, -0.00, -1.00, 798.1, 651.3)">x</text><text xml:space="preserve" font-family="OpenSans,Open Sans" font-size="30.0" fill="#FEFFFF" transform="matrix(1.00, 0.00, -0.00, -1.00, 813.2, 651.3)">c</text><text xml:space="preserve" font-family="OpenSans,Open Sans" font-size="30.0" fill="#FEFFFF" transform="matrix(1.00, 0.00, -0.00, -1.00, 827.4, 651.3)">h</text><text xml:space="preserve" font-family="OpenSans,Open Sans" font-size="30.0" fill="#FEFFFF" transform="matrix(1.00, 0.00, -0.00, -1.00, 845.8, 651.3)">a</text><text xml:space="preserve" font-family="OpenSans,Open Sans" font-size="30.0" fill="#FEFFFF" transform="matrix(1.00, 0.00, -0.00, -1.00, 862.5, 651.3)">n</text><text xml:space="preserve" font-family="OpenSans,Open Sans" font-size="30.0" fill="#FEFFFF" transform="matrix(1.00, 0.00, -0.00, -1.00, 880.9, 651.3)">g</text><text xml:space="preserve" font-family="OpenSans,Open Sans" font-size="30.0" fill="#FEFFFF" transform="matrix(1.00, 0.00, -0.00, -1.00, 897.4, 651.3)">e</text><path d="M 513.9 80.1 C 200.4 65.9 29.9 43.5 3.4 12.9 L 3.4 11.5 " fill="none" stroke="#FEFFFE" stroke-width="3.00" stroke-dasharray="6.0, 6.0" transform="matrix(1.00, 0.00, 0.00, -1.00, 123.1, 864.5)"></path><path d="M 133.3 853.0 L 123.9 864.4 L 120.4 850.1 Z M 133.3 853.0 " fill="#FEFFFE"></path><path d="M 0.0 80.6 C 312.6 66.1 482.6 43.5 509.1 12.9 L 509.1 11.0 " fill="none" stroke="#FEFFFE" stroke-width="3.00" stroke-dasharray="6.0, 6.0" transform="matrix(1.00, 0.00, 0.00, -1.00, 638.4, 865.0)"></path><path d="M 1153.6 851.1 L 1150.1 865.4 L 1140.7 854.0 Z M 1153.6 851.1 " fill="#FEFFFE"></path><path d="M -0.4 0.5 L 125.0 0.5 L 126.6 0.5 " fill="none" stroke="#FEFFFE" stroke-width="3.00" stroke-dasharray="6.0, 6.0" transform="matrix(0.00, 1.00, 1.00, 0.00, 638.0, 726.4)"></path><path d="M 645.1 851.5 L 638.5 864.7 L 631.9 851.5 Z M 645.1 851.5 " fill="#FEFFFE"></path><path d="M 1290.0 1081.0 L 1922.0 1081.0 L 1922.0 -1.0 L 1290.0 -1.0 Z M 1290.1 1081.5 " fill="#D34333"></path><text xml:space="preserve" font-family="Helvetica-Light,Helvetica" font-size="50.0" fill="#FEFFFF" transform="matrix(1.00, 0.00, -0.00, -1.00, 1341.6, 972.2)">S</text><text xml:space="preserve" font-family="Helvetica-Light,Helvetica" font-size="50.0" fill="#FEFFFF" transform="matrix(1.00, 0.00, -0.00, -1.00, 1372.1, 972.2)">e</text><text xml:space="preserve" font-family="Helvetica-Light,Helvetica" font-size="50.0" fill="#FEFFFF" transform="matrix(1.00, 0.00, -0.00, -1.00, 1399.9, 972.2)">r</text><text xml:space="preserve" font-family="Helvetica-Light,Helvetica" font-size="50.0" fill="#FEFFFF" transform="matrix(1.00, 0.00, -0.00, -1.00, 1416.6, 972.2)">v</text><text xml:space="preserve" font-family="Helvetica-Light,Helvetica" font-size="50.0" fill="#FEFFFF" transform="matrix(1.00, 0.00, -0.00, -1.00, 1441.6, 972.2)">i</text><text xml:space="preserve" font-family="Helvetica-Light,Helvetica" font-size="50.0" fill="#FEFFFF" transform="matrix(1.00, 0.00, -0.00, -1.00, 1452.7, 972.2)">c</text><text xml:space="preserve" font-family="Helvetica-Light,Helvetica" font-size="50.0" fill="#FEFFFF" transform="matrix(1.00, 0.00, -0.00, -1.00, 1480.5, 972.2)">e</text><text xml:space="preserve" font-family="Helvetica-Light,Helvetica" font-size="50.0" fill="#FEFFFF" transform="matrix(1.00, 0.00, -0.00, -1.00, 1508.3, 972.2)">s</text><text xml:space="preserve" font-family="Helvetica-Light,Helvetica" font-size="30.0" fill="#FEFFFF" transform="matrix(1.00, 0.00, -0.00, -1.00, 1341.6, 878.7)">•</text><text xml:space="preserve" font-family="Helvetica-Light,Helvetica" font-size="40.0" fill="#FEFFFF" transform="matrix(1.00, 0.00, -0.00, -1.00, 1380.0, 875.0)">A</text><text xml:space="preserve" font-family="Helvetica-Light,Helvetica" font-size="40.0" fill="#FEFFFF" transform="matrix(1.00, 0.00, -0.00, -1.00, 1406.7, 875.0)">r</text><text xml:space="preserve" font-family="Helvetica-Light,Helvetica" font-size="40.0" fill="#FEFFFF" transform="matrix(1.00, 0.00, -0.00, -1.00, 1419.3, 875.0)">e</text><text xml:space="preserve" font-family="Helvetica-Light,Helvetica" font-size="40.0" fill="#FEFFFF" transform="matrix(1.00, 0.00, -0.00, -1.00, 1441.5, 875.0)"> </text><text xml:space="preserve" font-family="Helvetica-Light,Helvetica" font-size="40.0" fill="#FEFFFF" transform="matrix(1.00, 0.00, -0.00, -1.00, 1452.7, 875.0)">c</text><text xml:space="preserve" font-family="Helvetica-Light,Helvetica" font-size="40.0" fill="#FEFFFF" transform="matrix(1.00, 0.00, -0.00, -1.00, 1474.9, 875.0)">o</text><text xml:space="preserve" font-family="Helvetica-Light,Helvetica" font-size="40.0" fill="#FEFFFF" transform="matrix(1.00, 0.00, -0.00, -1.00, 1497.1, 875.0)">n</text><text xml:space="preserve" font-family="Helvetica-Light,Helvetica" font-size="40.0" fill="#FEFFFF" transform="matrix(1.00, 0.00, -0.00, -1.00, 1519.4, 875.0)">n</text><text xml:space="preserve" font-family="Helvetica-Light,Helvetica" font-size="40.0" fill="#FEFFFF" transform="matrix(1.00, 0.00, -0.00, -1.00, 1541.6, 875.0)">e</text><text xml:space="preserve" font-family="Helvetica-Light,Helvetica" font-size="40.0" fill="#FEFFFF" transform="matrix(1.00, 0.00, -0.00, -1.00, 1563.9, 875.0)">c</text><text xml:space="preserve" font-family="Helvetica-Light,Helvetica" font-size="40.0" fill="#FEFFFF" transform="matrix(1.00, 0.00, -0.00, -1.00, 1586.1, 875.0)">t</text><text xml:space="preserve" font-family="Helvetica-Light,Helvetica" font-size="40.0" fill="#FEFFFF" transform="matrix(1.00, 0.00, -0.00, -1.00, 1597.2, 875.0)">e</text><text xml:space="preserve" font-family="Helvetica-Light,Helvetica" font-size="40.0" fill="#FEFFFF" transform="matrix(1.00, 0.00, -0.00, -1.00, 1619.5, 875.0)">d</text><text xml:space="preserve" font-family="Helvetica-Light,Helvetica" font-size="40.0" fill="#FEFFFF" transform="matrix(1.00, 0.00, -0.00, -1.00, 1643.9, 875.0)"> </text><text xml:space="preserve" font-family="Helvetica-Light,Helvetica" font-size="40.0" fill="#FEFFFF" transform="matrix(1.00, 0.00, -0.00, -1.00, 1655.0, 875.0)">t</text><text xml:space="preserve" font-family="Helvetica-Light,Helvetica" font-size="40.0" fill="#FEFFFF" transform="matrix(1.00, 0.00, -0.00, -1.00, 1666.1, 875.0)">o</text><text xml:space="preserve" font-family="Helvetica-Light,Helvetica" font-size="40.0" fill="#FEFFFF" transform="matrix(1.00, 0.00, -0.00, -1.00, 1688.4, 875.0)"> </text><text xml:space="preserve" font-family="Helvetica-Light,Helvetica" font-size="40.0" fill="#FEFFFF" transform="matrix(1.00, 0.00, -0.00, -1.00, 1699.5, 875.0)">M</text><text xml:space="preserve" font-family="Helvetica-Light,Helvetica" font-size="40.0" fill="#FEFFFF" transform="matrix(1.00, 0.00, -0.00, -1.00, 1732.8, 875.0)">a</text><text xml:space="preserve" font-family="Helvetica-Light,Helvetica" font-size="40.0" fill="#FEFFFF" transform="matrix(1.00, 0.00, -0.00, -1.00, 1755.1, 875.0)">i</text><text xml:space="preserve" font-family="Helvetica-Light,Helvetica" font-size="40.0" fill="#FEFFFF" transform="matrix(1.00, 0.00, -0.00, -1.00, 1763.9, 875.0)">n</text><text xml:space="preserve" font-family="Helvetica-Light,Helvetica" font-size="40.0" fill="#FEFFFF" transform="matrix(1.00, 0.00, -0.00, -1.00, 1786.2, 875.0)"> </text><text xml:space="preserve" font-family="Helvetica-Light,Helvetica" font-size="40.0" fill="#FEFFFF" transform="matrix(1.00, 0.00, -0.00, -1.00, 1380.0, 803.0)">E</text><text xml:space="preserve" font-family="Helvetica-Light,Helvetica" font-size="40.0" fill="#FEFFFF" transform="matrix(1.00, 0.00, -0.00, -1.00, 1404.5, 803.0)">x</text><text xml:space="preserve" font-family="Helvetica-Light,Helvetica" font-size="40.0" fill="#FEFFFF" transform="matrix(1.00, 0.00, -0.00, -1.00, 1424.5, 803.0)">c</text><text xml:space="preserve" font-family="Helvetica-Light,Helvetica" font-size="40.0" fill="#FEFFFF" transform="matrix(1.00, 0.00, -0.00, -1.00, 1446.7, 803.0)">h</text><text xml:space="preserve" font-family="Helvetica-Light,Helvetica" font-size="40.0" fill="#FEFFFF" transform="matrix(1.00, 0.00, -0.00, -1.00, 1468.9, 803.0)">a</text><text xml:space="preserve" font-family="Helvetica-Light,Helvetica" font-size="40.0" fill="#FEFFFF" transform="matrix(1.00, 0.00, -0.00, -1.00, 1491.2, 803.0)">n</text><text xml:space="preserve" font-family="Helvetica-Light,Helvetica" font-size="40.0" fill="#FEFFFF" transform="matrix(1.00, 0.00, -0.00, -1.00, 1513.4, 803.0)">g</text><text xml:space="preserve" font-family="Helvetica-Light,Helvetica" font-size="40.0" fill="#FEFFFF" transform="matrix(1.00, 0.00, -0.00, -1.00, 1537.9, 803.0)">e</text><text xml:space="preserve" font-family="Helvetica-Light,Helvetica" font-size="40.0" fill="#FEFFFF" transform="matrix(1.00, 0.00, -0.00, -1.00, 1560.1, 803.0)"> </text><text xml:space="preserve" font-family="Helvetica-Light,Helvetica" font-size="40.0" fill="#FEFFFF" transform="matrix(1.00, 0.00, -0.00, -1.00, 1571.2, 803.0)">v</text><text xml:space="preserve" font-family="Helvetica-Light,Helvetica" font-size="40.0" fill="#FEFFFF" transform="matrix(1.00, 0.00, -0.00, -1.00, 1591.2, 803.0)">i</text><text xml:space="preserve" font-family="Helvetica-Light,Helvetica" font-size="40.0" fill="#FEFFFF" transform="matrix(1.00, 0.00, -0.00, -1.00, 1600.1, 803.0)">a</text><text xml:space="preserve" font-family="Helvetica-Light,Helvetica" font-size="40.0" fill="#FEFFFF" transform="matrix(1.00, 0.00, -0.00, -1.00, 1622.3, 803.0)"> </text><text xml:space="preserve" font-family="Helvetica-Light,Helvetica" font-size="40.0" fill="#FEFFFF" transform="matrix(1.00, 0.00, -0.00, -1.00, 1633.5, 803.0)">M</text><text xml:space="preserve" font-family="Helvetica-Light,Helvetica" font-size="40.0" fill="#FEFFFF" transform="matrix(1.00, 0.00, -0.00, -1.00, 1666.8, 803.0)">e</text><text xml:space="preserve" font-family="Helvetica-Light,Helvetica" font-size="40.0" fill="#FEFFFF" transform="matrix(1.00, 0.00, -0.00, -1.00, 1689.0, 803.0)">s</text><text xml:space="preserve" font-family="Helvetica-Light,Helvetica" font-size="40.0" fill="#FEFFFF" transform="matrix(1.00, 0.00, -0.00, -1.00, 1709.0, 803.0)">s</text><text xml:space="preserve" font-family="Helvetica-Light,Helvetica" font-size="40.0" fill="#FEFFFF" transform="matrix(1.00, 0.00, -0.00, -1.00, 1729.0, 803.0)">a</text><text xml:space="preserve" font-family="Helvetica-Light,Helvetica" font-size="40.0" fill="#FEFFFF" transform="matrix(1.00, 0.00, -0.00, -1.00, 1751.3, 803.0)">g</text><text xml:space="preserve" font-family="Helvetica-Light,Helvetica" font-size="40.0" fill="#FEFFFF" transform="matrix(1.00, 0.00, -0.00, -1.00, 1775.7, 803.0)">e</text><text xml:space="preserve" font-family="Helvetica-Light,Helvetica" font-size="40.0" fill="#FEFFFF" transform="matrix(1.00, 0.00, -0.00, -1.00, 1797.9, 803.0)"> </text><text xml:space="preserve" font-family="Helvetica-Light,Helvetica" font-size="40.0" fill="#FEFFFF" transform="matrix(1.00, 0.00, -0.00, -1.00, 1380.0, 731.0)">Q</text><text xml:space="preserve" font-family="Helvetica-Light,Helvetica" font-size="40.0" fill="#FEFFFF" transform="matrix(1.00, 0.00, -0.00, -1.00, 1411.1, 731.0)">u</text><text xml:space="preserve" font-family="Helvetica-Light,Helvetica" font-size="40.0" fill="#FEFFFF" transform="matrix(1.00, 0.00, -0.00, -1.00, 1433.4, 731.0)">e</text><text xml:space="preserve" font-family="Helvetica-Light,Helvetica" font-size="40.0" fill="#FEFFFF" transform="matrix(1.00, 0.00, -0.00, -1.00, 1455.6, 731.0)">u</text><text xml:space="preserve" font-family="Helvetica-Light,Helvetica" font-size="40.0" fill="#FEFFFF" transform="matrix(1.00, 0.00, -0.00, -1.00, 1477.9, 731.0)">e</text><text xml:space="preserve" font-family="Helvetica-Light,Helvetica" font-size="40.0" fill="#FEFFFF" transform="matrix(1.00, 0.00, -0.00, -1.00, 1500.1, 731.0)">s</text><text xml:space="preserve" font-family="Helvetica-Light,Helvetica" font-size="40.0" fill="#FEFFFF" transform="matrix(1.00, 0.00, -0.00, -1.00, 1520.1, 731.0)"> </text><text xml:space="preserve" font-family="Helvetica-Light,Helvetica" font-size="30.0" fill="#FEFFFF" transform="matrix(1.00, 0.00, -0.00, -1.00, 1341.6, 662.7)">•</text><text xml:space="preserve" font-family="Helvetica-Light,Helvetica" font-size="40.0" fill="#FEFFFF" transform="matrix(1.00, 0.00, -0.00, -1.00, 1380.0, 659.0)">I</text><text xml:space="preserve" font-family="Helvetica-Light,Helvetica" font-size="40.0" fill="#FEFFFF" transform="matrix(1.00, 0.00, -0.00, -1.00, 1391.1, 659.0)">n</text><text xml:space="preserve" font-family="Helvetica-Light,Helvetica" font-size="40.0" fill="#FEFFFF" transform="matrix(1.00, 0.00, -0.00, -1.00, 1413.4, 659.0)"> </text><text xml:space="preserve" font-family="Helvetica-Light,Helvetica" font-size="40.0" fill="#FEFFFF" transform="matrix(1.00, 0.00, -0.00, -1.00, 1424.5, 659.0)">t</text><text xml:space="preserve" font-family="Helvetica-Light,Helvetica" font-size="40.0" fill="#FEFFFF" transform="matrix(1.00, 0.00, -0.00, -1.00, 1435.6, 659.0)">h</text><text xml:space="preserve" font-family="Helvetica-Light,Helvetica" font-size="40.0" fill="#FEFFFF" transform="matrix(1.00, 0.00, -0.00, -1.00, 1457.9, 659.0)">e</text><text xml:space="preserve" font-family="Helvetica-Light,Helvetica" font-size="40.0" fill="#FEFFFF" transform="matrix(1.00, 0.00, -0.00, -1.00, 1480.1, 659.0)"> </text><text xml:space="preserve" font-family="Helvetica-Light,Helvetica" font-size="40.0" fill="#FEFFFF" transform="matrix(1.00, 0.00, -0.00, -1.00, 1491.2, 659.0)">e</text><text xml:space="preserve" font-family="Helvetica-Light,Helvetica" font-size="40.0" fill="#FEFFFF" transform="matrix(1.00, 0.00, -0.00, -1.00, 1513.5, 659.0)">x</text><text xml:space="preserve" font-family="Helvetica-Light,Helvetica" font-size="40.0" fill="#FEFFFF" transform="matrix(1.00, 0.00, -0.00, -1.00, 1533.5, 659.0)">a</text><text xml:space="preserve" font-family="Helvetica-Light,Helvetica" font-size="40.0" fill="#FEFFFF" transform="matrix(1.00, 0.00, -0.00, -1.00, 1555.7, 659.0)">m</text><text xml:space="preserve" font-family="Helvetica-Light,Helvetica" font-size="40.0" fill="#FEFFFF" transform="matrix(1.00, 0.00, -0.00, -1.00, 1589.0, 659.0)">p</text><text xml:space="preserve" font-family="Helvetica-Light,Helvetica" font-size="40.0" fill="#FEFFFF" transform="matrix(1.00, 0.00, -0.00, -1.00, 1613.5, 659.0)">l</text><text xml:space="preserve" font-family="Helvetica-Light,Helvetica" font-size="40.0" fill="#FEFFFF" transform="matrix(1.00, 0.00, -0.00, -1.00, 1622.3, 659.0)">e</text><text xml:space="preserve" font-family="Helvetica-Light,Helvetica" font-size="40.0" fill="#FEFFFF" transform="matrix(1.00, 0.00, -0.00, -1.00, 1644.6, 659.0)"> </text><text xml:space="preserve" font-family="Helvetica-Light,Helvetica" font-size="40.0" fill="#FEFFFF" transform="matrix(1.00, 0.00, -0.00, -1.00, 1655.7, 659.0)">t</text><text xml:space="preserve" font-family="Helvetica-Light,Helvetica" font-size="40.0" fill="#FEFFFF" transform="matrix(1.00, 0.00, -0.00, -1.00, 1666.8, 659.0)">h</text><text xml:space="preserve" font-family="Helvetica-Light,Helvetica" font-size="40.0" fill="#FEFFFF" transform="matrix(1.00, 0.00, -0.00, -1.00, 1689.1, 659.0)">e</text><text xml:space="preserve" font-family="Helvetica-Light,Helvetica" font-size="40.0" fill="#FEFFFF" transform="matrix(1.00, 0.00, -0.00, -1.00, 1711.3, 659.0)"> </text><text xml:space="preserve" font-family="Helvetica-Light,Helvetica" font-size="40.0" fill="#FEFFFF" transform="matrix(1.00, 0.00, -0.00, -1.00, 1380.0, 587.0)">m</text><text xml:space="preserve" font-family="Helvetica-Light,Helvetica" font-size="40.0" fill="#FEFFFF" transform="matrix(1.00, 0.00, -0.00, -1.00, 1413.3, 587.0)">e</text><text xml:space="preserve" font-family="Helvetica-Light,Helvetica" font-size="40.0" fill="#FEFFFF" transform="matrix(1.00, 0.00, -0.00, -1.00, 1435.6, 587.0)">s</text><text xml:space="preserve" font-family="Helvetica-Light,Helvetica" font-size="40.0" fill="#FEFFFF" transform="matrix(1.00, 0.00, -0.00, -1.00, 1455.6, 587.0)">s</text><text xml:space="preserve" font-family="Helvetica-Light,Helvetica" font-size="40.0" fill="#FEFFFF" transform="matrix(1.00, 0.00, -0.00, -1.00, 1475.6, 587.0)">a</text><text xml:space="preserve" font-family="Helvetica-Light,Helvetica" font-size="40.0" fill="#FEFFFF" transform="matrix(1.00, 0.00, -0.00, -1.00, 1497.8, 587.0)">g</text><text xml:space="preserve" font-family="Helvetica-Light,Helvetica" font-size="40.0" fill="#FEFFFF" transform="matrix(1.00, 0.00, -0.00, -1.00, 1522.3, 587.0)">e</text><text xml:space="preserve" font-family="Helvetica-Light,Helvetica" font-size="40.0" fill="#FEFFFF" transform="matrix(1.00, 0.00, -0.00, -1.00, 1544.5, 587.0)"> </text><text xml:space="preserve" font-family="Helvetica-Light,Helvetica" font-size="40.0" fill="#FEFFFF" transform="matrix(1.00, 0.00, -0.00, -1.00, 1555.6, 587.0)">w</text><text xml:space="preserve" font-family="Helvetica-Light,Helvetica" font-size="40.0" fill="#FEFFFF" transform="matrix(1.00, 0.00, -0.00, -1.00, 1584.5, 587.0)">i</text><text xml:space="preserve" font-family="Helvetica-Light,Helvetica" font-size="40.0" fill="#FEFFFF" transform="matrix(1.00, 0.00, -0.00, -1.00, 1593.4, 587.0)">l</text><text xml:space="preserve" font-family="Helvetica-Light,Helvetica" font-size="40.0" fill="#FEFFFF" transform="matrix(1.00, 0.00, -0.00, -1.00, 1602.3, 587.0)">l</text><text xml:space="preserve" font-family="Helvetica-Light,Helvetica" font-size="40.0" fill="#FEFFFF" transform="matrix(1.00, 0.00, -0.00, -1.00, 1611.1, 587.0)"> </text><text xml:space="preserve" font-family="Helvetica-Light,Helvetica" font-size="40.0" fill="#FEFFFF" transform="matrix(1.00, 0.00, -0.00, -1.00, 1622.3, 587.0)">b</text><text xml:space="preserve" font-family="Helvetica-Light,Helvetica" font-size="40.0" fill="#FEFFFF" transform="matrix(1.00, 0.00, -0.00, -1.00, 1646.7, 587.0)">e</text><text xml:space="preserve" font-family="Helvetica-Light,Helvetica" font-size="40.0" fill="#FEFFFF" transform="matrix(1.00, 0.00, -0.00, -1.00, 1668.9, 587.0)"> </text><text xml:space="preserve" font-family="Helvetica-Light,Helvetica" font-size="40.0" fill="#FEFFFF" transform="matrix(1.00, 0.00, -0.00, -1.00, 1680.1, 587.0)">d</text><text xml:space="preserve" font-family="Helvetica-Light,Helvetica" font-size="40.0" fill="#FEFFFF" transform="matrix(1.00, 0.00, -0.00, -1.00, 1704.5, 587.0)">e</text><text xml:space="preserve" font-family="Helvetica-Light,Helvetica" font-size="40.0" fill="#FEFFFF" transform="matrix(1.00, 0.00, -0.00, -1.00, 1726.7, 587.0)">l</text><text xml:space="preserve" font-family="Helvetica-Light,Helvetica" font-size="40.0" fill="#FEFFFF" transform="matrix(1.00, 0.00, -0.00, -1.00, 1735.6, 587.0)">i</text><text xml:space="preserve" font-family="Helvetica-Light,Helvetica" font-size="40.0" fill="#FEFFFF" transform="matrix(1.00, 0.00, -0.00, -1.00, 1744.5, 587.0)">v</text><text xml:space="preserve" font-family="Helvetica-Light,Helvetica" font-size="40.0" fill="#FEFFFF" transform="matrix(1.00, 0.00, -0.00, -1.00, 1764.5, 587.0)">e</text><text xml:space="preserve" font-family="Helvetica-Light,Helvetica" font-size="40.0" fill="#FEFFFF" transform="matrix(1.00, 0.00, -0.00, -1.00, 1786.7, 587.0)">r</text><text xml:space="preserve" font-family="Helvetica-Light,Helvetica" font-size="40.0" fill="#FEFFFF" transform="matrix(1.00, 0.00, -0.00, -1.00, 1799.3, 587.0)">e</text><text xml:space="preserve" font-family="Helvetica-Light,Helvetica" font-size="40.0" fill="#FEFFFF" transform="matrix(1.00, 0.00, -0.00, -1.00, 1821.6, 587.0)">d</text><text xml:space="preserve" font-family="Helvetica-Light,Helvetica" font-size="40.0" fill="#FEFFFF" transform="matrix(1.00, 0.00, -0.00, -1.00, 1846.0, 587.0)"> </text><text xml:space="preserve" font-family="Helvetica-Light,Helvetica" font-size="40.0" fill="#FEFFFF" transform="matrix(1.00, 0.00, -0.00, -1.00, 1380.0, 515.0)">t</text><text xml:space="preserve" font-family="Helvetica-Light,Helvetica" font-size="40.0" fill="#FEFFFF" transform="matrix(1.00, 0.00, -0.00, -1.00, 1391.1, 515.0)">o</text><text xml:space="preserve" font-family="Helvetica-Light,Helvetica" font-size="40.0" fill="#FEFFFF" transform="matrix(1.00, 0.00, -0.00, -1.00, 1413.4, 515.0)"> </text><text xml:space="preserve" font-family="Helvetica-Light,Helvetica" font-size="40.0" fill="#FEFFFF" transform="matrix(1.00, 0.00, -0.00, -1.00, 1424.5, 515.0)">a</text><text xml:space="preserve" font-family="Helvetica-Light,Helvetica" font-size="40.0" fill="#FEFFFF" transform="matrix(1.00, 0.00, -0.00, -1.00, 1446.7, 515.0)">l</text><text xml:space="preserve" font-family="Helvetica-Light,Helvetica" font-size="40.0" fill="#FEFFFF" transform="matrix(1.00, 0.00, -0.00, -1.00, 1455.6, 515.0)">l</text><text xml:space="preserve" font-family="Helvetica-Light,Helvetica" font-size="40.0" fill="#FEFFFF" transform="matrix(1.00, 0.00, -0.00, -1.00, 1464.5, 515.0)"> </text><text xml:space="preserve" font-family="Helvetica-Light,Helvetica" font-size="40.0" fill="#FEFFFF" transform="matrix(1.00, 0.00, -0.00, -1.00, 1475.6, 515.0)">t</text><text xml:space="preserve" font-family="Helvetica-Light,Helvetica" font-size="40.0" fill="#FEFFFF" transform="matrix(1.00, 0.00, -0.00, -1.00, 1486.7, 515.0)">h</text><text xml:space="preserve" font-family="Helvetica-Light,Helvetica" font-size="40.0" fill="#FEFFFF" transform="matrix(1.00, 0.00, -0.00, -1.00, 1509.0, 515.0)">e</text><text xml:space="preserve" font-family="Helvetica-Light,Helvetica" font-size="40.0" fill="#FEFFFF" transform="matrix(1.00, 0.00, -0.00, -1.00, 1531.2, 515.0)"> </text><text xml:space="preserve" font-family="Helvetica-Light,Helvetica" font-size="40.0" fill="#FEFFFF" transform="matrix(1.00, 0.00, -0.00, -1.00, 1542.3, 515.0)">c</text><text xml:space="preserve" font-family="Helvetica-Light,Helvetica" font-size="40.0" fill="#FEFFFF" transform="matrix(1.00, 0.00, -0.00, -1.00, 1564.6, 515.0)">o</text><text xml:space="preserve" font-family="Helvetica-Light,Helvetica" font-size="40.0" fill="#FEFFFF" transform="matrix(1.00, 0.00, -0.00, -1.00, 1586.8, 515.0)">n</text><text xml:space="preserve" font-family="Helvetica-Light,Helvetica" font-size="40.0" fill="#FEFFFF" transform="matrix(1.00, 0.00, -0.00, -1.00, 1609.1, 515.0)">n</text><text xml:space="preserve" font-family="Helvetica-Light,Helvetica" font-size="40.0" fill="#FEFFFF" transform="matrix(1.00, 0.00, -0.00, -1.00, 1631.3, 515.0)">e</text><text xml:space="preserve" font-family="Helvetica-Light,Helvetica" font-size="40.0" fill="#FEFFFF" transform="matrix(1.00, 0.00, -0.00, -1.00, 1653.5, 515.0)">c</text><text xml:space="preserve" font-family="Helvetica-Light,Helvetica" font-size="40.0" fill="#FEFFFF" transform="matrix(1.00, 0.00, -0.00, -1.00, 1675.8, 515.0)">t</text><text xml:space="preserve" font-family="Helvetica-Light,Helvetica" font-size="40.0" fill="#FEFFFF" transform="matrix(1.00, 0.00, -0.00, -1.00, 1686.9, 515.0)">e</text><text xml:space="preserve" font-family="Helvetica-Light,Helvetica" font-size="40.0" fill="#FEFFFF" transform="matrix(1.00, 0.00, -0.00, -1.00, 1709.1, 515.0)">d</text><text xml:space="preserve" font-family="Helvetica-Light,Helvetica" font-size="40.0" fill="#FEFFFF" transform="matrix(1.00, 0.00, -0.00, -1.00, 1733.6, 515.0)"> </text><text xml:space="preserve" font-family="Helvetica-Light,Helvetica" font-size="40.0" fill="#FEFFFF" transform="matrix(1.00, 0.00, -0.00, -1.00, 1380.0, 443.0)">s</text><text xml:space="preserve" font-family="Helvetica-Light,Helvetica" font-size="40.0" fill="#FEFFFF" transform="matrix(1.00, 0.00, -0.00, -1.00, 1400.0, 443.0)">e</text><text xml:space="preserve" font-family="Helvetica-Light,Helvetica" font-size="40.0" fill="#FEFFFF" transform="matrix(1.00, 0.00, -0.00, -1.00, 1422.3, 443.0)">r</text><text xml:space="preserve" font-family="Helvetica-Light,Helvetica" font-size="40.0" fill="#FEFFFF" transform="matrix(1.00, 0.00, -0.00, -1.00, 1435.6, 443.0)">v</text><text xml:space="preserve" font-family="Helvetica-Light,Helvetica" font-size="40.0" fill="#FEFFFF" transform="matrix(1.00, 0.00, -0.00, -1.00, 1455.6, 443.0)">i</text><text xml:space="preserve" font-family="Helvetica-Light,Helvetica" font-size="40.0" fill="#FEFFFF" transform="matrix(1.00, 0.00, -0.00, -1.00, 1464.5, 443.0)">c</text><text xml:space="preserve" font-family="Helvetica-Light,Helvetica" font-size="40.0" fill="#FEFFFF" transform="matrix(1.00, 0.00, -0.00, -1.00, 1486.7, 443.0)">e</text><text xml:space="preserve" font-family="Helvetica-Light,Helvetica" font-size="40.0" fill="#FEFFFF" transform="matrix(1.00, 0.00, -0.00, -1.00, 1508.9, 443.0)">s</text></g></svg>