<?xml version="1.0" encoding="UTF-8" standalone="no"?><svg xmlns="http://www.w3.org/2000/svg" xmlns:xlink="http://www.w3.org/1999/xlink" clip-rule="evenodd" stroke-miterlimit="10" viewBox="0 0 210 34"><desc>SVG generated by Keynote</desc><defs></defs><g transform="matrix(1.00, 0.00, -0.00, -1.00, 0.0, 34.0)"><text xml:space="preserve" font-family="OpenSans,Open Sans" font-size="30.0" fill="#FEFFFF" transform="matrix(1.00, 0.00, -0.00, -1.00, -1.2, 9.8)">M</text><text xml:space="preserve" font-family="OpenSans,Open Sans" font-size="30.0" fill="#FEFFFF" transform="matrix(1.00, 0.00, -0.00, -1.00, 25.9, 9.8)">a</text><text xml:space="preserve" font-family="OpenSans,Open Sans" font-size="30.0" fill="#FEFFFF" transform="matrix(1.00, 0.00, -0.00, -1.00, 42.6, 9.8)">i</text><text xml:space="preserve" font-family="OpenSans,Open Sans" font-size="30.0" fill="#FEFFFF" transform="matrix(1.00, 0.00, -0.00, -1.00, 50.2, 9.8)">n</text><text xml:space="preserve" font-family="OpenSans,Open Sans" font-size="30.0" fill="#FEFFFF" transform="matrix(1.00, 0.00, -0.00, -1.00, 68.6, 9.8)"> </text><text xml:space="preserve" font-family="OpenSans,Open Sans" font-size="30.0" fill="#FEFFFF" transform="matrix(1.00, 0.00, -0.00, -1.00, 76.4, 9.8)">E</text><text xml:space="preserve" font-family="OpenSans,Open Sans" font-size="30.0" fill="#FEFFFF" transform="matrix(1.00, 0.00, -0.00, -1.00, 93.1, 9.8)">x</text><text xml:space="preserve" font-family="OpenSans,Open Sans" font-size="30.0" fill="#FEFFFF" transform="matrix(1.00, 0.00, -0.00, -1.00, 108.2, 9.8)">c</text><text xml:space="preserve" font-family="OpenSans,Open Sans" font-size="30.0" fill="#FEFFFF" transform="matrix(1.00, 0.00, -0.00, -1.00, 122.4, 9.8)">h</text><text xml:space="preserve" font-family="OpenSans,Open Sans" font-size="30.0" fill="#FEFFFF" transform="matrix(1.00, 0.00, -0.00, -1.00, 140.8, 9.8)">a</text><text xml:space="preserve" font-family="OpenSans,Open Sans" font-size="30.0" fill="#FEFFFF" transform="matrix(1.00, 0.00, -0.00, -1.00, 157.5, 9.8)">n</text><text xml:space="preserve" font-family="OpenSans,Open Sans" font-size="30.0" fill="#FEFFFF" transform="matrix(1.00, 0.00, -0.00, -1.00, 175.9, 9.8)">g</text><text xml:space="preserve" font-family="OpenSans,Open Sans" font-size="30.0" fill="#FEFFFF" transform="matrix(1.00, 0.00, -0.00, -1.00, 192.4, 9.8)">e</text></g></svg>