<?xml version="1.0" encoding="UTF-8" standalone="no"?><svg xmlns="http://www.w3.org/2000/svg" xmlns:xlink="http://www.w3.org/1999/xlink" clip-rule="evenodd" stroke-miterlimit="10" viewBox="0 0 532 32"><desc>SVG generated by Keynote</desc><defs></defs><g transform="matrix(1.00, 0.00, -0.00, -1.00, 0.0, 32.0)"><text xml:space="preserve" font-family="OpenSans,Open Sans" font-size="30.0" fill="#FEFFFF" transform="matrix(1.00, 0.00, -0.00, -1.00, 0.1, 7.8)">S</text><text xml:space="preserve" font-family="OpenSans,Open Sans" font-size="30.0" fill="#FEFFFF" transform="matrix(1.00, 0.00, -0.00, -1.00, 16.5, 7.8)">T</text><text xml:space="preserve" font-family="OpenSans,Open Sans" font-size="30.0" fill="#FEFFFF" transform="matrix(1.00, 0.00, -0.00, -1.00, 32.5, 7.8)">O</text><text xml:space="preserve" font-family="OpenSans,Open Sans" font-size="30.0" fill="#FEFFFF" transform="matrix(1.00, 0.00, -0.00, -1.00, 55.9, 7.8)">M</text><text xml:space="preserve" font-family="OpenSans,Open Sans" font-size="30.0" fill="#FEFFFF" transform="matrix(1.00, 0.00, -0.00, -1.00, 83.0, 7.8)">P</text><text xml:space="preserve" font-family="OpenSans,Open Sans" font-size="30.0" fill="#FEFFFF" transform="matrix(1.00, 0.00, -0.00, -1.00, 97.1, 7.8)">,</text><text xml:space="preserve" font-family="OpenSans,Open Sans" font-size="30.0" fill="#FEFFFF" transform="matrix(1.00, 0.00, -0.00, -1.00, 104.5, 7.8)"> </text><text xml:space="preserve" font-family="OpenSans,Open Sans" font-size="30.0" fill="#FEFFFF" transform="matrix(1.00, 0.00, -0.00, -1.00, 112.3, 7.8)">M</text><text xml:space="preserve" font-family="OpenSans,Open Sans" font-size="30.0" fill="#FEFFFF" transform="matrix(1.00, 0.00, -0.00, -1.00, 139.3, 7.8)">Q</text><text xml:space="preserve" font-family="OpenSans,Open Sans" font-size="30.0" fill="#FEFFFF" transform="matrix(1.00, 0.00, -0.00, -1.00, 161.8, 7.8)">T</text><text xml:space="preserve" font-family="OpenSans,Open Sans" font-size="30.0" fill="#FEFFFF" transform="matrix(1.00, 0.00, -0.00, -1.00, 179.0, 7.8)">T</text><text xml:space="preserve" font-family="OpenSans,Open Sans" font-size="30.0" fill="#FEFFFF" transform="matrix(1.00, 0.00, -0.00, -1.00, 193.8, 7.8)">,</text><text xml:space="preserve" font-family="OpenSans,Open Sans" font-size="30.0" fill="#FEFFFF" transform="matrix(1.00, 0.00, -0.00, -1.00, 201.2, 7.8)"> </text><text xml:space="preserve" font-family="OpenSans,Open Sans" font-size="30.0" fill="#FEFFFF" transform="matrix(1.00, 0.00, -0.00, -1.00, 209.0, 7.8)">C</text><text xml:space="preserve" font-family="OpenSans,Open Sans" font-size="30.0" fill="#FEFFFF" transform="matrix(1.00, 0.00, -0.00, -1.00, 227.9, 7.8)">u</text><text xml:space="preserve" font-family="OpenSans,Open Sans" font-size="30.0" fill="#FEFFFF" transform="matrix(1.00, 0.00, -0.00, -1.00, 246.3, 7.8)">s</text><text xml:space="preserve" font-family="OpenSans,Open Sans" font-size="30.0" fill="#FEFFFF" transform="matrix(1.00, 0.00, -0.00, -1.00, 260.6, 7.8)">t</text><text xml:space="preserve" font-family="OpenSans,Open Sans" font-size="30.0" fill="#FEFFFF" transform="matrix(1.00, 0.00, -0.00, -1.00, 271.2, 7.8)">o</text><text xml:space="preserve" font-family="OpenSans,Open Sans" font-size="30.0" fill="#FEFFFF" transform="matrix(1.00, 0.00, -0.00, -1.00, 289.3, 7.8)">m</text><text xml:space="preserve" font-family="OpenSans,Open Sans" font-size="30.0" fill="#FEFFFF" transform="matrix(1.00, 0.00, -0.00, -1.00, 317.2, 7.8)"> </text><text xml:space="preserve" font-family="OpenSans,Open Sans" font-size="30.0" fill="#FEFFFF" transform="matrix(1.00, 0.00, -0.00, -1.00, 325.0, 7.8)">W</text><text xml:space="preserve" font-family="OpenSans,Open Sans" font-size="30.0" fill="#FEFFFF" transform="matrix(1.00, 0.00, -0.00, -1.00, 352.8, 7.8)">S</text><text xml:space="preserve" font-family="OpenSans,Open Sans" font-size="30.0" fill="#FEFFFF" transform="matrix(1.00, 0.00, -0.00, -1.00, 369.2, 7.8)"> </text><text xml:space="preserve" font-family="OpenSans,Open Sans" font-size="30.0" fill="#FEFFFF" transform="matrix(1.00, 0.00, -0.00, -1.00, 377.0, 7.8)">P</text><text xml:space="preserve" font-family="OpenSans,Open Sans" font-size="30.0" fill="#FEFFFF" transform="matrix(1.00, 0.00, -0.00, -1.00, 395.1, 7.8)">r</text><text xml:space="preserve" font-family="OpenSans,Open Sans" font-size="30.0" fill="#FEFFFF" transform="matrix(1.00, 0.00, -0.00, -1.00, 406.7, 7.8)">o</text><text xml:space="preserve" font-family="OpenSans,Open Sans" font-size="30.0" fill="#FEFFFF" transform="matrix(1.00, 0.00, -0.00, -1.00, 424.9, 7.8)">t</text><text xml:space="preserve" font-family="OpenSans,Open Sans" font-size="30.0" fill="#FEFFFF" transform="matrix(1.00, 0.00, -0.00, -1.00, 435.4, 7.8)">o</text><text xml:space="preserve" font-family="OpenSans,Open Sans" font-size="30.0" fill="#FEFFFF" transform="matrix(1.00, 0.00, -0.00, -1.00, 453.6, 7.8)">c</text><text xml:space="preserve" font-family="OpenSans,Open Sans" font-size="30.0" fill="#FEFFFF" transform="matrix(1.00, 0.00, -0.00, -1.00, 467.9, 7.8)">o</text><text xml:space="preserve" font-family="OpenSans,Open Sans" font-size="30.0" fill="#FEFFFF" transform="matrix(1.00, 0.00, -0.00, -1.00, 486.0, 7.8)">l</text><text xml:space="preserve" font-family="OpenSans,Open Sans" font-size="30.0" fill="#FEFFFF" transform="matrix(1.00, 0.00, -0.00, -1.00, 493.6, 7.8)">,</text><text xml:space="preserve" font-family="OpenSans,Open Sans" font-size="30.0" fill="#FEFFFF" transform="matrix(1.00, 0.00, -0.00, -1.00, 500.9, 7.8)"> </text><text xml:space="preserve" font-family="OpenSans,Open Sans" font-size="30.0" fill="#FEFFFF" transform="matrix(1.00, 0.00, -0.00, -1.00, 508.7, 7.8)">…</text></g></svg>