<?xml version="1.0" encoding="UTF-8" standalone="no"?><svg xmlns="http://www.w3.org/2000/svg" xmlns:xlink="http://www.w3.org/1999/xlink" clip-rule="evenodd" stroke-miterlimit="10" viewBox="0 0 214 106"><desc>SVG generated by Keynote</desc><defs></defs><g transform="matrix(1.00, 0.00, -0.00, -1.00, 0.0, 106.0)"><path d="M 2.0 105.0 L 212.0 105.0 L 212.0 2.0 L 2.0 2.0 Z M 1.9 104.9 " fill="#FEFFFE"></path><g><clipPath id="clip0x6000010aedc0"><path d="M -1.6 2.0 L 215.5 2.0 L 215.5 104.9 L -1.6 104.9 Z M -1.6 2.0 "></path></clipPath><g clip-path="url(#clip0x6000010aedc0)"><text xml:space="preserve" font-family="Helvetica-Light,Helvetica" font-size="30.0" fill="#024336" transform="matrix(1.00, 0.00, -0.00, -1.00, 37.8, 59.8)">M</text><text xml:space="preserve" font-family="Helvetica-Light,Helvetica" font-size="30.0" fill="#024336" transform="matrix(1.00, 0.00, -0.00, -1.00, 62.8, 59.8)">e</text><text xml:space="preserve" font-family="Helvetica-Light,Helvetica" font-size="30.0" fill="#024336" transform="matrix(1.00, 0.00, -0.00, -1.00, 79.4, 59.8)">s</text><text xml:space="preserve" font-family="Helvetica-Light,Helvetica" font-size="30.0" fill="#024336" transform="matrix(1.00, 0.00, -0.00, -1.00, 94.4, 59.8)">s</text><text xml:space="preserve" font-family="Helvetica-Light,Helvetica" font-size="30.0" fill="#024336" transform="matrix(1.00, 0.00, -0.00, -1.00, 109.4, 59.8)">a</text><text xml:space="preserve" font-family="Helvetica-Light,Helvetica" font-size="30.0" fill="#024336" transform="matrix(1.00, 0.00, -0.00, -1.00, 126.1, 59.8)">g</text><text xml:space="preserve" font-family="Helvetica-Light,Helvetica" font-size="30.0" fill="#024336" transform="matrix(1.00, 0.00, -0.00, -1.00, 144.5, 59.8)">e</text><text xml:space="preserve" font-family="Helvetica-Light,Helvetica" font-size="30.0" fill="#024336" transform="matrix(1.00, 0.00, -0.00, -1.00, 161.1, 59.8)">s</text><text xml:space="preserve" font-family="Helvetica-Light,Helvetica" font-size="30.0" fill="#024336" transform="matrix(1.00, 0.00, -0.00, -1.00, 176.1, 59.8)"> </text><text xml:space="preserve" font-family="Helvetica-Light,Helvetica" font-size="30.0" fill="#024336" transform="matrix(1.00, 0.00, -0.00, -1.00, 56.9, 23.8)">S</text><text xml:space="preserve" font-family="Helvetica-Light,Helvetica" font-size="30.0" fill="#024336" transform="matrix(1.00, 0.00, -0.00, -1.00, 75.3, 23.8)">e</text><text xml:space="preserve" font-family="Helvetica-Light,Helvetica" font-size="30.0" fill="#024336" transform="matrix(1.00, 0.00, -0.00, -1.00, 92.0, 23.8)">r</text><text xml:space="preserve" font-family="Helvetica-Light,Helvetica" font-size="30.0" fill="#024336" transform="matrix(1.00, 0.00, -0.00, -1.00, 101.9, 23.8)">v</text><text xml:space="preserve" font-family="Helvetica-Light,Helvetica" font-size="30.0" fill="#024336" transform="matrix(1.00, 0.00, -0.00, -1.00, 116.9, 23.8)">i</text><text xml:space="preserve" font-family="Helvetica-Light,Helvetica" font-size="30.0" fill="#024336" transform="matrix(1.00, 0.00, -0.00, -1.00, 123.6, 23.8)">c</text><text xml:space="preserve" font-family="Helvetica-Light,Helvetica" font-size="30.0" fill="#024336" transform="matrix(1.00, 0.00, -0.00, -1.00, 140.3, 23.8)">e</text></g></g></g></svg>