<?xml version="1.0" encoding="UTF-8" standalone="no"?><svg xmlns="http://www.w3.org/2000/svg" xmlns:xlink="http://www.w3.org/1999/xlink" clip-rule="evenodd" stroke-miterlimit="10" viewBox="0 0 210 34"><desc>SVG generated by Keynote</desc><defs></defs><g transform="matrix(1.00, 0.00, -0.00, -1.00, 0.0, 34.0)"><text xml:space="preserve" font-family="OpenSans,Open Sans" font-size="30.0" fill="#FEFFFF" transform="matrix(1.00, 0.00, -0.00, -1.00, -0.8, 9.6)">M</text><text xml:space="preserve" font-family="OpenSans,Open Sans" font-size="30.0" fill="#FEFFFF" transform="matrix(1.00, 0.00, -0.00, -1.00, 26.2, 9.6)">a</text><text xml:space="preserve" font-family="OpenSans,Open Sans" font-size="30.0" fill="#FEFFFF" transform="matrix(1.00, 0.00, -0.00, -1.00, 42.9, 9.6)">i</text><text xml:space="preserve" font-family="OpenSans,Open Sans" font-size="30.0" fill="#FEFFFF" transform="matrix(1.00, 0.00, -0.00, -1.00, 50.5, 9.6)">n</text><text xml:space="preserve" font-family="OpenSans,Open Sans" font-size="30.0" fill="#FEFFFF" transform="matrix(1.00, 0.00, -0.00, -1.00, 68.9, 9.6)"> </text><text xml:space="preserve" font-family="OpenSans,Open Sans" font-size="30.0" fill="#FEFFFF" transform="matrix(1.00, 0.00, -0.00, -1.00, 76.7, 9.6)">E</text><text xml:space="preserve" font-family="OpenSans,Open Sans" font-size="30.0" fill="#FEFFFF" transform="matrix(1.00, 0.00, -0.00, -1.00, 93.4, 9.6)">x</text><text xml:space="preserve" font-family="OpenSans,Open Sans" font-size="30.0" fill="#FEFFFF" transform="matrix(1.00, 0.00, -0.00, -1.00, 108.5, 9.6)">c</text><text xml:space="preserve" font-family="OpenSans,Open Sans" font-size="30.0" fill="#FEFFFF" transform="matrix(1.00, 0.00, -0.00, -1.00, 122.8, 9.6)">h</text><text xml:space="preserve" font-family="OpenSans,Open Sans" font-size="30.0" fill="#FEFFFF" transform="matrix(1.00, 0.00, -0.00, -1.00, 141.2, 9.6)">a</text><text xml:space="preserve" font-family="OpenSans,Open Sans" font-size="30.0" fill="#FEFFFF" transform="matrix(1.00, 0.00, -0.00, -1.00, 157.8, 9.6)">n</text><text xml:space="preserve" font-family="OpenSans,Open Sans" font-size="30.0" fill="#FEFFFF" transform="matrix(1.00, 0.00, -0.00, -1.00, 176.2, 9.6)">g</text><text xml:space="preserve" font-family="OpenSans,Open Sans" font-size="30.0" fill="#FEFFFF" transform="matrix(1.00, 0.00, -0.00, -1.00, 192.7, 9.6)">e</text></g></svg>