<?xml version="1.0" encoding="UTF-8" standalone="no"?><svg xmlns="http://www.w3.org/2000/svg" xmlns:xlink="http://www.w3.org/1999/xlink" clip-rule="evenodd" stroke-miterlimit="10" viewBox="0 0 213 106"><desc>SVG generated by Keynote</desc><defs></defs><g transform="matrix(1.00, 0.00, -0.00, -1.00, 0.0, 106.0)"><path d="M 1.0 105.0 L 211.0 105.0 L 211.0 2.0 L 1.0 2.0 Z M 1.0 104.9 " fill="#FEFFFE"></path><g><clipPath id="clip0x6000010b0140"><path d="M -2.5 2.0 L 214.7 2.0 L 214.7 104.9 L -2.5 104.9 Z M -2.5 2.0 "></path></clipPath><g clip-path="url(#clip0x6000010b0140)"><text xml:space="preserve" font-family="Helvetica-Light,Helvetica" font-size="30.0" fill="#024336" transform="matrix(1.00, 0.00, -0.00, -1.00, 63.6, 59.8)">H</text><text xml:space="preserve" font-family="Helvetica-Light,Helvetica" font-size="30.0" fill="#024336" transform="matrix(1.00, 0.00, -0.00, -1.00, 85.3, 59.8)">o</text><text xml:space="preserve" font-family="Helvetica-Light,Helvetica" font-size="30.0" fill="#024336" transform="matrix(1.00, 0.00, -0.00, -1.00, 101.9, 59.8)">o</text><text xml:space="preserve" font-family="Helvetica-Light,Helvetica" font-size="30.0" fill="#024336" transform="matrix(1.00, 0.00, -0.00, -1.00, 118.6, 59.8)">k</text><text xml:space="preserve" font-family="Helvetica-Light,Helvetica" font-size="30.0" fill="#024336" transform="matrix(1.00, 0.00, -0.00, -1.00, 133.6, 59.8)">s</text><text xml:space="preserve" font-family="Helvetica-Light,Helvetica" font-size="30.0" fill="#024336" transform="matrix(1.00, 0.00, -0.00, -1.00, 148.6, 59.8)"> </text><text xml:space="preserve" font-family="Helvetica-Light,Helvetica" font-size="30.0" fill="#024336" transform="matrix(1.00, 0.00, -0.00, -1.00, 56.1, 23.8)">S</text><text xml:space="preserve" font-family="Helvetica-Light,Helvetica" font-size="30.0" fill="#024336" transform="matrix(1.00, 0.00, -0.00, -1.00, 74.4, 23.8)">e</text><text xml:space="preserve" font-family="Helvetica-Light,Helvetica" font-size="30.0" fill="#024336" transform="matrix(1.00, 0.00, -0.00, -1.00, 91.1, 23.8)">r</text><text xml:space="preserve" font-family="Helvetica-Light,Helvetica" font-size="30.0" fill="#024336" transform="matrix(1.00, 0.00, -0.00, -1.00, 101.1, 23.8)">v</text><text xml:space="preserve" font-family="Helvetica-Light,Helvetica" font-size="30.0" fill="#024336" transform="matrix(1.00, 0.00, -0.00, -1.00, 116.1, 23.8)">i</text><text xml:space="preserve" font-family="Helvetica-Light,Helvetica" font-size="30.0" fill="#024336" transform="matrix(1.00, 0.00, -0.00, -1.00, 122.8, 23.8)">c</text><text xml:space="preserve" font-family="Helvetica-Light,Helvetica" font-size="30.0" fill="#024336" transform="matrix(1.00, 0.00, -0.00, -1.00, 139.4, 23.8)">e</text></g></g></g></svg>