<?xml version="1.0" encoding="UTF-8" standalone="no"?><svg xmlns="http://www.w3.org/2000/svg" xmlns:xlink="http://www.w3.org/1999/xlink" clip-rule="evenodd" stroke-miterlimit="10" viewBox="0 0 510 21"><desc>SVG generated by Keynote</desc><defs></defs><g transform="matrix(1.00, 0.00, -0.00, -1.00, 0.0, 21.0)"><text xml:space="preserve" font-family="AndaleMono,Andale Mono" font-size="25.0" fill="#FEFFFF" transform="matrix(1.00, 0.00, -0.00, -1.00, 0.7, 1.8)">v</text><text xml:space="preserve" font-family="AndaleMono,Andale Mono" font-size="25.0" fill="#FEFFFF" transform="matrix(1.00, 0.00, -0.00, -1.00, 15.7, 1.8)">1</text><text xml:space="preserve" font-family="AndaleMono,Andale Mono" font-size="25.0" fill="#FEFFFF" transform="matrix(1.00, 0.00, -0.00, -1.00, 30.7, 1.8)">.</text><text xml:space="preserve" font-family="AndaleMono,Andale Mono" font-size="25.0" fill="#FEFFFF" transform="matrix(1.00, 0.00, -0.00, -1.00, 45.7, 1.8)">u</text><text xml:space="preserve" font-family="AndaleMono,Andale Mono" font-size="25.0" fill="#FEFFFF" transform="matrix(1.00, 0.00, -0.00, -1.00, 60.7, 1.8)">s</text><text xml:space="preserve" font-family="AndaleMono,Andale Mono" font-size="25.0" fill="#FEFFFF" transform="matrix(1.00, 0.00, -0.00, -1.00, 75.7, 1.8)">e</text><text xml:space="preserve" font-family="AndaleMono,Andale Mono" font-size="25.0" fill="#FEFFFF" transform="matrix(1.00, 0.00, -0.00, -1.00, 90.7, 1.8)">r</text><text xml:space="preserve" font-family="AndaleMono,Andale Mono" font-size="25.0" fill="#FEFFFF" transform="matrix(1.00, 0.00, -0.00, -1.00, 105.7, 1.8)">.</text><text xml:space="preserve" font-family="AndaleMono,Andale Mono" font-size="25.0" fill="#FEFFFF" transform="matrix(1.00, 0.00, -0.00, -1.00, 120.7, 1.8)">f</text><text xml:space="preserve" font-family="AndaleMono,Andale Mono" font-size="25.0" fill="#FEFFFF" transform="matrix(1.00, 0.00, -0.00, -1.00, 135.7, 1.8)">6</text><text xml:space="preserve" font-family="AndaleMono,Andale Mono" font-size="25.0" fill="#FEFFFF" transform="matrix(1.00, 0.00, -0.00, -1.00, 150.7, 1.8)">7</text><text xml:space="preserve" font-family="AndaleMono,Andale Mono" font-size="25.0" fill="#FEFFFF" transform="matrix(1.00, 0.00, -0.00, -1.00, 165.7, 1.8)">a</text><text xml:space="preserve" font-family="AndaleMono,Andale Mono" font-size="25.0" fill="#FEFFFF" transform="matrix(1.00, 0.00, -0.00, -1.00, 180.7, 1.8)">5</text><text xml:space="preserve" font-family="AndaleMono,Andale Mono" font-size="25.0" fill="#FEFFFF" transform="matrix(1.00, 0.00, -0.00, -1.00, 195.7, 1.8)">c</text><text xml:space="preserve" font-family="AndaleMono,Andale Mono" font-size="25.0" fill="#FEFFFF" transform="matrix(1.00, 0.00, -0.00, -1.00, 210.7, 1.8)">a</text><text xml:space="preserve" font-family="AndaleMono,Andale Mono" font-size="25.0" fill="#FEFFFF" transform="matrix(1.00, 0.00, -0.00, -1.00, 225.7, 1.8)">d</text><text xml:space="preserve" font-family="AndaleMono,Andale Mono" font-size="25.0" fill="#FEFFFF" transform="matrix(1.00, 0.00, -0.00, -1.00, 240.8, 1.8)">0</text><text xml:space="preserve" font-family="AndaleMono,Andale Mono" font-size="25.0" fill="#FEFFFF" transform="matrix(1.00, 0.00, -0.00, -1.00, 255.8, 1.8)">2</text><text xml:space="preserve" font-family="AndaleMono,Andale Mono" font-size="25.0" fill="#FEFFFF" transform="matrix(1.00, 0.00, -0.00, -1.00, 270.8, 1.8)">e</text><text xml:space="preserve" font-family="AndaleMono,Andale Mono" font-size="25.0" fill="#FEFFFF" transform="matrix(1.00, 0.00, -0.00, -1.00, 285.8, 1.8)">e</text><text xml:space="preserve" font-family="AndaleMono,Andale Mono" font-size="25.0" fill="#FEFFFF" transform="matrix(1.00, 0.00, -0.00, -1.00, 300.8, 1.8)">4</text><text xml:space="preserve" font-family="AndaleMono,Andale Mono" font-size="25.0" fill="#FEFFFF" transform="matrix(1.00, 0.00, -0.00, -1.00, 315.8, 1.8)">.</text><text xml:space="preserve" font-family="AndaleMono,Andale Mono" font-size="25.0" fill="#FEFFFF" transform="matrix(1.00, 0.00, -0.00, -1.00, 330.8, 1.8)">n</text><text xml:space="preserve" font-family="AndaleMono,Andale Mono" font-size="25.0" fill="#FEFFFF" transform="matrix(1.00, 0.00, -0.00, -1.00, 345.8, 1.8)">o</text><text xml:space="preserve" font-family="AndaleMono,Andale Mono" font-size="25.0" fill="#FEFFFF" transform="matrix(1.00, 0.00, -0.00, -1.00, 360.8, 1.8)">t</text><text xml:space="preserve" font-family="AndaleMono,Andale Mono" font-size="25.0" fill="#FEFFFF" transform="matrix(1.00, 0.00, -0.00, -1.00, 375.8, 1.8)">i</text><text xml:space="preserve" font-family="AndaleMono,Andale Mono" font-size="25.0" fill="#FEFFFF" transform="matrix(1.00, 0.00, -0.00, -1.00, 390.8, 1.8)">f</text><text xml:space="preserve" font-family="AndaleMono,Andale Mono" font-size="25.0" fill="#FEFFFF" transform="matrix(1.00, 0.00, -0.00, -1.00, 405.8, 1.8)">i</text><text xml:space="preserve" font-family="AndaleMono,Andale Mono" font-size="25.0" fill="#FEFFFF" transform="matrix(1.00, 0.00, -0.00, -1.00, 420.8, 1.8)">c</text><text xml:space="preserve" font-family="AndaleMono,Andale Mono" font-size="25.0" fill="#FEFFFF" transform="matrix(1.00, 0.00, -0.00, -1.00, 435.8, 1.8)">a</text><text xml:space="preserve" font-family="AndaleMono,Andale Mono" font-size="25.0" fill="#FEFFFF" transform="matrix(1.00, 0.00, -0.00, -1.00, 450.8, 1.8)">t</text><text xml:space="preserve" font-family="AndaleMono,Andale Mono" font-size="25.0" fill="#FEFFFF" transform="matrix(1.00, 0.00, -0.00, -1.00, 465.8, 1.8)">i</text><text xml:space="preserve" font-family="AndaleMono,Andale Mono" font-size="25.0" fill="#FEFFFF" transform="matrix(1.00, 0.00, -0.00, -1.00, 480.8, 1.8)">o</text><text xml:space="preserve" font-family="AndaleMono,Andale Mono" font-size="25.0" fill="#FEFFFF" transform="matrix(1.00, 0.00, -0.00, -1.00, 495.8, 1.8)">n</text></g></svg>