<?xml version="1.0" encoding="UTF-8" standalone="no"?><svg xmlns="http://www.w3.org/2000/svg" xmlns:xlink="http://www.w3.org/1999/xlink" clip-rule="evenodd" stroke-miterlimit="10" viewBox="0 0 214 106"><desc>SVG generated by Keynote</desc><defs></defs><g transform="matrix(1.00, 0.00, -0.00, -1.00, 0.0, 106.0)"><path d="M 2.0 104.0 L 212.0 104.0 L 212.0 1.0 L 2.0 1.0 Z M 1.9 104.1 " fill="#FEFFFE"></path><g><clipPath id="clip0x6000010b3a40"><path d="M -1.6 1.2 L 215.6 1.2 L 215.6 104.1 L -1.6 104.1 Z M -1.6 1.2 "></path></clipPath><g clip-path="url(#clip0x6000010b3a40)"><text xml:space="preserve" font-family="Helvetica-Light,Helvetica" font-size="30.0" fill="#024336" transform="matrix(1.00, 0.00, -0.00, -1.00, 37.8, 59.0)">M</text><text xml:space="preserve" font-family="Helvetica-Light,Helvetica" font-size="30.0" fill="#024336" transform="matrix(1.00, 0.00, -0.00, -1.00, 62.8, 59.0)">e</text><text xml:space="preserve" font-family="Helvetica-Light,Helvetica" font-size="30.0" fill="#024336" transform="matrix(1.00, 0.00, -0.00, -1.00, 79.5, 59.0)">s</text><text xml:space="preserve" font-family="Helvetica-Light,Helvetica" font-size="30.0" fill="#024336" transform="matrix(1.00, 0.00, -0.00, -1.00, 94.5, 59.0)">s</text><text xml:space="preserve" font-family="Helvetica-Light,Helvetica" font-size="30.0" fill="#024336" transform="matrix(1.00, 0.00, -0.00, -1.00, 109.5, 59.0)">a</text><text xml:space="preserve" font-family="Helvetica-Light,Helvetica" font-size="30.0" fill="#024336" transform="matrix(1.00, 0.00, -0.00, -1.00, 126.1, 59.0)">g</text><text xml:space="preserve" font-family="Helvetica-Light,Helvetica" font-size="30.0" fill="#024336" transform="matrix(1.00, 0.00, -0.00, -1.00, 144.5, 59.0)">e</text><text xml:space="preserve" font-family="Helvetica-Light,Helvetica" font-size="30.0" fill="#024336" transform="matrix(1.00, 0.00, -0.00, -1.00, 161.2, 59.0)">s</text><text xml:space="preserve" font-family="Helvetica-Light,Helvetica" font-size="30.0" fill="#024336" transform="matrix(1.00, 0.00, -0.00, -1.00, 176.2, 59.0)"> </text><text xml:space="preserve" font-family="Helvetica-Light,Helvetica" font-size="30.0" fill="#024336" transform="matrix(1.00, 0.00, -0.00, -1.00, 53.6, 23.0)">H</text><text xml:space="preserve" font-family="Helvetica-Light,Helvetica" font-size="30.0" fill="#024336" transform="matrix(1.00, 0.00, -0.00, -1.00, 75.3, 23.0)">a</text><text xml:space="preserve" font-family="Helvetica-Light,Helvetica" font-size="30.0" fill="#024336" transform="matrix(1.00, 0.00, -0.00, -1.00, 92.0, 23.0)">n</text><text xml:space="preserve" font-family="Helvetica-Light,Helvetica" font-size="30.0" fill="#024336" transform="matrix(1.00, 0.00, -0.00, -1.00, 108.7, 23.0)">d</text><text xml:space="preserve" font-family="Helvetica-Light,Helvetica" font-size="30.0" fill="#024336" transform="matrix(1.00, 0.00, -0.00, -1.00, 127.0, 23.0)">l</text><text xml:space="preserve" font-family="Helvetica-Light,Helvetica" font-size="30.0" fill="#024336" transform="matrix(1.00, 0.00, -0.00, -1.00, 133.6, 23.0)">e</text><text xml:space="preserve" font-family="Helvetica-Light,Helvetica" font-size="30.0" fill="#024336" transform="matrix(1.00, 0.00, -0.00, -1.00, 150.3, 23.0)">r</text></g></g></g></svg>