<?xml version="1.0" encoding="UTF-8" standalone="no"?><svg xmlns="http://www.w3.org/2000/svg" xmlns:xlink="http://www.w3.org/1999/xlink" clip-rule="evenodd" stroke-miterlimit="10" viewBox="0 0 207 103"><desc>SVG generated by Keynote</desc><defs></defs><g transform="matrix(1.00, 0.00, -0.00, -1.00, 0.0, 103.0)"><path d="M 1.0 102.0 L 205.0 102.0 L 205.0 2.0 L 1.0 2.0 Z M 1.0 102.0 " fill="#FEFFFE"></path><g><clipPath id="clip0x608000eaf180"><path d="M -4.0 -0.0 L 210.1 -0.0 L 210.1 104.0 L -4.0 104.0 Z M -4.0 -0.0 "></path></clipPath><g clip-path="url(#clip0x608000eaf180)"><text xml:space="preserve" font-family="Helvetica-Light,Helvetica" font-size="36.0" fill="#E74B3B" transform="matrix(1.00, 0.00, -0.00, -1.00, 20.0, 60.2)">M</text><text xml:space="preserve" font-family="Helvetica-Light,Helvetica" font-size="36.0" fill="#E74B3B" transform="matrix(1.00, 0.00, -0.00, -1.00, 50.0, 60.2)">e</text><text xml:space="preserve" font-family="Helvetica-Light,Helvetica" font-size="36.0" fill="#E74B3B" transform="matrix(1.00, 0.00, -0.00, -1.00, 70.0, 60.2)">s</text><text xml:space="preserve" font-family="Helvetica-Light,Helvetica" font-size="36.0" fill="#E74B3B" transform="matrix(1.00, 0.00, -0.00, -1.00, 88.0, 60.2)">s</text><text xml:space="preserve" font-family="Helvetica-Light,Helvetica" font-size="36.0" fill="#E74B3B" transform="matrix(1.00, 0.00, -0.00, -1.00, 106.0, 60.2)">a</text><text xml:space="preserve" font-family="Helvetica-Light,Helvetica" font-size="36.0" fill="#E74B3B" transform="matrix(1.00, 0.00, -0.00, -1.00, 126.1, 60.2)">g</text><text xml:space="preserve" font-family="Helvetica-Light,Helvetica" font-size="36.0" fill="#E74B3B" transform="matrix(1.00, 0.00, -0.00, -1.00, 148.1, 60.2)">e</text><text xml:space="preserve" font-family="Helvetica-Light,Helvetica" font-size="36.0" fill="#E74B3B" transform="matrix(1.00, 0.00, -0.00, -1.00, 168.1, 60.2)">s</text><text xml:space="preserve" font-family="Helvetica-Light,Helvetica" font-size="36.0" fill="#E74B3B" transform="matrix(1.00, 0.00, -0.00, -1.00, 186.1, 60.2)"> </text><text xml:space="preserve" font-family="Helvetica-Light,Helvetica" font-size="36.0" fill="#E74B3B" transform="matrix(1.00, 0.00, -0.00, -1.00, 43.0, 17.2)">S</text><text xml:space="preserve" font-family="Helvetica-Light,Helvetica" font-size="36.0" fill="#E74B3B" transform="matrix(1.00, 0.00, -0.00, -1.00, 65.0, 17.2)">e</text><text xml:space="preserve" font-family="Helvetica-Light,Helvetica" font-size="36.0" fill="#E74B3B" transform="matrix(1.00, 0.00, -0.00, -1.00, 85.1, 17.2)">r</text><text xml:space="preserve" font-family="Helvetica-Light,Helvetica" font-size="36.0" fill="#E74B3B" transform="matrix(1.00, 0.00, -0.00, -1.00, 97.0, 17.2)">v</text><text xml:space="preserve" font-family="Helvetica-Light,Helvetica" font-size="36.0" fill="#E74B3B" transform="matrix(1.00, 0.00, -0.00, -1.00, 115.0, 17.2)">i</text><text xml:space="preserve" font-family="Helvetica-Light,Helvetica" font-size="36.0" fill="#E74B3B" transform="matrix(1.00, 0.00, -0.00, -1.00, 123.0, 17.2)">c</text><text xml:space="preserve" font-family="Helvetica-Light,Helvetica" font-size="36.0" fill="#E74B3B" transform="matrix(1.00, 0.00, -0.00, -1.00, 143.1, 17.2)">e</text></g></g></g></svg>