<?xml version="1.0" encoding="UTF-8" standalone="no"?><svg xmlns="http://www.w3.org/2000/svg" xmlns:xlink="http://www.w3.org/1999/xlink" clip-rule="evenodd" stroke-miterlimit="10" viewBox="0 0 519 51"><desc>SVG generated by Keynote</desc><defs></defs><g transform="matrix(1.00, 0.00, -0.00, -1.00, 0.0, 51.0)"><text xml:space="preserve" font-family="Helvetica-Light,Helvetica" font-size="50.0" fill="#FEFFFF" transform="matrix(1.00, 0.00, -0.00, -1.00, -2.4, 13.2)">B</text><text xml:space="preserve" font-family="Helvetica-Light,Helvetica" font-size="50.0" fill="#FEFFFF" transform="matrix(1.00, 0.00, -0.00, -1.00, 30.9, 13.2)">r</text><text xml:space="preserve" font-family="Helvetica-Light,Helvetica" font-size="50.0" fill="#FEFFFF" transform="matrix(1.00, 0.00, -0.00, -1.00, 46.7, 13.2)">o</text><text xml:space="preserve" font-family="Helvetica-Light,Helvetica" font-size="50.0" fill="#FEFFFF" transform="matrix(1.00, 0.00, -0.00, -1.00, 74.5, 13.2)">k</text><text xml:space="preserve" font-family="Helvetica-Light,Helvetica" font-size="50.0" fill="#FEFFFF" transform="matrix(1.00, 0.00, -0.00, -1.00, 99.5, 13.2)">e</text><text xml:space="preserve" font-family="Helvetica-Light,Helvetica" font-size="50.0" fill="#FEFFFF" transform="matrix(1.00, 0.00, -0.00, -1.00, 127.3, 13.2)">r</text><text xml:space="preserve" font-family="Helvetica-Light,Helvetica" font-size="50.0" fill="#FEFFFF" transform="matrix(1.00, 0.00, -0.00, -1.00, 143.9, 13.2)">:</text><text xml:space="preserve" font-family="Helvetica-Light,Helvetica" font-size="50.0" fill="#FEFFFF" transform="matrix(1.00, 0.00, -0.00, -1.00, 157.8, 13.2)"> </text><text xml:space="preserve" font-family="Helvetica-Light,Helvetica" font-size="50.0" fill="#FEFFFF" transform="matrix(1.00, 0.00, -0.00, -1.00, 171.7, 13.2)">M</text><text xml:space="preserve" font-family="Helvetica-Light,Helvetica" font-size="50.0" fill="#FEFFFF" transform="matrix(1.00, 0.00, -0.00, -1.00, 213.4, 13.2)">a</text><text xml:space="preserve" font-family="Helvetica-Light,Helvetica" font-size="50.0" fill="#FEFFFF" transform="matrix(1.00, 0.00, -0.00, -1.00, 241.2, 13.2)">i</text><text xml:space="preserve" font-family="Helvetica-Light,Helvetica" font-size="50.0" fill="#FEFFFF" transform="matrix(1.00, 0.00, -0.00, -1.00, 252.3, 13.2)">n</text><text xml:space="preserve" font-family="Helvetica-Light,Helvetica" font-size="50.0" fill="#FEFFFF" transform="matrix(1.00, 0.00, -0.00, -1.00, 280.1, 13.2)"> </text><text xml:space="preserve" font-family="Helvetica-Light,Helvetica" font-size="50.0" fill="#FEFFFF" transform="matrix(1.00, 0.00, -0.00, -1.00, 294.0, 13.2)">E</text><text xml:space="preserve" font-family="Helvetica-Light,Helvetica" font-size="50.0" fill="#FEFFFF" transform="matrix(1.00, 0.00, -0.00, -1.00, 324.5, 13.2)">x</text><text xml:space="preserve" font-family="Helvetica-Light,Helvetica" font-size="50.0" fill="#FEFFFF" transform="matrix(1.00, 0.00, -0.00, -1.00, 349.5, 13.2)">c</text><text xml:space="preserve" font-family="Helvetica-Light,Helvetica" font-size="50.0" fill="#FEFFFF" transform="matrix(1.00, 0.00, -0.00, -1.00, 377.3, 13.2)">h</text><text xml:space="preserve" font-family="Helvetica-Light,Helvetica" font-size="50.0" fill="#FEFFFF" transform="matrix(1.00, 0.00, -0.00, -1.00, 405.1, 13.2)">a</text><text xml:space="preserve" font-family="Helvetica-Light,Helvetica" font-size="50.0" fill="#FEFFFF" transform="matrix(1.00, 0.00, -0.00, -1.00, 432.9, 13.2)">n</text><text xml:space="preserve" font-family="Helvetica-Light,Helvetica" font-size="50.0" fill="#FEFFFF" transform="matrix(1.00, 0.00, -0.00, -1.00, 460.7, 13.2)">g</text><text xml:space="preserve" font-family="Helvetica-Light,Helvetica" font-size="50.0" fill="#FEFFFF" transform="matrix(1.00, 0.00, -0.00, -1.00, 491.3, 13.2)">e</text></g></svg>