<?xml version="1.0" encoding="UTF-8" standalone="no"?><svg xmlns="http://www.w3.org/2000/svg" xmlns:xlink="http://www.w3.org/1999/xlink" clip-rule="evenodd" stroke-miterlimit="10" viewBox="0 0 433 400"><desc>SVG generated by Keynote</desc><defs></defs><g transform="matrix(1.00, 0.00, -0.00, -1.00, 0.0, 400.0)"><text xml:space="preserve" font-family="Helvetica-Light,Helvetica" font-size="40.0" fill="#FEFFFF" transform="matrix(1.00, 0.00, -0.00, -1.00, 1.6, 370.0)">W</text><text xml:space="preserve" font-family="Helvetica-Light,Helvetica" font-size="40.0" fill="#FEFFFF" transform="matrix(1.00, 0.00, -0.00, -1.00, 36.4, 370.0)">e</text><text xml:space="preserve" font-family="Helvetica-Light,Helvetica" font-size="40.0" fill="#FEFFFF" transform="matrix(1.00, 0.00, -0.00, -1.00, 58.6, 370.0)"> </text><text xml:space="preserve" font-family="Helvetica-Light,Helvetica" font-size="40.0" fill="#FEFFFF" transform="matrix(1.00, 0.00, -0.00, -1.00, 69.8, 370.0)">h</text><text xml:space="preserve" font-family="Helvetica-Light,Helvetica" font-size="40.0" fill="#FEFFFF" transform="matrix(1.00, 0.00, -0.00, -1.00, 92.0, 370.0)">a</text><text xml:space="preserve" font-family="Helvetica-Light,Helvetica" font-size="40.0" fill="#FEFFFF" transform="matrix(1.00, 0.00, -0.00, -1.00, 114.2, 370.0)">v</text><text xml:space="preserve" font-family="Helvetica-Light,Helvetica" font-size="40.0" fill="#FEFFFF" transform="matrix(1.00, 0.00, -0.00, -1.00, 134.2, 370.0)">e</text><text xml:space="preserve" font-family="Helvetica-Light,Helvetica" font-size="40.0" fill="#FEFFFF" transform="matrix(1.00, 0.00, -0.00, -1.00, 156.5, 370.0)">:</text><text xml:space="preserve" font-family="Helvetica-Light,Helvetica" font-size="40.0" fill="#FEFFFF" transform="matrix(1.00, 0.00, -0.00, -1.00, 167.6, 370.0)"> </text><text xml:space="preserve" font-family="Helvetica-Light,Helvetica" font-size="30.0" fill="#FEFFFF" transform="matrix(1.00, 0.00, -0.00, -1.00, 1.6, 301.7)">*</text><text xml:space="preserve" font-family="Helvetica-Light,Helvetica" font-size="40.0" fill="#FEFFFF" transform="matrix(1.00, 0.00, -0.00, -1.00, 40.0, 298.0)">C</text><text xml:space="preserve" font-family="Helvetica-Light,Helvetica" font-size="40.0" fill="#FEFFFF" transform="matrix(1.00, 0.00, -0.00, -1.00, 68.9, 298.0)">o</text><text xml:space="preserve" font-family="Helvetica-Light,Helvetica" font-size="40.0" fill="#FEFFFF" transform="matrix(1.00, 0.00, -0.00, -1.00, 91.1, 298.0)">n</text><text xml:space="preserve" font-family="Helvetica-Light,Helvetica" font-size="40.0" fill="#FEFFFF" transform="matrix(1.00, 0.00, -0.00, -1.00, 113.4, 298.0)">s</text><text xml:space="preserve" font-family="Helvetica-Light,Helvetica" font-size="40.0" fill="#FEFFFF" transform="matrix(1.00, 0.00, -0.00, -1.00, 133.4, 298.0)">u</text><text xml:space="preserve" font-family="Helvetica-Light,Helvetica" font-size="40.0" fill="#FEFFFF" transform="matrix(1.00, 0.00, -0.00, -1.00, 155.6, 298.0)">m</text><text xml:space="preserve" font-family="Helvetica-Light,Helvetica" font-size="40.0" fill="#FEFFFF" transform="matrix(1.00, 0.00, -0.00, -1.00, 188.9, 298.0)">e</text><text xml:space="preserve" font-family="Helvetica-Light,Helvetica" font-size="40.0" fill="#FEFFFF" transform="matrix(1.00, 0.00, -0.00, -1.00, 211.2, 298.0)">r</text><text xml:space="preserve" font-family="Helvetica-Light,Helvetica" font-size="40.0" fill="#FEFFFF" transform="matrix(1.00, 0.00, -0.00, -1.00, 224.5, 298.0)">s</text><text xml:space="preserve" font-family="Helvetica-Light,Helvetica" font-size="40.0" fill="#FEFFFF" transform="matrix(1.00, 0.00, -0.00, -1.00, 244.5, 298.0)"> </text><text xml:space="preserve" font-family="Helvetica-Light,Helvetica" font-size="40.0" fill="#FEFFFF" transform="matrix(1.00, 0.00, -0.00, -1.00, 255.6, 298.0)">(</text><text xml:space="preserve" font-family="Helvetica-Light,Helvetica" font-size="40.0" fill="#FEFFFF" transform="matrix(1.00, 0.00, -0.00, -1.00, 268.9, 298.0)">s</text><text xml:space="preserve" font-family="Helvetica-Light,Helvetica" font-size="40.0" fill="#FEFFFF" transform="matrix(1.00, 0.00, -0.00, -1.00, 288.9, 298.0)">e</text><text xml:space="preserve" font-family="Helvetica-Light,Helvetica" font-size="40.0" fill="#FEFFFF" transform="matrix(1.00, 0.00, -0.00, -1.00, 311.2, 298.0)">r</text><text xml:space="preserve" font-family="Helvetica-Light,Helvetica" font-size="40.0" fill="#FEFFFF" transform="matrix(1.00, 0.00, -0.00, -1.00, 324.5, 298.0)">v</text><text xml:space="preserve" font-family="Helvetica-Light,Helvetica" font-size="40.0" fill="#FEFFFF" transform="matrix(1.00, 0.00, -0.00, -1.00, 344.5, 298.0)">i</text><text xml:space="preserve" font-family="Helvetica-Light,Helvetica" font-size="40.0" fill="#FEFFFF" transform="matrix(1.00, 0.00, -0.00, -1.00, 353.4, 298.0)">c</text><text xml:space="preserve" font-family="Helvetica-Light,Helvetica" font-size="40.0" fill="#FEFFFF" transform="matrix(1.00, 0.00, -0.00, -1.00, 375.6, 298.0)">e</text><text xml:space="preserve" font-family="Helvetica-Light,Helvetica" font-size="40.0" fill="#FEFFFF" transform="matrix(1.00, 0.00, -0.00, -1.00, 397.9, 298.0)">s</text><text xml:space="preserve" font-family="Helvetica-Light,Helvetica" font-size="40.0" fill="#FEFFFF" transform="matrix(1.00, 0.00, -0.00, -1.00, 417.9, 298.0)">)</text><text xml:space="preserve" font-family="Helvetica-Light,Helvetica" font-size="40.0" fill="#FEFFFF" transform="matrix(1.00, 0.00, -0.00, -1.00, 431.2, 298.0)"> </text><text xml:space="preserve" font-family="Helvetica-Light,Helvetica" font-size="30.0" fill="#FEFFFF" transform="matrix(1.00, 0.00, -0.00, -1.00, 1.6, 229.7)">*</text><text xml:space="preserve" font-family="Helvetica-Light,Helvetica" font-size="40.0" fill="#FEFFFF" transform="matrix(1.00, 0.00, -0.00, -1.00, 40.0, 226.0)">E</text><text xml:space="preserve" font-family="Helvetica-Light,Helvetica" font-size="40.0" fill="#FEFFFF" transform="matrix(1.00, 0.00, -0.00, -1.00, 64.5, 226.0)">x</text><text xml:space="preserve" font-family="Helvetica-Light,Helvetica" font-size="40.0" fill="#FEFFFF" transform="matrix(1.00, 0.00, -0.00, -1.00, 84.5, 226.0)">c</text><text xml:space="preserve" font-family="Helvetica-Light,Helvetica" font-size="40.0" fill="#FEFFFF" transform="matrix(1.00, 0.00, -0.00, -1.00, 106.7, 226.0)">h</text><text xml:space="preserve" font-family="Helvetica-Light,Helvetica" font-size="40.0" fill="#FEFFFF" transform="matrix(1.00, 0.00, -0.00, -1.00, 128.9, 226.0)">a</text><text xml:space="preserve" font-family="Helvetica-Light,Helvetica" font-size="40.0" fill="#FEFFFF" transform="matrix(1.00, 0.00, -0.00, -1.00, 151.2, 226.0)">n</text><text xml:space="preserve" font-family="Helvetica-Light,Helvetica" font-size="40.0" fill="#FEFFFF" transform="matrix(1.00, 0.00, -0.00, -1.00, 173.4, 226.0)">g</text><text xml:space="preserve" font-family="Helvetica-Light,Helvetica" font-size="40.0" fill="#FEFFFF" transform="matrix(1.00, 0.00, -0.00, -1.00, 197.9, 226.0)">e</text><text xml:space="preserve" font-family="Helvetica-Light,Helvetica" font-size="40.0" fill="#FEFFFF" transform="matrix(1.00, 0.00, -0.00, -1.00, 220.1, 226.0)">s</text><text xml:space="preserve" font-family="Helvetica-Light,Helvetica" font-size="40.0" fill="#FEFFFF" transform="matrix(1.00, 0.00, -0.00, -1.00, 240.1, 226.0)"> </text><text xml:space="preserve" font-family="Helvetica-Light,Helvetica" font-size="30.0" fill="#FEFFFF" transform="matrix(1.00, 0.00, -0.00, -1.00, 1.6, 157.7)">*</text><text xml:space="preserve" font-family="Helvetica-Light,Helvetica" font-size="40.0" fill="#FEFFFF" transform="matrix(1.00, 0.00, -0.00, -1.00, 40.0, 154.0)">Q</text><text xml:space="preserve" font-family="Helvetica-Light,Helvetica" font-size="40.0" fill="#FEFFFF" transform="matrix(1.00, 0.00, -0.00, -1.00, 71.1, 154.0)">u</text><text xml:space="preserve" font-family="Helvetica-Light,Helvetica" font-size="40.0" fill="#FEFFFF" transform="matrix(1.00, 0.00, -0.00, -1.00, 93.4, 154.0)">e</text><text xml:space="preserve" font-family="Helvetica-Light,Helvetica" font-size="40.0" fill="#FEFFFF" transform="matrix(1.00, 0.00, -0.00, -1.00, 115.6, 154.0)">u</text><text xml:space="preserve" font-family="Helvetica-Light,Helvetica" font-size="40.0" fill="#FEFFFF" transform="matrix(1.00, 0.00, -0.00, -1.00, 137.9, 154.0)">e</text><text xml:space="preserve" font-family="Helvetica-Light,Helvetica" font-size="40.0" fill="#FEFFFF" transform="matrix(1.00, 0.00, -0.00, -1.00, 160.1, 154.0)">s</text><text xml:space="preserve" font-family="Helvetica-Light,Helvetica" font-size="40.0" fill="#FEFFFF" transform="matrix(1.00, 0.00, -0.00, -1.00, 180.1, 154.0)"> </text><text xml:space="preserve" font-family="Helvetica-Light,Helvetica" font-size="30.0" fill="#FEFFFF" transform="matrix(1.00, 0.00, -0.00, -1.00, 1.6, 85.7)">*</text><text xml:space="preserve" font-family="Helvetica-Light,Helvetica" font-size="40.0" fill="#FEFFFF" transform="matrix(1.00, 0.00, -0.00, -1.00, 40.0, 82.0)">M</text><text xml:space="preserve" font-family="Helvetica-Light,Helvetica" font-size="40.0" fill="#FEFFFF" transform="matrix(1.00, 0.00, -0.00, -1.00, 73.3, 82.0)">e</text><text xml:space="preserve" font-family="Helvetica-Light,Helvetica" font-size="40.0" fill="#FEFFFF" transform="matrix(1.00, 0.00, -0.00, -1.00, 95.6, 82.0)">s</text><text xml:space="preserve" font-family="Helvetica-Light,Helvetica" font-size="40.0" fill="#FEFFFF" transform="matrix(1.00, 0.00, -0.00, -1.00, 115.6, 82.0)">s</text><text xml:space="preserve" font-family="Helvetica-Light,Helvetica" font-size="40.0" fill="#FEFFFF" transform="matrix(1.00, 0.00, -0.00, -1.00, 135.6, 82.0)">a</text><text xml:space="preserve" font-family="Helvetica-Light,Helvetica" font-size="40.0" fill="#FEFFFF" transform="matrix(1.00, 0.00, -0.00, -1.00, 157.8, 82.0)">g</text><text xml:space="preserve" font-family="Helvetica-Light,Helvetica" font-size="40.0" fill="#FEFFFF" transform="matrix(1.00, 0.00, -0.00, -1.00, 182.3, 82.0)">e</text><text xml:space="preserve" font-family="Helvetica-Light,Helvetica" font-size="40.0" fill="#FEFFFF" transform="matrix(1.00, 0.00, -0.00, -1.00, 204.5, 82.0)">s</text><text xml:space="preserve" font-family="Helvetica-Light,Helvetica" font-size="40.0" fill="#FEFFFF" transform="matrix(1.00, 0.00, -0.00, -1.00, 224.5, 82.0)"> </text><text xml:space="preserve" font-family="Helvetica-Light,Helvetica" font-size="30.0" fill="#FEFFFF" transform="matrix(1.00, 0.00, -0.00, -1.00, 1.6, 13.7)">*</text><text xml:space="preserve" font-family="Helvetica-Light,Helvetica" font-size="40.0" fill="#FEFFFF" transform="matrix(1.00, 0.00, -0.00, -1.00, 40.0, 10.0)">T</text><text xml:space="preserve" font-family="Helvetica-Light,Helvetica" font-size="40.0" fill="#FEFFFF" transform="matrix(1.00, 0.00, -0.00, -1.00, 57.8, 10.0)">o</text><text xml:space="preserve" font-family="Helvetica-Light,Helvetica" font-size="40.0" fill="#FEFFFF" transform="matrix(1.00, 0.00, -0.00, -1.00, 80.1, 10.0)">p</text><text xml:space="preserve" font-family="Helvetica-Light,Helvetica" font-size="40.0" fill="#FEFFFF" transform="matrix(1.00, 0.00, -0.00, -1.00, 104.5, 10.0)">i</text><text xml:space="preserve" font-family="Helvetica-Light,Helvetica" font-size="40.0" fill="#FEFFFF" transform="matrix(1.00, 0.00, -0.00, -1.00, 113.4, 10.0)">c</text><text xml:space="preserve" font-family="Helvetica-Light,Helvetica" font-size="40.0" fill="#FEFFFF" transform="matrix(1.00, 0.00, -0.00, -1.00, 135.6, 10.0)">s</text></g></svg>