<?xml version="1.0" encoding="UTF-8" standalone="no"?><svg xmlns="http://www.w3.org/2000/svg" xmlns:xlink="http://www.w3.org/1999/xlink" clip-rule="evenodd" stroke-miterlimit="10" viewBox="0 0 1920 1080"><desc>SVG generated by Keynote</desc><defs></defs><g transform="matrix(1.00, 0.00, -0.00, -1.00, 0.0, 1080.0)"><path d="M 0.0 1080.0 L 1920.0 1080.0 L 1920.0 0.0 L 0.0 0.0 Z M 0.0 1080.0 " fill="#3EA9E2"></path><text xml:space="preserve" font-family="OpenSans-Light,Open Sans" font-size="80.0" fill="#FEFFFF" transform="matrix(1.00, 0.00, -0.00, -1.00, 60.8, 48.7)">W</text><text xml:space="preserve" font-family="OpenSans-Light,Open Sans" font-size="80.0" fill="#FEFFFF" transform="matrix(1.00, 0.00, -0.00, -1.00, 132.2, 48.7)">h</text><text xml:space="preserve" font-family="OpenSans-Light,Open Sans" font-size="80.0" fill="#FEFFFF" transform="matrix(1.00, 0.00, -0.00, -1.00, 179.3, 48.7)">o</text><text xml:space="preserve" font-family="OpenSans-Light,Open Sans" font-size="80.0" fill="#FEFFFF" transform="matrix(1.00, 0.00, -0.00, -1.00, 226.2, 48.7)"> </text><text xml:space="preserve" font-family="OpenSans-Light,Open Sans" font-size="80.0" fill="#FEFFFF" transform="matrix(1.00, 0.00, -0.00, -1.00, 247.0, 48.7)">a</text><text xml:space="preserve" font-family="OpenSans-Light,Open Sans" font-size="80.0" fill="#FEFFFF" transform="matrix(1.00, 0.00, -0.00, -1.00, 289.3, 48.7)">m</text><text xml:space="preserve" font-family="OpenSans-Light,Open Sans" font-size="80.0" fill="#FEFFFF" transform="matrix(1.00, 0.00, -0.00, -1.00, 360.0, 48.7)"> </text><text xml:space="preserve" font-family="OpenSans-Light,Open Sans" font-size="80.0" fill="#FEFFFF" transform="matrix(1.00, 0.00, -0.00, -1.00, 380.7, 48.7)">I</text><text xml:space="preserve" font-family="OpenSans-Light,Open Sans" font-size="80.0" fill="#FEFFFF" transform="matrix(1.00, 0.00, -0.00, -1.00, 400.9, 48.7)">?</text><text xml:space="preserve" font-family="OpenSans-Light,Open Sans" font-size="80.0" fill="#FEFFFF" transform="matrix(1.00, 0.00, -0.00, -1.00, 545.6, 521.9)">F</text><text xml:space="preserve" font-family="OpenSans-Light,Open Sans" font-size="80.0" fill="#FEFFFF" transform="matrix(1.00, 0.00, -0.00, -1.00, 585.8, 521.9)">r</text><text xml:space="preserve" font-family="OpenSans-Light,Open Sans" font-size="80.0" fill="#FEFFFF" transform="matrix(1.00, 0.00, -0.00, -1.00, 615.3, 521.9)">a</text><text xml:space="preserve" font-family="OpenSans-Light,Open Sans" font-size="80.0" fill="#FEFFFF" transform="matrix(1.00, 0.00, -0.00, -1.00, 657.7, 521.9)">n</text><text xml:space="preserve" font-family="OpenSans-Light,Open Sans" font-size="80.0" fill="#FEFFFF" transform="matrix(1.00, 0.00, -0.00, -1.00, 704.8, 521.9)">c</text><text xml:space="preserve" font-family="OpenSans-Light,Open Sans" font-size="80.0" fill="#FEFFFF" transform="matrix(1.00, 0.00, -0.00, -1.00, 742.9, 521.9)">i</text><text xml:space="preserve" font-family="OpenSans-Light,Open Sans" font-size="80.0" fill="#FEFFFF" transform="matrix(1.00, 0.00, -0.00, -1.00, 761.0, 521.9)">s</text><text xml:space="preserve" font-family="OpenSans-Light,Open Sans" font-size="80.0" fill="#FEFFFF" transform="matrix(1.00, 0.00, -0.00, -1.00, 798.2, 521.9)">c</text><text xml:space="preserve" font-family="OpenSans-Light,Open Sans" font-size="80.0" fill="#FEFFFF" transform="matrix(1.00, 0.00, -0.00, -1.00, 836.2, 521.9)">o</text><text xml:space="preserve" font-family="OpenSans-Light,Open Sans" font-size="80.0" fill="#FEFFFF" transform="matrix(1.00, 0.00, -0.00, -1.00, 883.1, 521.9)"> </text><text xml:space="preserve" font-family="OpenSans-Light,Open Sans" font-size="80.0" fill="#FEFFFF" transform="matrix(1.00, 0.00, -0.00, -1.00, 903.8, 521.9)">M</text><text xml:space="preserve" font-family="OpenSans-Light,Open Sans" font-size="80.0" fill="#FEFFFF" transform="matrix(1.00, 0.00, -0.00, -1.00, 972.9, 521.9)">é</text><text xml:space="preserve" font-family="OpenSans-Light,Open Sans" font-size="80.0" fill="#FEFFFF" transform="matrix(1.00, 0.00, -0.00, -1.00, 1016.7, 521.9)">n</text><text xml:space="preserve" font-family="OpenSans-Light,Open Sans" font-size="80.0" fill="#FEFFFF" transform="matrix(1.00, 0.00, -0.00, -1.00, 1063.9, 521.9)">d</text><text xml:space="preserve" font-family="OpenSans-Light,Open Sans" font-size="80.0" fill="#FEFFFF" transform="matrix(1.00, 0.00, -0.00, -1.00, 1111.6, 521.9)">e</text><text xml:space="preserve" font-family="OpenSans-Light,Open Sans" font-size="80.0" fill="#FEFFFF" transform="matrix(1.00, 0.00, -0.00, -1.00, 1154.7, 521.9)">z</text><text xml:space="preserve" font-family="OpenSans-Light,Open Sans" font-size="80.0" fill="#FEFFFF" transform="matrix(1.00, 0.00, -0.00, -1.00, 1191.5, 521.9)"> </text><text xml:space="preserve" font-family="OpenSans-Light,Open Sans" font-size="80.0" fill="#FEFFFF" transform="matrix(1.00, 0.00, -0.00, -1.00, 1212.3, 521.9)">V</text><text xml:space="preserve" font-family="OpenSans-Light,Open Sans" font-size="80.0" fill="#FEFFFF" transform="matrix(1.00, 0.00, -0.00, -1.00, 1258.5, 521.9)">i</text><text xml:space="preserve" font-family="OpenSans-Light,Open Sans" font-size="80.0" fill="#FEFFFF" transform="matrix(1.00, 0.00, -0.00, -1.00, 1276.6, 521.9)">l</text><text xml:space="preserve" font-family="OpenSans-Light,Open Sans" font-size="80.0" fill="#FEFFFF" transform="matrix(1.00, 0.00, -0.00, -1.00, 1294.7, 521.9)">a</text><text xml:space="preserve" font-family="OpenSans-Light,Open Sans" font-size="80.0" fill="#FEFFFF" transform="matrix(1.00, 0.00, -0.00, -1.00, 1337.0, 521.9)">s</text><text xml:space="preserve" font-family="OpenSans-Light,Open Sans" font-size="40.0" fill="#FEFFFF" transform="matrix(1.00, 0.00, -0.00, -1.00, 783.9, 447.2)">C</text><text xml:space="preserve" font-family="OpenSans-Light,Open Sans" font-size="40.0" fill="#FEFFFF" transform="matrix(1.00, 0.00, -0.00, -1.00, 808.8, 447.2)">T</text><text xml:space="preserve" font-family="OpenSans-Light,Open Sans" font-size="40.0" fill="#FEFFFF" transform="matrix(1.00, 0.00, -0.00, -1.00, 828.9, 447.2)">O</text><text xml:space="preserve" font-family="OpenSans-Light,Open Sans" font-size="40.0" fill="#FEFFFF" transform="matrix(1.00, 0.00, -0.00, -1.00, 859.5, 447.2)"> </text><text xml:space="preserve" font-family="OpenSans-Light,Open Sans" font-size="40.0" fill="#FEFFFF" transform="matrix(1.00, 0.00, -0.00, -1.00, 869.9, 447.2)">a</text><text xml:space="preserve" font-family="OpenSans-Light,Open Sans" font-size="40.0" fill="#FEFFFF" transform="matrix(1.00, 0.00, -0.00, -1.00, 891.1, 447.2)">t</text><text xml:space="preserve" font-family="OpenSans-Light,Open Sans" font-size="40.0" fill="#FEFFFF" transform="matrix(1.00, 0.00, -0.00, -1.00, 904.5, 447.2)"> </text><text xml:space="preserve" font-family="OpenSans-Light,Open Sans" font-size="40.0" fill="#FEFFFF" transform="matrix(1.00, 0.00, -0.00, -1.00, 914.8, 447.2)">A</text><text xml:space="preserve" font-family="OpenSans-Light,Open Sans" font-size="40.0" fill="#FEFFFF" transform="matrix(1.00, 0.00, -0.00, -1.00, 938.9, 447.2)">d</text><text xml:space="preserve" font-family="OpenSans-Light,Open Sans" font-size="40.0" fill="#FEFFFF" transform="matrix(1.00, 0.00, -0.00, -1.00, 962.7, 447.2)">a</text><text xml:space="preserve" font-family="OpenSans-Light,Open Sans" font-size="40.0" fill="#FEFFFF" transform="matrix(1.00, 0.00, -0.00, -1.00, 983.9, 447.2)">p</text><text xml:space="preserve" font-family="OpenSans-Light,Open Sans" font-size="40.0" fill="#FEFFFF" transform="matrix(1.00, 0.00, -0.00, -1.00, 1007.7, 447.2)">t</text><text xml:space="preserve" font-family="OpenSans-Light,Open Sans" font-size="40.0" fill="#FEFFFF" transform="matrix(1.00, 0.00, -0.00, -1.00, 1021.1, 447.2)">i</text><text xml:space="preserve" font-family="OpenSans-Light,Open Sans" font-size="40.0" fill="#FEFFFF" transform="matrix(1.00, 0.00, -0.00, -1.00, 1030.1, 447.2)">v</text><text xml:space="preserve" font-family="OpenSans-Light,Open Sans" font-size="40.0" fill="#FEFFFF" transform="matrix(1.00, 0.00, -0.00, -1.00, 1048.5, 447.2)">e</text><text xml:space="preserve" font-family="OpenSans-Light,Open Sans" font-size="40.0" fill="#FEFFFF" transform="matrix(1.00, 0.00, -0.00, -1.00, 1070.4, 447.2)">C</text><text xml:space="preserve" font-family="OpenSans-Light,Open Sans" font-size="40.0" fill="#FEFFFF" transform="matrix(1.00, 0.00, -0.00, -1.00, 1095.3, 447.2)">i</text><text xml:space="preserve" font-family="OpenSans-Light,Open Sans" font-size="40.0" fill="#FEFFFF" transform="matrix(1.00, 0.00, -0.00, -1.00, 1104.3, 447.2)">t</text><text xml:space="preserve" font-family="OpenSans-Light,Open Sans" font-size="40.0" fill="#FEFFFF" transform="matrix(1.00, 0.00, -0.00, -1.00, 1117.7, 447.2)">y</text><text xml:space="preserve" font-family="OpenSans-Light,Open Sans" font-size="50.0" fill="#FEFFFF" transform="matrix(1.00, 0.00, -0.00, -1.00, 860.6, 323.6)">@</text><text xml:space="preserve" font-family="OpenSans-Light,Open Sans" font-size="50.0" fill="#FEFFFF" transform="matrix(1.00, 0.00, -0.00, -1.00, 904.9, 323.6)">f</text><text xml:space="preserve" font-family="OpenSans-Light,Open Sans" font-size="50.0" fill="#FEFFFF" transform="matrix(1.00, 0.00, -0.00, -1.00, 919.9, 323.6)">m</text><text xml:space="preserve" font-family="OpenSans-Light,Open Sans" font-size="50.0" fill="#FEFFFF" transform="matrix(1.00, 0.00, -0.00, -1.00, 964.0, 323.6)">v</text><text xml:space="preserve" font-family="OpenSans-Light,Open Sans" font-size="50.0" fill="#FEFFFF" transform="matrix(1.00, 0.00, -0.00, -1.00, 987.0, 323.6)">i</text><text xml:space="preserve" font-family="OpenSans-Light,Open Sans" font-size="50.0" fill="#FEFFFF" transform="matrix(1.00, 0.00, -0.00, -1.00, 998.3, 323.6)">l</text><text xml:space="preserve" font-family="OpenSans-Light,Open Sans" font-size="50.0" fill="#FEFFFF" transform="matrix(1.00, 0.00, -0.00, -1.00, 1009.6, 323.6)">a</text><text xml:space="preserve" font-family="OpenSans-Light,Open Sans" font-size="50.0" fill="#FEFFFF" transform="matrix(1.00, 0.00, -0.00, -1.00, 1036.1, 323.6)">s</text><g><clipPath id="clip0x608000aa4b00"><path d="M 859.6 317.6 L 1059.4 317.6 L 1059.4 322.1 L 859.6 322.1 Z M 859.6 317.6 "></path></clipPath><g clip-path="url(#clip0x608000aa4b00)"><path d="M 4.5 61.1 L 203.3 61.1 " fill="none" stroke="#FEFFFF" stroke-width="2.49" transform="matrix(1.00, 0.00, 0.00, -1.00, 856.1, 381.0)"></path></g></g><text xml:space="preserve" font-family="OpenSans-Light,Open Sans" font-size="50.0" fill="#FEFFFF" transform="matrix(1.00, 0.00, -0.00, -1.00, 769.0, 247.6)">w</text><text xml:space="preserve" font-family="OpenSans-Light,Open Sans" font-size="50.0" fill="#FEFFFF" transform="matrix(1.00, 0.00, -0.00, -1.00, 805.2, 247.6)">w</text><text xml:space="preserve" font-family="OpenSans-Light,Open Sans" font-size="50.0" fill="#FEFFFF" transform="matrix(1.00, 0.00, -0.00, -1.00, 841.4, 247.6)">w</text><text xml:space="preserve" font-family="OpenSans-Light,Open Sans" font-size="50.0" fill="#FEFFFF" transform="matrix(1.00, 0.00, -0.00, -1.00, 875.5, 247.6)">.</text><text xml:space="preserve" font-family="OpenSans-Light,Open Sans" font-size="50.0" fill="#FEFFFF" transform="matrix(1.00, 0.00, -0.00, -1.00, 887.4, 247.6)">f</text><text xml:space="preserve" font-family="OpenSans-Light,Open Sans" font-size="50.0" fill="#FEFFFF" transform="matrix(1.00, 0.00, -0.00, -1.00, 902.4, 247.6)">m</text><text xml:space="preserve" font-family="OpenSans-Light,Open Sans" font-size="50.0" fill="#FEFFFF" transform="matrix(1.00, 0.00, -0.00, -1.00, 946.5, 247.6)">v</text><text xml:space="preserve" font-family="OpenSans-Light,Open Sans" font-size="50.0" fill="#FEFFFF" transform="matrix(1.00, 0.00, -0.00, -1.00, 969.5, 247.6)">i</text><text xml:space="preserve" font-family="OpenSans-Light,Open Sans" font-size="50.0" fill="#FEFFFF" transform="matrix(1.00, 0.00, -0.00, -1.00, 980.8, 247.6)">l</text><text xml:space="preserve" font-family="OpenSans-Light,Open Sans" font-size="50.0" fill="#FEFFFF" transform="matrix(1.00, 0.00, -0.00, -1.00, 992.1, 247.6)">a</text><text xml:space="preserve" font-family="OpenSans-Light,Open Sans" font-size="50.0" fill="#FEFFFF" transform="matrix(1.00, 0.00, -0.00, -1.00, 1018.6, 247.6)">s</text><text xml:space="preserve" font-family="OpenSans-Light,Open Sans" font-size="50.0" fill="#FEFFFF" transform="matrix(1.00, 0.00, -0.00, -1.00, 1041.8, 247.6)">.</text><text xml:space="preserve" font-family="OpenSans-Light,Open Sans" font-size="50.0" fill="#FEFFFF" transform="matrix(1.00, 0.00, -0.00, -1.00, 1053.7, 247.6)">c</text><text xml:space="preserve" font-family="OpenSans-Light,Open Sans" font-size="50.0" fill="#FEFFFF" transform="matrix(1.00, 0.00, -0.00, -1.00, 1077.5, 247.6)">o</text><text xml:space="preserve" font-family="OpenSans-Light,Open Sans" font-size="50.0" fill="#FEFFFF" transform="matrix(1.00, 0.00, -0.00, -1.00, 1106.8, 247.6)">m</text><g><clipPath id="clip0x608000aa5340"><path d="M 768.0 241.6 L 1151.0 241.6 L 1151.0 246.1 L 768.0 246.1 Z M 768.0 241.6 "></path></clipPath><g clip-path="url(#clip0x608000aa5340)"><path d="M 4.5 61.1 L 386.4 61.1 " fill="none" stroke="#FEFFFF" stroke-width="2.49" transform="matrix(1.00, 0.00, 0.00, -1.00, 764.5, 305.0)"></path></g></g><g><clipPath id="clip0x608000aa5580"><path d="M 797.6 675.8 L 798.0 970.6 C 798.0 978.9 804.3 986.0 812.6 986.0 L 1107.4 986.0 C 1115.7 986.0 1122.0 978.9 1122.0 970.6 L 1122.0 675.8 C 1122.0 667.5 1115.7 661.0 1107.4 661.0 L 812.6 661.0 C 804.3 661.0 797.6 667.5 797.6 675.8 Z M 797.6 675.8 "></path></clipPath><g clip-path="url(#clip0x608000aa5580)"><image xlink:href="../../77EC243D-0C10-4669-A938-6F48CDBF5E28/assets/29CEC6F67C7C1C3761F5C4BECB6639DA.jpeg" width="3456.00" height="3456.00" transform="matrix(0.10, 0.00, -0.00, -0.10, 794.0, 989.0)"></image></g></g><path d="M 15.0 0.0 C 6.7 0.0 0.0 6.7 0.0 15.0 L 0.0 309.8 C 0.0 318.1 6.7 324.8 15.0 324.8 L 309.8 324.8 C 318.1 324.8 324.8 318.1 324.8 309.8 L 324.8 15.0 C 324.8 6.7 318.1 0.0 309.8 0.0 L 15.0 0.0 Z M 15.0 0.0 " fill="none" stroke="#FEFFFE" stroke-width="3.00" transform="matrix(1.00, 0.00, 0.00, -1.00, 797.6, 985.6)"></path></g></svg>